{"glyphs":{"0":{"ha":971,"x_min":55,"x_max":916,"o":"m 485 -14 q 167 118 278 -14 q 55 514 55 250 q 167 910 55 778 q 485 1042 278 1042 q 804 910 692 1042 q 916 514 916 778 q 804 118 916 250 q 485 -14 692 -14 m 485 231 q 561 257 531 231 q 606 345 590 283 q 621 514 621 408 q 606 682 621 620 q 561 771 590 744 q 485 797 531 797 q 410 771 440 797 q 365 682 381 744 q 350 514 350 620 q 365 345 350 408 q 409 257 380 283 q 485 231 439 231 z "},"1":{"ha":624,"x_min":20,"x_max":542,"o":"m 347 1032 l 542 1032 l 542 0 l 240 0 l 240 681 l 20 533 l 20 811 l 347 1032 z "},"2":{"ha":787,"x_min":15,"x_max":755,"o":"m 755 247 l 755 0 l 28 0 l 28 161 l 305 490 q 388 608 363 560 q 413 698 413 656 q 374 776 413 750 q 246 801 335 801 q 124 791 186 801 q 15 762 62 780 l 15 1003 q 140 1031 63 1019 q 280 1042 216 1042 q 603 966 497 1042 q 710 728 710 890 q 677 572 710 649 q 569 408 645 494 l 427 247 l 755 247 z "},"3":{"ha":790,"x_min":26,"x_max":753,"o":"m 556 530 q 702 449 651 509 q 753 291 753 389 q 641 66 753 146 q 306 -14 528 -14 q 26 19 160 -14 l 26 240 q 158 216 86 225 q 293 207 230 207 q 429 232 388 207 q 471 310 471 258 q 430 388 471 363 q 290 413 389 413 l 122 413 l 122 636 l 272 636 q 396 659 360 636 q 433 728 433 683 q 396 798 433 775 q 276 821 359 821 q 154 810 218 821 q 40 783 90 800 l 40 1003 q 167 1031 91 1020 q 310 1042 242 1042 q 617 968 514 1042 q 720 756 720 894 q 676 613 720 672 q 556 530 633 553 z "},"4":{"ha":927,"x_min":21,"x_max":908,"o":"m 908 417 l 908 188 l 784 188 l 784 0 l 515 0 l 515 188 l 21 188 l 21 351 l 352 1028 l 638 1028 l 346 417 l 515 417 l 543 681 l 784 681 l 784 417 l 908 417 z "},"5":{"ha":800,"x_min":44,"x_max":771,"o":"m 366 640 q 599 588 510 628 q 730 482 688 549 q 771 319 771 416 q 658 71 771 156 q 325 -14 546 -14 q 44 24 182 -14 l 44 244 q 177 219 105 229 q 312 210 249 210 q 446 235 404 210 q 488 310 488 260 q 465 369 488 347 q 382 406 443 392 q 204 427 321 420 l 73 434 l 109 1028 l 730 1028 l 730 799 l 376 799 l 366 640 z "},"6":{"ha":915,"x_min":61,"x_max":881,"o":"m 545 636 q 719 602 643 636 q 838 498 794 569 q 881 320 881 427 q 835 143 881 219 q 700 27 788 68 q 492 -14 612 -14 q 264 39 360 -14 q 114 203 167 92 q 61 481 61 313 q 124 791 61 665 q 307 979 187 916 q 599 1042 427 1042 q 825 1010 738 1042 l 825 783 q 615 815 728 815 q 425 759 490 815 q 354 590 361 703 q 443 624 393 612 q 545 636 493 636 m 493 199 q 579 228 547 199 q 610 312 610 256 q 577 397 610 369 q 483 425 543 425 q 354 391 411 425 q 375 275 358 317 q 422 216 393 233 q 493 199 451 199 z "},"7":{"ha":749,"x_min":8,"x_max":710,"o":"m 8 1028 l 710 1028 l 710 867 l 408 0 l 99 0 l 392 781 l 8 781 l 8 1028 z "},"8":{"ha":971,"x_min":47,"x_max":921,"o":"m 747 553 q 882 443 842 506 q 921 293 921 381 q 873 135 921 205 q 726 26 824 66 q 486 -14 628 -14 q 238 21 336 -14 q 94 116 140 56 q 47 256 47 176 q 92 393 47 332 q 224 491 138 453 q 108 601 144 538 q 73 744 73 665 q 121 900 73 833 q 266 1004 169 967 q 504 1042 363 1042 q 715 1010 627 1042 q 849 920 803 979 q 895 781 895 862 q 747 553 895 631 m 501 839 q 391 816 427 839 q 356 756 356 792 q 370 707 356 726 q 428 667 385 687 q 557 622 471 647 q 618 682 599 651 q 638 750 638 714 q 603 816 638 793 q 501 839 569 839 m 487 189 q 642 276 642 189 q 624 330 642 308 q 560 371 606 351 q 424 413 513 391 l 411 417 q 348 359 368 392 q 327 291 327 326 q 366 215 327 242 q 487 189 406 189 z "},"9":{"ha":915,"x_min":34,"x_max":854,"o":"m 424 1042 q 651 989 555 1042 q 801 825 748 935 q 854 547 854 715 q 791 237 854 363 q 608 49 728 112 q 316 -14 488 -14 q 90 18 178 -14 l 90 244 q 300 213 187 213 q 490 269 426 213 q 561 438 554 325 q 472 404 522 416 q 370 392 422 392 q 197 425 272 392 q 77 530 121 459 q 34 708 34 601 q 81 884 34 809 q 215 1001 127 960 q 424 1042 303 1042 m 305 716 q 339 631 305 659 q 433 603 372 603 q 561 637 504 603 q 540 752 558 710 q 493 811 522 794 q 422 828 465 828 q 336 800 368 828 q 305 716 305 772 z "},"\u0000":{"ha":0,"x_min":0,"x_max":0,"o":""},"\r":{"ha":356,"x_min":0,"x_max":0,"o":""}," ":{"ha":356,"x_min":0,"x_max":0,"o":""},"A":{"ha":1063,"x_min":3,"x_max":1060,"o":"m 765 0 l 700 235 l 360 235 l 295 0 l 3 0 l 310 1028 l 753 1028 l 1060 0 l 765 0 m 425 472 l 635 472 l 529 851 l 425 472 z "},"Á":{"ha":1063,"x_min":3,"x_max":1060,"o":"m 765 0 l 700 235 l 360 235 l 295 0 l 3 0 l 310 1028 l 753 1028 l 1060 0 l 765 0 m 425 472 l 635 472 l 529 851 l 425 472 m 397 1101 l 524 1321 l 833 1321 l 662 1101 l 397 1101 z "},"Ă":{"ha":1063,"x_min":3,"x_max":1060,"o":"m 765 0 l 700 235 l 360 235 l 295 0 l 3 0 l 310 1028 l 753 1028 l 1060 0 l 765 0 m 425 472 l 635 472 l 529 851 l 425 472 m 531 1101 q 323 1160 398 1101 q 235 1321 249 1218 l 411 1321 q 449 1259 419 1280 q 531 1238 478 1238 q 613 1259 583 1238 q 650 1321 642 1280 l 826 1321 q 738 1160 813 1218 q 531 1101 663 1101 z "},"Ắ":{"ha":1063,"x_min":3,"x_max":1060,"o":"m 765 0 l 700 235 l 360 235 l 295 0 l 3 0 l 310 1028 l 753 1028 l 1060 0 l 765 0 m 425 472 l 635 472 l 529 851 l 425 472 m 454 1269 l 520 1433 l 713 1433 l 607 1269 l 454 1269 m 531 1101 q 337 1152 406 1101 q 253 1290 267 1202 l 404 1290 q 442 1234 415 1252 q 531 1216 469 1216 q 599 1225 573 1216 q 639 1249 624 1233 q 664 1290 653 1265 l 808 1290 q 724 1152 794 1202 q 531 1101 655 1101 z "},"Ặ":{"ha":1063,"x_min":3,"x_max":1060,"o":"m 765 0 l 700 235 l 360 235 l 295 0 l 3 0 l 310 1028 l 753 1028 l 1060 0 l 765 0 m 425 472 l 635 472 l 529 851 l 425 472 m 531 -322 q 400 -290 444 -322 q 356 -197 356 -258 q 400 -105 356 -137 q 531 -72 444 -72 q 663 -105 618 -72 q 707 -197 707 -137 q 663 -290 707 -258 q 531 -322 618 -322 m 531 1101 q 323 1160 398 1101 q 235 1321 249 1218 l 411 1321 q 449 1259 419 1280 q 531 1238 478 1238 q 613 1259 583 1238 q 650 1321 642 1280 l 826 1321 q 738 1160 813 1218 q 531 1101 663 1101 z "},"Ằ":{"ha":1063,"x_min":3,"x_max":1060,"o":"m 765 0 l 700 235 l 360 235 l 295 0 l 3 0 l 310 1028 l 753 1028 l 1060 0 l 765 0 m 425 472 l 635 472 l 529 851 l 425 472 m 454 1269 l 349 1433 l 541 1433 l 607 1269 l 454 1269 m 531 1101 q 337 1152 406 1101 q 253 1290 267 1202 l 397 1290 q 422 1249 408 1265 q 463 1225 437 1233 q 531 1216 488 1216 q 619 1234 592 1216 q 657 1290 647 1252 l 808 1290 q 724 1152 794 1202 q 531 1101 655 1101 z "},"Ẳ":{"ha":1063,"x_min":3,"x_max":1060,"o":"m 765 0 l 700 235 l 360 235 l 295 0 l 3 0 l 310 1028 l 753 1028 l 1060 0 l 765 0 m 425 472 l 635 472 l 529 851 l 425 472 m 460 1269 q 483 1313 463 1297 q 539 1343 503 1328 q 567 1356 558 1351 q 576 1368 576 1361 q 503 1386 576 1386 q 370 1374 436 1386 l 370 1461 q 445 1471 401 1467 q 526 1475 490 1475 q 677 1453 629 1475 q 725 1387 725 1432 q 707 1345 725 1361 q 653 1313 688 1330 q 615 1291 628 1300 q 601 1269 603 1282 l 460 1269 m 531 1101 q 337 1152 406 1101 q 253 1290 267 1202 l 404 1290 q 442 1234 415 1252 q 531 1216 469 1216 q 599 1225 573 1216 q 639 1249 624 1233 q 664 1290 653 1265 l 808 1290 q 724 1152 794 1202 q 531 1101 655 1101 z "},"Ẵ":{"ha":1063,"x_min":3,"x_max":1060,"o":"m 765 0 l 700 235 l 360 235 l 295 0 l 3 0 l 310 1028 l 753 1028 l 1060 0 l 765 0 m 425 472 l 635 472 l 529 851 l 425 472 m 642 1319 q 585 1324 612 1319 q 516 1340 559 1329 q 461 1354 484 1349 q 417 1358 439 1358 q 340 1348 376 1358 q 253 1313 304 1338 l 253 1431 q 334 1466 297 1457 q 419 1475 370 1475 q 479 1469 450 1475 q 545 1453 508 1463 q 603 1439 583 1443 q 644 1435 623 1435 q 721 1445 685 1435 q 808 1481 757 1455 l 808 1363 q 728 1328 765 1336 q 642 1319 692 1319 m 531 1101 q 337 1152 406 1101 q 253 1290 267 1202 l 404 1290 q 442 1234 415 1252 q 531 1216 469 1216 q 619 1234 592 1216 q 657 1290 647 1252 l 808 1290 q 724 1152 794 1202 q 531 1101 655 1101 z "},"Â":{"ha":1063,"x_min":3,"x_max":1060,"o":"m 765 0 l 700 235 l 360 235 l 295 0 l 3 0 l 310 1028 l 753 1028 l 1060 0 l 765 0 m 425 472 l 635 472 l 529 851 l 425 472 m 836 1101 l 620 1101 l 531 1217 l 441 1101 l 225 1101 l 408 1321 l 653 1321 l 836 1101 z "},"Ấ":{"ha":1063,"x_min":3,"x_max":1060,"o":"m 765 0 l 700 235 l 360 235 l 295 0 l 3 0 l 310 1028 l 753 1028 l 1060 0 l 765 0 m 425 472 l 635 472 l 529 851 l 425 472 m 782 1433 l 974 1433 l 869 1269 l 715 1269 l 782 1433 m 408 1290 l 653 1290 l 836 1101 l 620 1101 l 531 1201 l 441 1101 l 225 1101 l 408 1290 z "},"Ậ":{"ha":1063,"x_min":3,"x_max":1060,"o":"m 765 0 l 700 235 l 360 235 l 295 0 l 3 0 l 310 1028 l 753 1028 l 1060 0 l 765 0 m 425 472 l 635 472 l 529 851 l 425 472 m 531 -322 q 400 -290 444 -322 q 356 -197 356 -258 q 400 -105 356 -137 q 531 -72 444 -72 q 663 -105 618 -72 q 707 -197 707 -137 q 663 -290 707 -258 q 531 -322 618 -322 m 836 1101 l 620 1101 l 531 1217 l 441 1101 l 225 1101 l 408 1321 l 653 1321 l 836 1101 z "},"Ầ":{"ha":1063,"x_min":3,"x_max":1060,"o":"m 765 0 l 700 235 l 360 235 l 295 0 l 3 0 l 310 1028 l 753 1028 l 1060 0 l 765 0 m 425 472 l 635 472 l 529 851 l 425 472 m 897 1269 l 743 1269 l 638 1433 l 830 1433 l 897 1269 m 408 1290 l 653 1290 l 836 1101 l 620 1101 l 531 1201 l 441 1101 l 225 1101 l 408 1290 z "},"Ẩ":{"ha":1063,"x_min":3,"x_max":1060,"o":"m 765 0 l 700 235 l 360 235 l 295 0 l 3 0 l 310 1028 l 753 1028 l 1060 0 l 765 0 m 425 472 l 635 472 l 529 851 l 425 472 m 781 1475 q 932 1453 883 1475 q 980 1387 980 1432 q 961 1345 980 1361 q 908 1313 943 1330 q 870 1291 883 1301 q 855 1269 857 1282 l 715 1269 q 737 1313 717 1297 q 793 1343 758 1328 q 821 1356 812 1351 q 830 1368 830 1361 q 757 1386 830 1386 q 624 1374 690 1386 l 624 1461 q 700 1471 655 1467 q 781 1475 744 1475 m 408 1290 l 653 1290 l 836 1101 l 620 1101 l 531 1201 l 441 1101 l 225 1101 l 408 1290 z "},"Ẫ":{"ha":1063,"x_min":3,"x_max":1060,"o":"m 765 0 l 700 235 l 360 235 l 295 0 l 3 0 l 310 1028 l 753 1028 l 1060 0 l 765 0 m 425 472 l 635 472 l 529 851 l 425 472 m 663 1435 q 746 1445 708 1435 q 836 1481 784 1455 l 836 1363 q 753 1328 792 1336 q 660 1319 715 1319 q 593 1325 624 1319 q 514 1340 563 1330 q 452 1354 478 1349 q 399 1358 425 1358 q 315 1348 353 1358 q 225 1313 277 1338 l 225 1431 q 309 1466 269 1457 q 401 1475 348 1475 q 470 1469 438 1475 q 547 1453 502 1464 q 610 1440 585 1444 q 663 1435 636 1435 m 408 1290 l 653 1290 l 836 1101 l 620 1101 l 531 1201 l 441 1101 l 225 1101 l 408 1290 z "},"Ȁ":{"ha":1063,"x_min":3,"x_max":1060,"o":"m 765 0 l 700 235 l 360 235 l 295 0 l 3 0 l 310 1028 l 753 1028 l 1060 0 l 765 0 m 425 472 l 635 472 l 529 851 l 425 472 m 266 1101 l 153 1321 l 383 1321 l 481 1101 l 266 1101 m 580 1101 l 467 1321 l 697 1321 l 795 1101 l 580 1101 z "},"Ä":{"ha":1063,"x_min":3,"x_max":1060,"o":"m 765 0 l 700 235 l 360 235 l 295 0 l 3 0 l 310 1028 l 753 1028 l 1060 0 l 765 0 m 425 472 l 635 472 l 529 851 l 425 472 m 341 1090 q 227 1123 266 1090 q 189 1215 189 1155 q 227 1308 189 1276 q 341 1340 266 1340 q 454 1308 416 1340 q 492 1215 492 1276 q 454 1123 492 1155 q 341 1090 416 1090 m 720 1090 q 607 1123 645 1090 q 569 1215 569 1155 q 607 1308 569 1276 q 720 1340 645 1340 q 834 1308 795 1340 q 872 1215 872 1276 q 834 1123 872 1155 q 720 1090 795 1090 z "},"Ạ":{"ha":1063,"x_min":3,"x_max":1060,"o":"m 765 0 l 700 235 l 360 235 l 295 0 l 3 0 l 310 1028 l 753 1028 l 1060 0 l 765 0 m 425 472 l 635 472 l 529 851 l 425 472 m 531 -322 q 400 -290 444 -322 q 356 -197 356 -258 q 400 -105 356 -137 q 531 -72 444 -72 q 663 -105 618 -72 q 707 -197 707 -137 q 663 -290 707 -258 q 531 -322 618 -322 z "},"À":{"ha":1063,"x_min":3,"x_max":1060,"o":"m 765 0 l 700 235 l 360 235 l 295 0 l 3 0 l 310 1028 l 753 1028 l 1060 0 l 765 0 m 425 472 l 635 472 l 529 851 l 425 472 m 398 1101 l 227 1321 l 536 1321 l 663 1101 l 398 1101 z "},"Ả":{"ha":1063,"x_min":3,"x_max":1060,"o":"m 765 0 l 700 235 l 360 235 l 295 0 l 3 0 l 310 1028 l 753 1028 l 1060 0 l 765 0 m 425 472 l 635 472 l 529 851 l 425 472 m 460 1101 q 474 1140 462 1124 q 500 1166 485 1156 q 540 1187 515 1175 q 567 1202 559 1196 q 576 1215 576 1208 q 558 1232 576 1226 q 503 1237 540 1237 q 370 1223 437 1237 l 370 1325 q 444 1336 400 1332 q 526 1340 489 1340 q 677 1315 628 1340 q 725 1238 725 1290 q 707 1190 725 1208 q 653 1152 688 1172 q 616 1126 628 1137 q 601 1101 603 1116 l 460 1101 z "},"Ȃ":{"ha":1063,"x_min":3,"x_max":1060,"o":"m 765 0 l 700 235 l 360 235 l 295 0 l 3 0 l 310 1028 l 753 1028 l 1060 0 l 765 0 m 425 472 l 635 472 l 529 851 l 425 472 m 235 1101 q 323 1263 249 1204 q 531 1321 398 1321 q 738 1263 663 1321 q 826 1101 813 1204 l 650 1101 q 613 1163 642 1142 q 531 1184 583 1184 q 449 1163 478 1184 q 411 1101 419 1142 l 235 1101 z "},"Ā":{"ha":1063,"x_min":3,"x_max":1060,"o":"m 765 0 l 700 235 l 360 235 l 295 0 l 3 0 l 310 1028 l 753 1028 l 1060 0 l 765 0 m 425 472 l 635 472 l 529 851 l 425 472 m 246 1126 l 246 1298 l 815 1298 l 815 1126 l 246 1126 z "},"Ą":{"ha":1063,"x_min":3,"x_max":1076,"o":"m 985 -208 q 1076 -191 1026 -208 l 1076 -299 q 942 -319 1013 -319 q 779 -278 833 -319 q 725 -164 725 -237 q 751 -74 725 -115 q 837 0 778 -33 l 765 0 l 700 235 l 360 235 l 295 0 l 3 0 l 310 1028 l 753 1028 l 1060 0 q 927 -67 965 -32 q 890 -143 890 -101 q 985 -208 890 -208 m 425 472 l 635 472 l 529 851 l 425 472 z "},"Å":{"ha":1063,"x_min":3,"x_max":1060,"o":"m 765 0 l 700 235 l 360 235 l 295 0 l 3 0 l 310 1028 l 753 1028 l 1060 0 l 765 0 m 425 472 l 635 472 l 529 851 l 425 472 m 531 1090 q 449 1110 485 1090 q 393 1165 413 1130 q 372 1243 372 1199 q 393 1322 372 1287 q 449 1376 413 1356 q 531 1396 485 1396 q 612 1376 576 1396 q 668 1322 648 1356 q 689 1243 689 1287 q 668 1165 689 1199 q 612 1110 648 1130 q 531 1090 576 1090 m 531 1186 q 570 1202 555 1186 q 585 1243 585 1217 q 570 1284 585 1269 q 531 1300 555 1300 q 491 1284 506 1300 q 476 1243 476 1269 q 491 1202 476 1217 q 531 1186 506 1186 z "},"Ǻ":{"ha":1063,"x_min":3,"x_max":1060,"o":"m 765 0 l 700 235 l 360 235 l 295 0 l 3 0 l 310 1028 l 753 1028 l 1060 0 l 765 0 m 425 472 l 635 472 l 529 851 l 425 472 m 672 1315 q 689 1243 689 1283 q 668 1165 689 1199 q 612 1110 648 1130 q 531 1090 576 1090 q 449 1110 485 1090 q 393 1165 413 1130 q 372 1243 372 1199 q 393 1322 372 1287 q 449 1376 413 1356 q 531 1396 485 1396 q 545 1395 540 1396 l 613 1483 l 818 1483 l 672 1315 m 531 1186 q 570 1202 555 1186 q 585 1243 585 1217 q 570 1284 585 1269 q 531 1300 555 1300 q 491 1284 506 1300 q 476 1243 476 1269 q 491 1202 476 1217 q 531 1186 506 1186 z "},"Ã":{"ha":1063,"x_min":3,"x_max":1060,"o":"m 765 0 l 700 235 l 360 235 l 295 0 l 3 0 l 310 1028 l 753 1028 l 1060 0 l 765 0 m 425 472 l 635 472 l 529 851 l 425 472 m 658 1101 q 591 1109 622 1101 q 518 1129 559 1116 q 452 1148 478 1142 q 397 1154 426 1154 q 318 1143 352 1154 q 246 1106 283 1131 l 246 1267 q 315 1308 278 1295 q 403 1321 351 1321 q 469 1314 438 1321 q 543 1292 500 1306 q 608 1273 582 1279 q 664 1267 635 1267 q 743 1278 709 1267 q 815 1315 778 1290 l 815 1153 q 747 1114 784 1126 q 658 1101 710 1101 z "},"Æ":{"ha":1467,"x_min":3,"x_max":1417,"o":"m 975 238 l 1417 238 l 1417 0 l 697 0 l 678 235 l 362 235 l 297 0 l 3 0 l 310 1028 l 1410 1028 l 1410 790 l 924 790 l 938 643 l 1338 643 l 1338 406 l 960 406 l 975 238 m 428 472 l 659 472 l 633 790 l 515 790 l 428 472 z "},"Ǽ":{"ha":1467,"x_min":3,"x_max":1417,"o":"m 975 238 l 1417 238 l 1417 0 l 697 0 l 678 235 l 362 235 l 297 0 l 3 0 l 310 1028 l 1410 1028 l 1410 790 l 924 790 l 938 643 l 1338 643 l 1338 406 l 960 406 l 975 238 m 428 472 l 659 472 l 633 790 l 515 790 l 428 472 m 627 1101 l 754 1321 l 1063 1321 l 892 1101 l 627 1101 z "},"B":{"ha":960,"x_min":76,"x_max":933,"o":"m 752 530 q 883 452 834 511 q 933 294 933 393 q 879 126 933 194 q 706 22 826 58 q 390 -14 585 -14 q 233 -7 324 -14 q 76 9 143 -1 l 76 1001 q 253 1030 154 1019 q 437 1042 352 1042 q 792 969 679 1042 q 905 747 905 897 q 863 611 905 669 q 752 530 821 552 m 478 826 q 370 815 428 826 l 370 635 l 481 635 q 591 658 559 635 q 623 731 623 681 q 590 803 623 781 q 478 826 558 826 m 474 202 q 583 213 544 202 q 639 247 622 224 q 656 308 656 270 q 621 389 656 364 q 503 413 586 413 l 370 413 l 370 206 q 474 202 420 202 z "},"C":{"ha":900,"x_min":48,"x_max":863,"o":"m 632 -14 q 48 511 48 -14 q 117 800 48 681 q 318 980 185 919 q 643 1042 451 1042 q 863 1020 762 1042 l 863 775 q 669 794 764 794 q 495 765 563 794 q 396 674 428 735 q 364 514 364 612 q 395 352 364 414 q 492 262 426 291 q 663 233 558 233 q 863 262 751 233 l 863 17 q 753 -6 815 3 q 632 -14 692 -14 z "},"Ć":{"ha":900,"x_min":48,"x_max":863,"o":"m 632 -14 q 48 511 48 -14 q 117 800 48 681 q 318 980 185 919 q 643 1042 451 1042 q 863 1020 762 1042 l 863 775 q 669 794 764 794 q 495 765 563 794 q 396 674 428 735 q 364 514 364 612 q 395 352 364 414 q 492 262 426 291 q 663 233 558 233 q 863 262 751 233 l 863 17 q 753 -6 815 3 q 632 -14 692 -14 m 410 1101 l 538 1321 l 847 1321 l 676 1101 l 410 1101 z "},"Č":{"ha":900,"x_min":48,"x_max":863,"o":"m 632 -14 q 48 511 48 -14 q 117 800 48 681 q 318 980 185 919 q 643 1042 451 1042 q 863 1020 762 1042 l 863 775 q 669 794 764 794 q 495 765 563 794 q 396 674 428 735 q 364 514 364 612 q 395 352 364 414 q 492 262 426 291 q 663 233 558 233 q 863 262 751 233 l 863 17 q 753 -6 815 3 q 632 -14 692 -14 m 634 1321 l 850 1321 l 667 1101 l 422 1101 l 239 1321 l 455 1321 l 544 1206 l 634 1321 z "},"Ç":{"ha":900,"x_min":48,"x_max":863,"o":"m 669 794 q 495 765 563 794 q 396 674 428 735 q 364 514 364 612 q 395 352 364 414 q 492 262 426 291 q 663 233 558 233 q 863 262 751 233 l 863 17 q 753 -6 815 3 q 632 -14 692 -14 q 593 -13 606 -14 l 593 -53 q 691 -96 658 -63 q 724 -181 724 -129 q 671 -283 724 -247 q 510 -319 619 -319 q 365 -299 433 -319 l 365 -194 q 429 -208 394 -203 q 495 -213 465 -213 q 555 -203 536 -213 q 574 -171 574 -194 q 554 -136 574 -147 q 494 -126 534 -126 l 458 -126 l 458 0 q 48 511 48 72 q 117 800 48 681 q 318 980 185 919 q 643 1042 451 1042 q 863 1020 762 1042 l 863 775 q 669 794 764 794 z "},"Ḉ":{"ha":900,"x_min":48,"x_max":863,"o":"m 847 1321 l 676 1101 l 410 1101 l 538 1321 l 847 1321 m 669 794 q 495 765 563 794 q 396 674 428 735 q 364 514 364 612 q 395 352 364 414 q 492 262 426 291 q 663 233 558 233 q 863 262 751 233 l 863 17 q 753 -6 815 3 q 632 -14 692 -14 q 593 -13 606 -14 l 593 -53 q 691 -96 658 -63 q 724 -181 724 -129 q 671 -283 724 -247 q 510 -319 619 -319 q 365 -299 433 -319 l 365 -194 q 429 -208 394 -203 q 495 -213 465 -213 q 555 -203 536 -213 q 574 -171 574 -194 q 554 -136 574 -147 q 494 -126 534 -126 l 458 -126 l 458 0 q 48 511 48 72 q 117 800 48 681 q 318 980 185 919 q 643 1042 451 1042 q 863 1020 762 1042 l 863 775 q 669 794 764 794 z "},"Ĉ":{"ha":900,"x_min":48,"x_max":863,"o":"m 632 -14 q 48 511 48 -14 q 117 800 48 681 q 318 980 185 919 q 643 1042 451 1042 q 863 1020 762 1042 l 863 775 q 669 794 764 794 q 495 765 563 794 q 396 674 428 735 q 364 514 364 612 q 395 352 364 414 q 492 262 426 291 q 663 233 558 233 q 863 262 751 233 l 863 17 q 753 -6 815 3 q 632 -14 692 -14 m 850 1101 l 634 1101 l 544 1217 l 455 1101 l 239 1101 l 422 1321 l 667 1321 l 850 1101 z "},"Ċ":{"ha":900,"x_min":48,"x_max":863,"o":"m 632 -14 q 48 511 48 -14 q 117 800 48 681 q 318 980 185 919 q 643 1042 451 1042 q 863 1020 762 1042 l 863 775 q 669 794 764 794 q 495 765 563 794 q 396 674 428 735 q 364 514 364 612 q 395 352 364 414 q 492 262 426 291 q 663 233 558 233 q 863 262 751 233 l 863 17 q 753 -6 815 3 q 632 -14 692 -14 m 544 1090 q 413 1123 458 1090 q 369 1215 369 1155 q 413 1308 369 1276 q 544 1340 458 1340 q 676 1308 631 1340 q 720 1215 720 1276 q 676 1123 720 1155 q 544 1090 631 1090 z "},"D":{"ha":1088,"x_min":76,"x_max":1040,"o":"m 383 -12 q 228 -7 311 -12 q 76 6 145 -3 l 76 1001 q 251 1029 154 1019 q 440 1040 348 1040 q 890 911 740 1040 q 1040 514 1040 783 q 968 213 1040 329 q 752 43 897 97 q 383 -12 608 -12 m 466 231 q 616 258 558 231 q 702 348 674 286 q 731 515 731 410 q 701 681 731 619 q 612 771 671 743 q 464 799 553 799 q 420 796 445 799 q 378 790 395 794 l 378 233 q 466 231 410 231 z "},"Ǳ":{"ha":1956,"x_min":76,"x_max":1915,"o":"m 383 -12 q 228 -7 311 -12 q 76 6 145 -3 l 76 1001 q 251 1029 154 1019 q 440 1040 348 1040 q 890 911 740 1040 q 1040 514 1040 783 q 968 213 1040 329 q 752 43 897 97 q 383 -12 608 -12 m 466 231 q 616 258 558 231 q 702 348 674 286 q 731 515 731 410 q 701 681 731 619 q 612 771 671 743 q 464 799 553 799 q 420 796 445 799 q 378 790 395 794 l 378 233 q 466 231 410 231 m 1484 249 l 1915 249 l 1915 0 l 1094 0 l 1094 165 l 1518 779 l 1101 779 l 1101 1028 l 1908 1028 l 1908 863 l 1484 249 z "},"Ǆ":{"ha":1956,"x_min":76,"x_max":1915,"o":"m 383 -12 q 228 -7 311 -12 q 76 6 145 -3 l 76 1001 q 251 1029 154 1019 q 440 1040 348 1040 q 890 911 740 1040 q 1040 514 1040 783 q 968 213 1040 329 q 752 43 897 97 q 383 -12 608 -12 m 466 231 q 616 258 558 231 q 702 348 674 286 q 731 515 731 410 q 701 681 731 619 q 612 771 671 743 q 464 799 553 799 q 420 796 445 799 q 378 790 395 794 l 378 233 q 466 231 410 231 m 1484 249 l 1915 249 l 1915 0 l 1094 0 l 1094 165 l 1518 779 l 1101 779 l 1101 1028 l 1908 1028 l 1908 863 l 1484 249 m 1595 1321 l 1811 1321 l 1628 1101 l 1383 1101 l 1200 1321 l 1416 1321 l 1506 1206 l 1595 1321 z "},"Ð":{"ha":1088,"x_min":3,"x_max":1040,"o":"m 440 1040 q 890 911 740 1040 q 1040 514 1040 783 q 968 213 1040 329 q 752 43 897 97 q 383 -12 608 -12 q 228 -7 311 -12 q 76 6 145 -3 l 76 435 l 3 435 l 3 623 l 76 623 l 76 1001 q 251 1029 154 1019 q 440 1040 348 1040 m 466 231 q 616 258 558 231 q 702 348 674 286 q 731 515 731 410 q 701 681 731 619 q 612 771 671 743 q 464 799 553 799 q 420 796 445 799 q 378 790 395 794 l 378 623 l 540 623 l 540 435 l 378 435 l 378 233 q 466 231 410 231 z "},"Ď":{"ha":1088,"x_min":76,"x_max":1040,"o":"m 383 -12 q 228 -7 311 -12 q 76 6 145 -3 l 76 1001 q 251 1029 154 1019 q 440 1040 348 1040 q 890 911 740 1040 q 1040 514 1040 783 q 968 213 1040 329 q 752 43 897 97 q 383 -12 608 -12 m 466 231 q 616 258 558 231 q 702 348 674 286 q 731 515 731 410 q 701 681 731 619 q 612 771 671 743 q 464 799 553 799 q 420 796 445 799 q 378 790 395 794 l 378 233 q 466 231 410 231 m 573 1321 l 789 1321 l 606 1101 l 360 1101 l 178 1321 l 394 1321 l 483 1206 l 573 1321 z "},"Đ":{"ha":1088,"x_min":3,"x_max":1040,"o":"m 440 1040 q 890 911 740 1040 q 1040 514 1040 783 q 968 213 1040 329 q 752 43 897 97 q 383 -12 608 -12 q 228 -7 311 -12 q 76 6 145 -3 l 76 435 l 3 435 l 3 623 l 76 623 l 76 1001 q 251 1029 154 1019 q 440 1040 348 1040 m 466 231 q 616 258 558 231 q 702 348 674 286 q 731 515 731 410 q 701 681 731 619 q 612 771 671 743 q 464 799 553 799 q 420 796 445 799 q 378 790 395 794 l 378 623 l 540 623 l 540 435 l 378 435 l 378 233 q 466 231 410 231 z "},"Ḍ":{"ha":1088,"x_min":76,"x_max":1040,"o":"m 383 -12 q 228 -7 311 -12 q 76 6 145 -3 l 76 1001 q 251 1029 154 1019 q 440 1040 348 1040 q 890 911 740 1040 q 1040 514 1040 783 q 968 213 1040 329 q 752 43 897 97 q 383 -12 608 -12 m 466 231 q 616 258 558 231 q 702 348 674 286 q 731 515 731 410 q 701 681 731 619 q 612 771 671 743 q 464 799 553 799 q 420 796 445 799 q 378 790 395 794 l 378 233 q 466 231 410 231 m 497 -322 q 366 -290 410 -322 q 322 -197 322 -258 q 366 -105 322 -137 q 497 -72 410 -72 q 628 -105 584 -72 q 673 -197 673 -137 q 628 -290 673 -258 q 497 -322 584 -322 z "},"Ḏ":{"ha":1088,"x_min":76,"x_max":1040,"o":"m 383 -12 q 228 -7 311 -12 q 76 6 145 -3 l 76 1001 q 251 1029 154 1019 q 440 1040 348 1040 q 890 911 740 1040 q 1040 514 1040 783 q 968 213 1040 329 q 752 43 897 97 q 383 -12 608 -12 m 466 231 q 616 258 558 231 q 702 348 674 286 q 731 515 731 410 q 701 681 731 619 q 612 771 671 743 q 464 799 553 799 q 420 796 445 799 q 378 790 395 794 l 378 233 q 466 231 410 231 m 213 -276 l 213 -103 l 782 -103 l 782 -276 l 213 -276 z "},"ǲ":{"ha":1835,"x_min":76,"x_max":1803,"o":"m 383 -12 q 228 -7 311 -12 q 76 6 145 -3 l 76 1001 q 251 1029 154 1019 q 440 1040 348 1040 q 890 911 740 1040 q 1040 514 1040 783 q 968 213 1040 329 q 752 43 897 97 q 383 -12 608 -12 m 466 231 q 616 258 558 231 q 702 348 674 286 q 731 515 731 410 q 701 681 731 619 q 612 771 671 743 q 464 799 553 799 q 420 796 445 799 q 378 790 395 794 l 378 233 q 466 231 410 231 m 1500 230 l 1803 230 l 1803 0 l 1135 0 l 1135 188 l 1431 534 l 1142 534 l 1142 764 l 1796 764 l 1796 576 l 1500 230 z "},"ǅ":{"ha":1835,"x_min":76,"x_max":1803,"o":"m 383 -12 q 228 -7 311 -12 q 76 6 145 -3 l 76 1001 q 251 1029 154 1019 q 440 1040 348 1040 q 890 911 740 1040 q 1040 514 1040 783 q 968 213 1040 329 q 752 43 897 97 q 383 -12 608 -12 m 466 231 q 616 258 558 231 q 702 348 674 286 q 731 515 731 410 q 701 681 731 619 q 612 771 671 743 q 464 799 553 799 q 420 796 445 799 q 378 790 395 794 l 378 233 q 466 231 410 231 m 1500 230 l 1803 230 l 1803 0 l 1135 0 l 1135 188 l 1431 534 l 1142 534 l 1142 764 l 1796 764 l 1796 576 l 1500 230 m 1558 1099 l 1774 1099 l 1592 879 l 1346 879 l 1163 1099 l 1379 1099 l 1469 983 l 1558 1099 z "},"E":{"ha":913,"x_min":76,"x_max":863,"o":"m 374 238 l 863 238 l 863 0 l 76 0 l 76 1028 l 856 1028 l 856 790 l 374 790 l 374 643 l 783 643 l 783 406 l 374 406 l 374 238 z "},"É":{"ha":913,"x_min":76,"x_max":863,"o":"m 374 238 l 863 238 l 863 0 l 76 0 l 76 1028 l 856 1028 l 856 790 l 374 790 l 374 643 l 783 643 l 783 406 l 374 406 l 374 238 m 347 1101 l 474 1321 l 783 1321 l 612 1101 l 347 1101 z "},"Ĕ":{"ha":913,"x_min":76,"x_max":863,"o":"m 374 238 l 863 238 l 863 0 l 76 0 l 76 1028 l 856 1028 l 856 790 l 374 790 l 374 643 l 783 643 l 783 406 l 374 406 l 374 238 m 481 1101 q 273 1160 348 1101 q 185 1321 199 1218 l 361 1321 q 399 1259 369 1280 q 481 1238 428 1238 q 563 1259 533 1238 q 600 1321 592 1280 l 776 1321 q 688 1160 763 1218 q 481 1101 613 1101 z "},"Ě":{"ha":913,"x_min":76,"x_max":863,"o":"m 374 238 l 863 238 l 863 0 l 76 0 l 76 1028 l 856 1028 l 856 790 l 374 790 l 374 643 l 783 643 l 783 406 l 374 406 l 374 238 m 570 1321 l 786 1321 l 603 1101 l 358 1101 l 175 1321 l 391 1321 l 481 1206 l 570 1321 z "},"Ḝ":{"ha":913,"x_min":76,"x_max":863,"o":"m 481 1101 q 273 1160 348 1101 q 185 1321 199 1218 l 361 1321 q 399 1259 369 1280 q 481 1238 428 1238 q 563 1259 533 1238 q 600 1321 592 1280 l 776 1321 q 688 1160 763 1218 q 481 1101 613 1101 m 529 0 l 529 -53 q 627 -96 594 -63 q 660 -181 660 -129 q 607 -283 660 -247 q 447 -319 555 -319 q 301 -299 369 -319 l 301 -194 q 365 -208 330 -203 q 431 -213 401 -213 q 491 -203 472 -213 q 510 -171 510 -194 q 490 -136 510 -147 q 431 -126 470 -126 l 394 -126 l 394 0 l 76 0 l 76 1028 l 856 1028 l 856 790 l 374 790 l 374 643 l 783 643 l 783 406 l 374 406 l 374 238 l 863 238 l 863 0 l 529 0 z "},"Ê":{"ha":913,"x_min":76,"x_max":863,"o":"m 374 238 l 863 238 l 863 0 l 76 0 l 76 1028 l 856 1028 l 856 790 l 374 790 l 374 643 l 783 643 l 783 406 l 374 406 l 374 238 m 786 1101 l 570 1101 l 481 1217 l 391 1101 l 175 1101 l 358 1321 l 603 1321 l 786 1101 z "},"Ế":{"ha":913,"x_min":76,"x_max":924,"o":"m 374 238 l 863 238 l 863 0 l 76 0 l 76 1028 l 856 1028 l 856 790 l 374 790 l 374 643 l 783 643 l 783 406 l 374 406 l 374 238 m 732 1433 l 924 1433 l 819 1269 l 665 1269 l 732 1433 m 358 1290 l 603 1290 l 786 1101 l 570 1101 l 481 1201 l 391 1101 l 175 1101 l 358 1290 z "},"Ệ":{"ha":913,"x_min":76,"x_max":863,"o":"m 374 238 l 863 238 l 863 0 l 76 0 l 76 1028 l 856 1028 l 856 790 l 374 790 l 374 643 l 783 643 l 783 406 l 374 406 l 374 238 m 481 -322 q 349 -290 394 -322 q 305 -197 305 -258 q 349 -105 305 -137 q 481 -72 394 -72 q 612 -105 567 -72 q 656 -197 656 -137 q 612 -290 656 -258 q 481 -322 567 -322 m 786 1101 l 570 1101 l 481 1217 l 391 1101 l 175 1101 l 358 1321 l 603 1321 l 786 1101 z "},"Ề":{"ha":913,"x_min":76,"x_max":863,"o":"m 374 238 l 863 238 l 863 0 l 76 0 l 76 1028 l 856 1028 l 856 790 l 374 790 l 374 643 l 783 643 l 783 406 l 374 406 l 374 238 m 847 1269 l 693 1269 l 588 1433 l 780 1433 l 847 1269 m 358 1290 l 603 1290 l 786 1101 l 570 1101 l 481 1201 l 391 1101 l 175 1101 l 358 1290 z "},"Ể":{"ha":913,"x_min":76,"x_max":930,"o":"m 374 238 l 863 238 l 863 0 l 76 0 l 76 1028 l 856 1028 l 856 790 l 374 790 l 374 643 l 783 643 l 783 406 l 374 406 l 374 238 m 731 1475 q 882 1453 833 1475 q 930 1387 930 1432 q 911 1345 930 1361 q 858 1313 893 1330 q 820 1291 833 1301 q 805 1269 807 1282 l 665 1269 q 687 1313 667 1297 q 743 1343 708 1328 q 771 1356 762 1351 q 780 1368 780 1361 q 707 1386 780 1386 q 574 1374 640 1386 l 574 1461 q 650 1471 605 1467 q 731 1475 694 1475 m 358 1290 l 603 1290 l 786 1101 l 570 1101 l 481 1201 l 391 1101 l 175 1101 l 358 1290 z "},"Ễ":{"ha":913,"x_min":76,"x_max":863,"o":"m 374 238 l 863 238 l 863 0 l 76 0 l 76 1028 l 856 1028 l 856 790 l 374 790 l 374 643 l 783 643 l 783 406 l 374 406 l 374 238 m 613 1435 q 696 1445 658 1435 q 786 1481 734 1455 l 786 1363 q 703 1328 742 1336 q 610 1319 665 1319 q 543 1325 574 1319 q 464 1340 513 1330 q 402 1354 428 1349 q 349 1358 375 1358 q 265 1348 303 1358 q 175 1313 227 1338 l 175 1431 q 259 1466 219 1457 q 351 1475 298 1475 q 420 1469 388 1475 q 497 1453 452 1464 q 560 1440 535 1444 q 613 1435 586 1435 m 358 1290 l 603 1290 l 786 1101 l 570 1101 l 481 1201 l 391 1101 l 175 1101 l 358 1290 z "},"Ȅ":{"ha":913,"x_min":76,"x_max":863,"o":"m 374 238 l 863 238 l 863 0 l 76 0 l 76 1028 l 856 1028 l 856 790 l 374 790 l 374 643 l 783 643 l 783 406 l 374 406 l 374 238 m 216 1101 l 103 1321 l 333 1321 l 431 1101 l 216 1101 m 530 1101 l 417 1321 l 647 1321 l 745 1101 l 530 1101 z "},"Ë":{"ha":913,"x_min":76,"x_max":863,"o":"m 374 238 l 863 238 l 863 0 l 76 0 l 76 1028 l 856 1028 l 856 790 l 374 790 l 374 643 l 783 643 l 783 406 l 374 406 l 374 238 m 291 1090 q 177 1123 216 1090 q 139 1215 139 1155 q 177 1308 139 1276 q 291 1340 216 1340 q 404 1308 366 1340 q 442 1215 442 1276 q 404 1123 442 1155 q 291 1090 366 1090 m 670 1090 q 557 1123 595 1090 q 519 1215 519 1155 q 557 1308 519 1276 q 670 1340 595 1340 q 784 1308 745 1340 q 822 1215 822 1276 q 784 1123 822 1155 q 670 1090 745 1090 z "},"Ė":{"ha":913,"x_min":76,"x_max":863,"o":"m 374 238 l 863 238 l 863 0 l 76 0 l 76 1028 l 856 1028 l 856 790 l 374 790 l 374 643 l 783 643 l 783 406 l 374 406 l 374 238 m 481 1090 q 349 1123 394 1090 q 305 1215 305 1155 q 349 1308 305 1276 q 481 1340 394 1340 q 612 1308 567 1340 q 656 1215 656 1276 q 612 1123 656 1155 q 481 1090 567 1090 z "},"Ẹ":{"ha":913,"x_min":76,"x_max":863,"o":"m 374 238 l 863 238 l 863 0 l 76 0 l 76 1028 l 856 1028 l 856 790 l 374 790 l 374 643 l 783 643 l 783 406 l 374 406 l 374 238 m 481 -322 q 349 -290 394 -322 q 305 -197 305 -258 q 349 -105 305 -137 q 481 -72 394 -72 q 612 -105 567 -72 q 656 -197 656 -137 q 612 -290 656 -258 q 481 -322 567 -322 z "},"È":{"ha":913,"x_min":76,"x_max":863,"o":"m 374 238 l 863 238 l 863 0 l 76 0 l 76 1028 l 856 1028 l 856 790 l 374 790 l 374 643 l 783 643 l 783 406 l 374 406 l 374 238 m 348 1101 l 177 1321 l 486 1321 l 613 1101 l 348 1101 z "},"Ẻ":{"ha":913,"x_min":76,"x_max":863,"o":"m 374 238 l 863 238 l 863 0 l 76 0 l 76 1028 l 856 1028 l 856 790 l 374 790 l 374 643 l 783 643 l 783 406 l 374 406 l 374 238 m 410 1101 q 424 1140 412 1124 q 450 1166 435 1156 q 490 1187 465 1175 q 517 1202 509 1196 q 526 1215 526 1208 q 508 1232 526 1226 q 453 1237 490 1237 q 320 1223 387 1237 l 320 1325 q 394 1336 350 1332 q 476 1340 439 1340 q 627 1315 578 1340 q 675 1238 675 1290 q 657 1190 675 1208 q 603 1152 638 1172 q 566 1126 578 1137 q 551 1101 553 1116 l 410 1101 z "},"Ȇ":{"ha":913,"x_min":76,"x_max":863,"o":"m 374 238 l 863 238 l 863 0 l 76 0 l 76 1028 l 856 1028 l 856 790 l 374 790 l 374 643 l 783 643 l 783 406 l 374 406 l 374 238 m 185 1101 q 273 1263 199 1204 q 481 1321 348 1321 q 688 1263 613 1321 q 776 1101 763 1204 l 600 1101 q 563 1163 592 1142 q 481 1184 533 1184 q 399 1163 428 1184 q 361 1101 369 1142 l 185 1101 z "},"Ē":{"ha":913,"x_min":76,"x_max":863,"o":"m 374 238 l 863 238 l 863 0 l 76 0 l 76 1028 l 856 1028 l 856 790 l 374 790 l 374 643 l 783 643 l 783 406 l 374 406 l 374 238 m 196 1126 l 196 1298 l 765 1298 l 765 1126 l 196 1126 z "},"Ḗ":{"ha":913,"x_min":76,"x_max":863,"o":"m 374 238 l 863 238 l 863 0 l 76 0 l 76 1028 l 856 1028 l 856 790 l 374 790 l 374 643 l 783 643 l 783 406 l 374 406 l 374 238 m 331 1379 l 458 1540 l 801 1540 l 631 1379 l 331 1379 m 196 1126 l 196 1298 l 765 1298 l 765 1126 l 196 1126 z "},"Ḕ":{"ha":913,"x_min":76,"x_max":863,"o":"m 374 238 l 863 238 l 863 0 l 76 0 l 76 1028 l 856 1028 l 856 790 l 374 790 l 374 643 l 783 643 l 783 406 l 374 406 l 374 238 m 331 1379 l 160 1540 l 503 1540 l 631 1379 l 331 1379 m 196 1126 l 196 1298 l 765 1298 l 765 1126 l 196 1126 z "},"Ę":{"ha":913,"x_min":76,"x_max":863,"o":"m 800 0 q 667 -67 704 -32 q 629 -143 629 -101 q 725 -208 629 -208 q 816 -191 766 -208 l 816 -299 q 681 -319 752 -319 q 519 -278 573 -319 q 465 -164 465 -237 q 491 -74 465 -115 q 576 0 517 -33 l 76 0 l 76 1028 l 856 1028 l 856 790 l 374 790 l 374 643 l 783 643 l 783 406 l 374 406 l 374 238 l 863 238 l 863 0 l 800 0 z "},"Ẽ":{"ha":913,"x_min":76,"x_max":863,"o":"m 374 238 l 863 238 l 863 0 l 76 0 l 76 1028 l 856 1028 l 856 790 l 374 790 l 374 643 l 783 643 l 783 406 l 374 406 l 374 238 m 608 1101 q 541 1109 572 1101 q 468 1129 509 1116 q 402 1148 428 1142 q 347 1154 376 1154 q 268 1143 302 1154 q 196 1106 233 1131 l 196 1267 q 265 1308 228 1295 q 353 1321 301 1321 q 419 1314 388 1321 q 493 1292 450 1306 q 558 1273 532 1279 q 614 1267 585 1267 q 693 1278 659 1267 q 765 1315 728 1290 l 765 1153 q 697 1114 734 1126 q 608 1101 660 1101 z "},"F":{"ha":884,"x_min":76,"x_max":856,"o":"m 856 785 l 378 785 l 378 612 l 783 612 l 783 369 l 378 369 l 378 0 l 76 0 l 76 1028 l 856 1028 l 856 785 z "},"G":{"ha":1027,"x_min":48,"x_max":951,"o":"m 951 500 l 951 10 q 676 -14 800 -14 q 204 117 360 -14 q 48 511 48 247 q 209 906 48 769 q 685 1042 370 1042 q 917 1018 810 1042 l 917 773 q 713 794 811 794 q 509 764 585 794 q 398 672 433 734 q 363 506 363 609 q 433 299 363 366 q 651 231 504 231 l 671 231 l 671 500 l 951 500 z "},"Ǵ":{"ha":1027,"x_min":48,"x_max":951,"o":"m 951 500 l 951 10 q 676 -14 800 -14 q 204 117 360 -14 q 48 511 48 247 q 209 906 48 769 q 685 1042 370 1042 q 917 1018 810 1042 l 917 773 q 713 794 811 794 q 509 764 585 794 q 398 672 433 734 q 363 506 363 609 q 433 299 363 366 q 651 231 504 231 l 671 231 l 671 500 l 951 500 m 453 1101 l 580 1321 l 889 1321 l 718 1101 l 453 1101 z "},"Ğ":{"ha":1027,"x_min":48,"x_max":951,"o":"m 951 500 l 951 10 q 676 -14 800 -14 q 204 117 360 -14 q 48 511 48 247 q 209 906 48 769 q 685 1042 370 1042 q 917 1018 810 1042 l 917 773 q 713 794 811 794 q 509 764 585 794 q 398 672 433 734 q 363 506 363 609 q 433 299 363 366 q 651 231 504 231 l 671 231 l 671 500 l 951 500 m 587 1101 q 380 1160 454 1101 q 292 1321 305 1218 l 467 1321 q 505 1259 476 1280 q 587 1238 534 1238 q 669 1259 640 1238 q 706 1321 698 1280 l 882 1321 q 794 1160 869 1218 q 587 1101 719 1101 z "},"Ǧ":{"ha":1027,"x_min":48,"x_max":951,"o":"m 951 500 l 951 10 q 676 -14 800 -14 q 204 117 360 -14 q 48 511 48 247 q 209 906 48 769 q 685 1042 370 1042 q 917 1018 810 1042 l 917 773 q 713 794 811 794 q 509 764 585 794 q 398 672 433 734 q 363 506 363 609 q 433 299 363 366 q 651 231 504 231 l 671 231 l 671 500 l 951 500 m 676 1321 l 892 1321 l 710 1101 l 464 1101 l 281 1321 l 497 1321 l 587 1206 l 676 1321 z "},"Ĝ":{"ha":1027,"x_min":48,"x_max":951,"o":"m 951 500 l 951 10 q 676 -14 800 -14 q 204 117 360 -14 q 48 511 48 247 q 209 906 48 769 q 685 1042 370 1042 q 917 1018 810 1042 l 917 773 q 713 794 811 794 q 509 764 585 794 q 398 672 433 734 q 363 506 363 609 q 433 299 363 366 q 651 231 504 231 l 671 231 l 671 500 l 951 500 m 892 1101 l 676 1101 l 587 1217 l 497 1101 l 281 1101 l 464 1321 l 710 1321 l 892 1101 z "},"Ģ":{"ha":1027,"x_min":48,"x_max":951,"o":"m 951 500 l 951 10 q 676 -14 800 -14 q 204 117 360 -14 q 48 511 48 247 q 209 906 48 769 q 685 1042 370 1042 q 917 1018 810 1042 l 917 773 q 713 794 811 794 q 509 764 585 794 q 398 672 433 734 q 363 506 363 609 q 433 299 363 366 q 651 231 504 231 l 671 231 l 671 500 l 951 500 m 587 -72 q 745 -194 745 -72 q 727 -282 745 -236 q 681 -360 709 -328 l 499 -360 q 528 -302 518 -326 q 543 -256 538 -278 q 428 -165 428 -244 q 587 -72 428 -72 z "},"Ġ":{"ha":1027,"x_min":48,"x_max":951,"o":"m 951 500 l 951 10 q 676 -14 800 -14 q 204 117 360 -14 q 48 511 48 247 q 209 906 48 769 q 685 1042 370 1042 q 917 1018 810 1042 l 917 773 q 713 794 811 794 q 509 764 585 794 q 398 672 433 734 q 363 506 363 609 q 433 299 363 366 q 651 231 504 231 l 671 231 l 671 500 l 951 500 m 587 1090 q 456 1123 500 1090 q 411 1215 411 1155 q 456 1308 411 1276 q 587 1340 500 1340 q 718 1308 674 1340 q 763 1215 763 1276 q 718 1123 763 1155 q 587 1090 674 1090 z "},"Ḡ":{"ha":1027,"x_min":48,"x_max":951,"o":"m 951 500 l 951 10 q 676 -14 800 -14 q 204 117 360 -14 q 48 511 48 247 q 209 906 48 769 q 685 1042 370 1042 q 917 1018 810 1042 l 917 773 q 713 794 811 794 q 509 764 585 794 q 398 672 433 734 q 363 506 363 609 q 433 299 363 366 q 651 231 504 231 l 671 231 l 671 500 l 951 500 m 302 1126 l 302 1298 l 872 1298 l 872 1126 l 302 1126 z "},"H":{"ha":1098,"x_min":76,"x_max":1022,"o":"m 76 0 l 76 1028 l 378 1028 l 378 656 l 720 656 l 720 1028 l 1022 1028 l 1022 0 l 720 0 l 720 392 l 378 392 l 378 0 l 76 0 z "},"Ħ":{"ha":1098,"x_min":3,"x_max":1095,"o":"m 1095 932 l 1095 751 l 1022 751 l 1022 0 l 720 0 l 720 392 l 378 392 l 378 0 l 76 0 l 76 751 l 3 751 l 3 932 l 76 932 l 76 1028 l 378 1028 l 378 932 l 720 932 l 720 1028 l 1022 1028 l 1022 932 l 1095 932 m 720 656 l 720 751 l 378 751 l 378 656 l 720 656 z "},"Ḫ":{"ha":1098,"x_min":76,"x_max":1022,"o":"m 76 0 l 76 1028 l 378 1028 l 378 656 l 720 656 l 720 1028 l 1022 1028 l 1022 0 l 720 0 l 720 392 l 378 392 l 378 0 l 76 0 m 549 -313 q 342 -255 417 -313 q 254 -94 267 -197 l 430 -94 q 467 -156 438 -135 q 549 -176 497 -176 q 631 -156 602 -176 q 669 -94 660 -135 l 844 -94 q 757 -255 831 -197 q 549 -313 682 -313 z "},"Ĥ":{"ha":1098,"x_min":76,"x_max":1022,"o":"m 76 0 l 76 1028 l 378 1028 l 378 656 l 720 656 l 720 1028 l 1022 1028 l 1022 0 l 720 0 l 720 392 l 378 392 l 378 0 l 76 0 m 855 1101 l 639 1101 l 549 1217 l 460 1101 l 244 1101 l 426 1321 l 672 1321 l 855 1101 z "},"Ḥ":{"ha":1098,"x_min":76,"x_max":1022,"o":"m 76 0 l 76 1028 l 378 1028 l 378 656 l 720 656 l 720 1028 l 1022 1028 l 1022 0 l 720 0 l 720 392 l 378 392 l 378 0 l 76 0 m 549 -322 q 418 -290 463 -322 q 374 -197 374 -258 q 418 -105 374 -137 q 549 -72 463 -72 q 681 -105 636 -72 q 725 -197 725 -137 q 681 -290 725 -258 q 549 -322 636 -322 z "},"I":{"ha":453,"x_min":76,"x_max":378,"o":"m 76 0 l 76 1028 l 378 1028 l 378 0 l 76 0 z "},"Í":{"ha":453,"x_min":76,"x_max":528,"o":"m 76 0 l 76 1028 l 378 1028 l 378 0 l 76 0 m 92 1101 l 219 1321 l 528 1321 l 358 1101 l 92 1101 z "},"Ĭ":{"ha":453,"x_min":-69,"x_max":522,"o":"m 76 0 l 76 1028 l 378 1028 l 378 0 l 76 0 m 226 1101 q 19 1160 94 1101 q -69 1321 -56 1218 l 107 1321 q 144 1259 115 1280 q 226 1238 174 1238 q 308 1259 279 1238 q 346 1321 338 1280 l 522 1321 q 434 1160 508 1218 q 226 1101 359 1101 z "},"Î":{"ha":453,"x_min":-79,"x_max":532,"o":"m 76 0 l 76 1028 l 378 1028 l 378 0 l 76 0 m 532 1101 l 316 1101 l 226 1217 l 137 1101 l -79 1101 l 103 1321 l 349 1321 l 532 1101 z "},"Ȉ":{"ha":453,"x_min":-151,"x_max":491,"o":"m 76 0 l 76 1028 l 378 1028 l 378 0 l 76 0 m -38 1101 l -151 1321 l 78 1321 l 177 1101 l -38 1101 m 276 1101 l 163 1321 l 392 1321 l 491 1101 l 276 1101 z "},"Ï":{"ha":453,"x_min":-115,"x_max":568,"o":"m 76 0 l 76 1028 l 378 1028 l 378 0 l 76 0 m 37 1090 q -77 1123 -38 1090 q -115 1215 -115 1155 q -77 1308 -115 1276 q 37 1340 -38 1340 q 150 1308 112 1340 q 188 1215 188 1276 q 150 1123 188 1155 q 37 1090 112 1090 m 416 1090 q 303 1123 341 1090 q 265 1215 265 1155 q 303 1308 265 1276 q 416 1340 341 1340 q 530 1308 491 1340 q 568 1215 568 1276 q 530 1123 568 1155 q 416 1090 491 1090 z "},"Ḯ":{"ha":453,"x_min":-115,"x_max":568,"o":"m 76 0 l 76 1028 l 378 1028 l 378 0 l 76 0 m 76 1379 l 203 1540 l 547 1540 l 376 1379 l 76 1379 m 37 1090 q -77 1123 -38 1090 q -115 1215 -115 1155 q -77 1308 -115 1276 q 37 1340 -38 1340 q 150 1308 112 1340 q 188 1215 188 1276 q 150 1123 188 1155 q 37 1090 112 1090 m 416 1090 q 303 1123 341 1090 q 265 1215 265 1155 q 303 1308 265 1276 q 416 1340 341 1340 q 530 1308 491 1340 q 568 1215 568 1276 q 530 1123 568 1155 q 416 1090 491 1090 z "},"İ":{"ha":453,"x_min":51,"x_max":402,"o":"m 76 0 l 76 1028 l 378 1028 l 378 0 l 76 0 m 226 1090 q 95 1123 140 1090 q 51 1215 51 1155 q 95 1308 51 1276 q 226 1340 140 1340 q 358 1308 313 1340 q 402 1215 402 1276 q 358 1123 402 1155 q 226 1090 313 1090 z "},"Ị":{"ha":453,"x_min":50,"x_max":401,"o":"m 76 0 l 76 1028 l 378 1028 l 378 0 l 76 0 m 226 -322 q 94 -290 139 -322 q 50 -197 50 -258 q 94 -105 50 -137 q 226 -72 139 -72 q 357 -105 313 -72 q 401 -197 401 -137 q 357 -290 401 -258 q 226 -322 313 -322 z "},"Ì":{"ha":453,"x_min":-77,"x_max":378,"o":"m 76 0 l 76 1028 l 378 1028 l 378 0 l 76 0 m 94 1101 l -77 1321 l 232 1321 l 359 1101 l 94 1101 z "},"Ỉ":{"ha":453,"x_min":66,"x_max":421,"o":"m 76 0 l 76 1028 l 378 1028 l 378 0 l 76 0 m 156 1101 q 169 1140 158 1124 q 196 1166 181 1156 q 235 1187 211 1175 q 263 1202 255 1196 q 272 1215 272 1208 q 253 1232 272 1226 q 199 1237 235 1237 q 66 1223 133 1237 l 66 1325 q 140 1336 96 1332 q 222 1340 185 1340 q 373 1315 324 1340 q 421 1238 421 1290 q 402 1190 421 1208 q 349 1152 384 1172 q 311 1126 324 1137 q 297 1101 299 1116 l 156 1101 z "},"Ȋ":{"ha":453,"x_min":-69,"x_max":522,"o":"m 76 0 l 76 1028 l 378 1028 l 378 0 l 76 0 m -69 1101 q 19 1263 -56 1204 q 226 1321 94 1321 q 434 1263 359 1321 q 522 1101 508 1204 l 346 1101 q 308 1163 338 1142 q 226 1184 279 1184 q 144 1163 174 1184 q 107 1101 115 1142 l -69 1101 z "},"Ī":{"ha":453,"x_min":-58,"x_max":511,"o":"m 76 0 l 76 1028 l 378 1028 l 378 0 l 76 0 m -58 1126 l -58 1298 l 511 1298 l 511 1126 l -58 1126 z "},"Į":{"ha":453,"x_min":42,"x_max":394,"o":"m 303 -208 q 394 -191 344 -208 l 394 -299 q 259 -319 330 -319 q 97 -278 151 -319 q 42 -164 42 -237 q 69 -74 42 -115 q 154 0 95 -33 l 76 0 l 76 1028 l 378 1028 l 378 0 q 244 -67 282 -32 q 207 -143 207 -101 q 303 -208 207 -208 z "},"Ĩ":{"ha":453,"x_min":-58,"x_max":511,"o":"m 76 0 l 76 1028 l 378 1028 l 378 0 l 76 0 m 354 1101 q 286 1109 318 1101 q 214 1129 255 1116 q 148 1148 174 1142 q 93 1154 122 1154 q 14 1143 48 1154 q -58 1106 -21 1131 l -58 1267 q 10 1308 -26 1295 q 99 1321 47 1321 q 165 1314 134 1321 q 239 1292 196 1306 q 304 1273 278 1279 q 360 1267 331 1267 q 439 1278 405 1267 q 511 1315 474 1290 l 511 1153 q 443 1114 480 1126 q 354 1101 406 1101 z "},"J":{"ha":453,"x_min":-22,"x_max":378,"o":"m -22 -119 q 56 28 34 -46 q 77 211 77 101 l 77 1028 l 378 1028 l 378 222 q 330 -25 378 87 q 169 -246 283 -136 l -22 -119 z "},"Ĵ":{"ha":453,"x_min":-78,"x_max":533,"o":"m -22 -119 q 56 28 34 -46 q 77 211 77 101 l 77 1028 l 378 1028 l 378 222 q 330 -25 378 87 q 169 -246 283 -136 l -22 -119 m 533 1101 l 317 1101 l 227 1217 l 138 1101 l -78 1101 l 104 1321 l 350 1321 l 533 1101 z "},"K":{"ha":967,"x_min":76,"x_max":1010,"o":"m 685 0 l 438 392 l 378 392 l 378 0 l 76 0 l 76 1028 l 378 1028 l 378 656 l 438 656 l 665 1028 l 980 1028 l 676 532 l 1010 0 l 685 0 z "},"Ķ":{"ha":967,"x_min":76,"x_max":1010,"o":"m 685 0 l 438 392 l 378 392 l 378 0 l 76 0 l 76 1028 l 378 1028 l 378 656 l 438 656 l 665 1028 l 980 1028 l 676 532 l 1010 0 l 685 0 m 508 -72 q 666 -194 666 -72 q 648 -282 666 -236 q 602 -360 630 -328 l 420 -360 q 449 -302 439 -326 q 464 -256 459 -278 q 349 -165 349 -244 q 508 -72 349 -72 z "},"L":{"ha":833,"x_min":76,"x_max":828,"o":"m 76 0 l 76 1028 l 378 1028 l 378 249 l 828 249 l 828 0 l 76 0 z "},"Ǉ":{"ha":1287,"x_min":76,"x_max":1211,"o":"m 76 0 l 76 1028 l 378 1028 l 378 249 l 828 249 l 828 0 l 76 0 m 812 -119 q 889 28 867 -46 q 910 211 910 101 l 910 1028 l 1211 1028 l 1211 222 q 1164 -25 1211 87 q 1003 -246 1116 -136 l 812 -119 z "},"Ĺ":{"ha":833,"x_min":76,"x_max":828,"o":"m 76 0 l 76 1028 l 378 1028 l 378 249 l 828 249 l 828 0 l 76 0 m 95 1101 l 222 1321 l 531 1321 l 360 1101 l 95 1101 z "},"Ľ":{"ha":833,"x_min":76,"x_max":828,"o":"m 76 0 l 76 1028 l 378 1028 l 378 249 l 828 249 l 828 0 l 76 0 m 531 792 q 548 944 543 872 q 553 1122 553 1016 l 745 1122 q 688 792 745 921 l 531 792 z "},"Ļ":{"ha":833,"x_min":76,"x_max":828,"o":"m 76 0 l 76 1028 l 378 1028 l 378 249 l 828 249 l 828 0 l 76 0 m 451 -72 q 610 -194 610 -72 q 592 -282 610 -236 q 546 -360 574 -328 l 364 -360 q 393 -302 383 -326 q 408 -256 403 -278 q 293 -165 293 -244 q 451 -72 293 -72 z "},"Ŀ":{"ha":833,"x_min":76,"x_max":828,"o":"m 76 0 l 76 1028 l 378 1028 l 378 249 l 828 249 l 828 0 l 76 0 m 638 488 q 461 633 461 488 q 638 780 461 780 q 815 633 815 780 q 638 488 815 488 z "},"Ḷ":{"ha":833,"x_min":76,"x_max":828,"o":"m 76 0 l 76 1028 l 378 1028 l 378 249 l 828 249 l 828 0 l 76 0 m 451 -322 q 320 -290 365 -322 q 276 -197 276 -258 q 320 -105 276 -137 q 451 -72 365 -72 q 583 -105 538 -72 q 627 -197 627 -137 q 583 -290 627 -258 q 451 -322 538 -322 z "},"ǈ":{"ha":1265,"x_min":76,"x_max":1222,"o":"m 76 0 l 76 1028 l 378 1028 l 378 249 l 828 249 l 828 0 l 76 0 m 802 -206 q 879 -58 858 -132 q 901 125 901 15 l 901 764 l 1197 764 l 1197 136 q 1150 -109 1197 1 q 992 -331 1103 -220 l 802 -206 m 1045 839 q 868 985 868 839 q 1045 1131 868 1131 q 1222 985 1222 1131 q 1045 839 1222 839 z "},"Ḻ":{"ha":833,"x_min":76,"x_max":828,"o":"m 76 0 l 76 1028 l 378 1028 l 378 249 l 828 249 l 828 0 l 76 0 m 167 -276 l 167 -103 l 736 -103 l 736 -276 l 167 -276 z "},"Ł":{"ha":847,"x_min":-36,"x_max":841,"o":"m 391 249 l 841 249 l 841 0 l 89 0 l 89 415 l 47 395 l -36 565 l 89 624 l 89 1028 l 391 1028 l 391 769 l 573 856 l 657 687 l 391 560 l 391 249 z "},"M":{"ha":1359,"x_min":78,"x_max":1281,"o":"m 911 1028 l 1281 1028 l 1281 0 l 999 0 l 999 635 l 801 153 l 558 153 l 360 611 l 360 0 l 78 0 l 78 1028 l 448 1028 l 684 464 l 911 1028 z "},"Ṃ":{"ha":1359,"x_min":78,"x_max":1281,"o":"m 911 1028 l 1281 1028 l 1281 0 l 999 0 l 999 635 l 801 153 l 558 153 l 360 611 l 360 0 l 78 0 l 78 1028 l 448 1028 l 684 464 l 911 1028 m 699 -322 q 568 -290 613 -322 q 524 -197 524 -258 q 568 -105 524 -137 q 699 -72 613 -72 q 831 -105 786 -72 q 875 -197 875 -137 q 831 -290 875 -258 q 699 -322 786 -322 z "},"N":{"ha":1106,"x_min":76,"x_max":1031,"o":"m 747 1028 l 1031 1028 l 1031 0 l 729 0 l 359 575 l 359 0 l 76 0 l 76 1028 l 377 1028 l 747 453 l 747 1028 z "},"Ǌ":{"ha":1560,"x_min":76,"x_max":1484,"o":"m 747 1028 l 1031 1028 l 1031 0 l 729 0 l 359 575 l 359 0 l 76 0 l 76 1028 l 377 1028 l 747 453 l 747 1028 m 1085 -119 q 1162 28 1140 -46 q 1183 211 1183 101 l 1183 1028 l 1484 1028 l 1484 222 q 1436 -25 1484 87 q 1276 -246 1389 -136 l 1085 -119 z "},"Ń":{"ha":1106,"x_min":76,"x_max":1031,"o":"m 747 1028 l 1031 1028 l 1031 0 l 729 0 l 359 575 l 359 0 l 76 0 l 76 1028 l 377 1028 l 747 453 l 747 1028 m 419 1101 l 546 1321 l 855 1321 l 684 1101 l 419 1101 z "},"Ň":{"ha":1106,"x_min":76,"x_max":1031,"o":"m 747 1028 l 1031 1028 l 1031 0 l 729 0 l 359 575 l 359 0 l 76 0 l 76 1028 l 377 1028 l 747 453 l 747 1028 m 642 1321 l 858 1321 l 676 1101 l 430 1101 l 247 1321 l 463 1321 l 553 1206 l 642 1321 z "},"Ņ":{"ha":1106,"x_min":76,"x_max":1031,"o":"m 747 1028 l 1031 1028 l 1031 0 l 729 0 l 359 575 l 359 0 l 76 0 l 76 1028 l 377 1028 l 747 453 l 747 1028 m 553 -72 q 711 -194 711 -72 q 693 -282 711 -236 q 647 -360 675 -328 l 465 -360 q 494 -302 484 -326 q 509 -256 504 -278 q 394 -165 394 -244 q 553 -72 394 -72 z "},"Ṅ":{"ha":1106,"x_min":76,"x_max":1031,"o":"m 747 1028 l 1031 1028 l 1031 0 l 729 0 l 359 575 l 359 0 l 76 0 l 76 1028 l 377 1028 l 747 453 l 747 1028 m 553 1090 q 422 1123 466 1090 q 377 1215 377 1155 q 422 1308 377 1276 q 553 1340 466 1340 q 684 1308 640 1340 q 728 1215 728 1276 q 684 1123 728 1155 q 553 1090 640 1090 z "},"Ṇ":{"ha":1106,"x_min":76,"x_max":1031,"o":"m 747 1028 l 1031 1028 l 1031 0 l 729 0 l 359 575 l 359 0 l 76 0 l 76 1028 l 377 1028 l 747 453 l 747 1028 m 553 -322 q 422 -290 466 -322 q 377 -197 377 -258 q 422 -105 377 -137 q 553 -72 466 -72 q 684 -105 640 -72 q 728 -197 728 -137 q 684 -290 728 -258 q 553 -322 640 -322 z "},"Ŋ":{"ha":1106,"x_min":76,"x_max":1031,"o":"m 1031 1028 l 1031 164 q 1011 -23 1031 60 q 946 -181 991 -106 q 824 -331 901 -256 l 635 -206 q 699 -109 675 -156 q 735 -9 723 -62 l 359 575 l 359 0 l 76 0 l 76 1028 l 377 1028 l 747 457 l 747 1028 l 1031 1028 z "},"ǋ":{"ha":1538,"x_min":76,"x_max":1495,"o":"m 747 1028 l 1031 1028 l 1031 0 l 729 0 l 359 575 l 359 0 l 76 0 l 76 1028 l 377 1028 l 747 453 l 747 1028 m 1075 -206 q 1152 -58 1131 -132 q 1174 125 1174 15 l 1174 764 l 1470 764 l 1470 136 q 1423 -109 1470 1 q 1265 -331 1376 -220 l 1075 -206 m 1318 839 q 1141 985 1141 839 q 1318 1131 1141 1131 q 1495 985 1495 1131 q 1318 839 1495 839 z "},"Ṉ":{"ha":1106,"x_min":76,"x_max":1031,"o":"m 747 1028 l 1031 1028 l 1031 0 l 729 0 l 359 575 l 359 0 l 76 0 l 76 1028 l 377 1028 l 747 453 l 747 1028 m 268 -276 l 268 -103 l 838 -103 l 838 -276 l 268 -276 z "},"Ñ":{"ha":1106,"x_min":76,"x_max":1031,"o":"m 747 1028 l 1031 1028 l 1031 0 l 729 0 l 359 575 l 359 0 l 76 0 l 76 1028 l 377 1028 l 747 453 l 747 1028 m 681 1101 q 613 1109 644 1101 q 540 1129 581 1116 q 474 1148 500 1142 q 419 1154 448 1154 q 340 1143 374 1154 q 268 1106 306 1131 l 268 1267 q 337 1308 300 1295 q 425 1321 374 1321 q 491 1314 460 1321 q 565 1292 522 1306 q 631 1273 604 1279 q 686 1267 657 1267 q 766 1278 731 1267 q 838 1315 800 1290 l 838 1153 q 769 1114 806 1126 q 681 1101 733 1101 z "},"O":{"ha":1142,"x_min":48,"x_max":1094,"o":"m 571 -14 q 293 46 410 -14 q 112 224 176 106 q 48 514 48 342 q 112 804 48 685 q 293 982 176 922 q 571 1042 410 1042 q 849 982 731 1042 q 1031 803 967 922 q 1094 514 1094 685 q 1031 225 1094 343 q 849 46 967 106 q 571 -14 731 -14 m 571 227 q 731 296 677 227 q 785 508 785 365 q 731 730 785 660 q 571 801 676 801 q 411 732 466 801 q 357 519 357 664 q 411 297 357 367 q 571 227 465 227 z "},"Ó":{"ha":1142,"x_min":48,"x_max":1094,"o":"m 571 -14 q 293 46 410 -14 q 112 224 176 106 q 48 514 48 342 q 112 804 48 685 q 293 982 176 922 q 571 1042 410 1042 q 849 982 731 1042 q 1031 803 967 922 q 1094 514 1094 685 q 1031 225 1094 343 q 849 46 967 106 q 571 -14 731 -14 m 571 227 q 731 296 677 227 q 785 508 785 365 q 731 730 785 660 q 571 801 676 801 q 411 732 466 801 q 357 519 357 664 q 411 297 357 367 q 571 227 465 227 m 437 1101 l 564 1321 l 873 1321 l 702 1101 l 437 1101 z "},"Ŏ":{"ha":1142,"x_min":48,"x_max":1094,"o":"m 571 -14 q 293 46 410 -14 q 112 224 176 106 q 48 514 48 342 q 112 804 48 685 q 293 982 176 922 q 571 1042 410 1042 q 849 982 731 1042 q 1031 803 967 922 q 1094 514 1094 685 q 1031 225 1094 343 q 849 46 967 106 q 571 -14 731 -14 m 571 227 q 731 296 677 227 q 785 508 785 365 q 731 730 785 660 q 571 801 676 801 q 411 732 466 801 q 357 519 357 664 q 411 297 357 367 q 571 227 465 227 m 571 1101 q 364 1160 438 1101 q 276 1321 289 1218 l 451 1321 q 489 1259 460 1280 q 571 1238 518 1238 q 653 1259 624 1238 q 690 1321 682 1280 l 866 1321 q 778 1160 853 1218 q 571 1101 703 1101 z "},"Ô":{"ha":1142,"x_min":48,"x_max":1094,"o":"m 571 -14 q 293 46 410 -14 q 112 224 176 106 q 48 514 48 342 q 112 804 48 685 q 293 982 176 922 q 571 1042 410 1042 q 849 982 731 1042 q 1031 803 967 922 q 1094 514 1094 685 q 1031 225 1094 343 q 849 46 967 106 q 571 -14 731 -14 m 571 227 q 731 296 677 227 q 785 508 785 365 q 731 730 785 660 q 571 801 676 801 q 411 732 466 801 q 357 519 357 664 q 411 297 357 367 q 571 227 465 227 m 876 1101 l 660 1101 l 571 1217 l 481 1101 l 265 1101 l 448 1321 l 694 1321 l 876 1101 z "},"Ố":{"ha":1142,"x_min":48,"x_max":1094,"o":"m 571 -14 q 293 46 410 -14 q 112 224 176 106 q 48 514 48 342 q 112 804 48 685 q 293 982 176 922 q 571 1042 410 1042 q 849 982 731 1042 q 1031 803 967 922 q 1094 514 1094 685 q 1031 225 1094 343 q 849 46 967 106 q 571 -14 731 -14 m 571 227 q 731 296 677 227 q 785 508 785 365 q 731 730 785 660 q 571 801 676 801 q 411 732 466 801 q 357 519 357 664 q 411 297 357 367 q 571 227 465 227 m 822 1433 l 1014 1433 l 909 1269 l 756 1269 l 822 1433 m 448 1290 l 694 1290 l 876 1101 l 660 1101 l 571 1201 l 481 1101 l 265 1101 l 448 1290 z "},"Ộ":{"ha":1142,"x_min":48,"x_max":1094,"o":"m 571 -14 q 293 46 410 -14 q 112 224 176 106 q 48 514 48 342 q 112 804 48 685 q 293 982 176 922 q 571 1042 410 1042 q 849 982 731 1042 q 1031 803 967 922 q 1094 514 1094 685 q 1031 225 1094 343 q 849 46 967 106 q 571 -14 731 -14 m 571 227 q 731 296 677 227 q 785 508 785 365 q 731 730 785 660 q 571 801 676 801 q 411 732 466 801 q 357 519 357 664 q 411 297 357 367 q 571 227 465 227 m 571 -322 q 440 -290 484 -322 q 395 -197 395 -258 q 440 -105 395 -137 q 571 -72 484 -72 q 702 -105 658 -72 q 747 -197 747 -137 q 702 -290 747 -258 q 571 -322 658 -322 m 876 1101 l 660 1101 l 571 1217 l 481 1101 l 265 1101 l 448 1321 l 694 1321 l 876 1101 z "},"Ồ":{"ha":1142,"x_min":48,"x_max":1094,"o":"m 571 -14 q 293 46 410 -14 q 112 224 176 106 q 48 514 48 342 q 112 804 48 685 q 293 982 176 922 q 571 1042 410 1042 q 849 982 731 1042 q 1031 803 967 922 q 1094 514 1094 685 q 1031 225 1094 343 q 849 46 967 106 q 571 -14 731 -14 m 571 227 q 731 296 677 227 q 785 508 785 365 q 731 730 785 660 q 571 801 676 801 q 411 732 466 801 q 357 519 357 664 q 411 297 357 367 q 571 227 465 227 m 937 1269 l 783 1269 l 678 1433 l 870 1433 l 937 1269 m 448 1290 l 694 1290 l 876 1101 l 660 1101 l 571 1201 l 481 1101 l 265 1101 l 448 1290 z "},"Ổ":{"ha":1142,"x_min":48,"x_max":1094,"o":"m 571 -14 q 293 46 410 -14 q 112 224 176 106 q 48 514 48 342 q 112 804 48 685 q 293 982 176 922 q 571 1042 410 1042 q 849 982 731 1042 q 1031 803 967 922 q 1094 514 1094 685 q 1031 225 1094 343 q 849 46 967 106 q 571 -14 731 -14 m 571 227 q 731 296 677 227 q 785 508 785 365 q 731 730 785 660 q 571 801 676 801 q 411 732 466 801 q 357 519 357 664 q 411 297 357 367 q 571 227 465 227 m 821 1475 q 972 1453 924 1475 q 1020 1387 1020 1432 q 1002 1345 1020 1361 q 949 1313 983 1330 q 910 1291 923 1301 q 895 1269 897 1282 l 755 1269 q 777 1313 757 1297 q 833 1343 798 1328 q 861 1356 852 1351 q 870 1368 870 1361 q 797 1386 870 1386 q 665 1374 731 1386 l 665 1461 q 740 1471 695 1467 q 821 1475 785 1475 m 448 1290 l 694 1290 l 876 1101 l 660 1101 l 571 1201 l 481 1101 l 265 1101 l 448 1290 z "},"Ỗ":{"ha":1142,"x_min":48,"x_max":1094,"o":"m 571 -14 q 293 46 410 -14 q 112 224 176 106 q 48 514 48 342 q 112 804 48 685 q 293 982 176 922 q 571 1042 410 1042 q 849 982 731 1042 q 1031 803 967 922 q 1094 514 1094 685 q 1031 225 1094 343 q 849 46 967 106 q 571 -14 731 -14 m 571 227 q 731 296 677 227 q 785 508 785 365 q 731 730 785 660 q 571 801 676 801 q 411 732 466 801 q 357 519 357 664 q 411 297 357 367 q 571 227 465 227 m 703 1435 q 786 1445 748 1435 q 876 1481 824 1455 l 876 1363 q 793 1328 832 1336 q 700 1319 755 1319 q 634 1325 665 1319 q 554 1340 603 1330 q 492 1354 519 1349 q 439 1358 465 1358 q 356 1348 394 1358 q 265 1313 317 1338 l 265 1431 q 349 1466 310 1457 q 442 1475 388 1475 q 510 1469 478 1475 q 588 1453 542 1464 q 651 1440 625 1444 q 703 1435 676 1435 m 448 1290 l 694 1290 l 876 1101 l 660 1101 l 571 1201 l 481 1101 l 265 1101 l 448 1290 z "},"Ȍ":{"ha":1142,"x_min":48,"x_max":1094,"o":"m 571 -14 q 293 46 410 -14 q 112 224 176 106 q 48 514 48 342 q 112 804 48 685 q 293 982 176 922 q 571 1042 410 1042 q 849 982 731 1042 q 1031 803 967 922 q 1094 514 1094 685 q 1031 225 1094 343 q 849 46 967 106 q 571 -14 731 -14 m 571 227 q 731 296 677 227 q 785 508 785 365 q 731 730 785 660 q 571 801 676 801 q 411 732 466 801 q 357 519 357 664 q 411 297 357 367 q 571 227 465 227 m 306 1101 l 193 1321 l 423 1321 l 522 1101 l 306 1101 m 620 1101 l 508 1321 l 737 1321 l 835 1101 l 620 1101 z "},"Ö":{"ha":1142,"x_min":48,"x_max":1094,"o":"m 571 -14 q 293 46 410 -14 q 112 224 176 106 q 48 514 48 342 q 112 804 48 685 q 293 982 176 922 q 571 1042 410 1042 q 849 982 731 1042 q 1031 803 967 922 q 1094 514 1094 685 q 1031 225 1094 343 q 849 46 967 106 q 571 -14 731 -14 m 571 227 q 731 296 677 227 q 785 508 785 365 q 731 730 785 660 q 571 801 676 801 q 411 732 466 801 q 357 519 357 664 q 411 297 357 367 q 571 227 465 227 m 381 1090 q 268 1123 306 1090 q 229 1215 229 1155 q 268 1308 229 1276 q 381 1340 306 1340 q 494 1308 456 1340 q 533 1215 533 1276 q 494 1123 533 1155 q 381 1090 456 1090 m 760 1090 q 647 1123 685 1090 q 609 1215 609 1155 q 647 1308 609 1276 q 760 1340 685 1340 q 874 1308 835 1340 q 913 1215 913 1276 q 874 1123 913 1155 q 760 1090 835 1090 z "},"Ȫ":{"ha":1142,"x_min":48,"x_max":1094,"o":"m 571 -14 q 293 46 410 -14 q 112 224 176 106 q 48 514 48 342 q 112 804 48 685 q 293 982 176 922 q 571 1042 410 1042 q 849 982 731 1042 q 1031 803 967 922 q 1094 514 1094 685 q 1031 225 1094 343 q 849 46 967 106 q 571 -14 731 -14 m 571 227 q 731 296 677 227 q 785 508 785 365 q 731 730 785 660 q 571 801 676 801 q 411 732 466 801 q 357 519 357 664 q 411 297 357 367 q 571 227 465 227 m 381 1090 q 268 1123 306 1090 q 229 1215 229 1155 q 268 1308 229 1276 q 381 1340 306 1340 q 494 1308 456 1340 q 533 1215 533 1276 q 494 1123 533 1155 q 381 1090 456 1090 m 760 1090 q 647 1123 685 1090 q 609 1215 609 1155 q 647 1308 609 1276 q 760 1340 685 1340 q 874 1308 835 1340 q 913 1215 913 1276 q 874 1123 913 1155 q 760 1090 835 1090 m 286 1403 l 286 1576 l 856 1576 l 856 1403 l 286 1403 z "},"Ȱ":{"ha":1142,"x_min":48,"x_max":1094,"o":"m 571 -14 q 293 46 410 -14 q 112 224 176 106 q 48 514 48 342 q 112 804 48 685 q 293 982 176 922 q 571 1042 410 1042 q 849 982 731 1042 q 1031 803 967 922 q 1094 514 1094 685 q 1031 225 1094 343 q 849 46 967 106 q 571 -14 731 -14 m 571 227 q 731 296 677 227 q 785 508 785 365 q 731 730 785 660 q 571 801 676 801 q 411 732 466 801 q 357 519 357 664 q 411 297 357 367 q 571 227 465 227 m 571 1090 q 440 1123 484 1090 q 395 1215 395 1155 q 440 1308 395 1276 q 571 1340 484 1340 q 702 1308 658 1340 q 747 1215 747 1276 q 702 1123 747 1155 q 571 1090 658 1090 m 286 1403 l 286 1576 l 856 1576 l 856 1403 l 286 1403 z "},"Ọ":{"ha":1142,"x_min":48,"x_max":1094,"o":"m 571 -14 q 293 46 410 -14 q 112 224 176 106 q 48 514 48 342 q 112 804 48 685 q 293 982 176 922 q 571 1042 410 1042 q 849 982 731 1042 q 1031 803 967 922 q 1094 514 1094 685 q 1031 225 1094 343 q 849 46 967 106 q 571 -14 731 -14 m 571 227 q 731 296 677 227 q 785 508 785 365 q 731 730 785 660 q 571 801 676 801 q 411 732 466 801 q 357 519 357 664 q 411 297 357 367 q 571 227 465 227 m 571 -322 q 440 -290 484 -322 q 395 -197 395 -258 q 440 -105 395 -137 q 571 -72 484 -72 q 702 -105 658 -72 q 747 -197 747 -137 q 702 -290 747 -258 q 571 -322 658 -322 z "},"Ò":{"ha":1142,"x_min":48,"x_max":1094,"o":"m 571 -14 q 293 46 410 -14 q 112 224 176 106 q 48 514 48 342 q 112 804 48 685 q 293 982 176 922 q 571 1042 410 1042 q 849 982 731 1042 q 1031 803 967 922 q 1094 514 1094 685 q 1031 225 1094 343 q 849 46 967 106 q 571 -14 731 -14 m 571 227 q 731 296 677 227 q 785 508 785 365 q 731 730 785 660 q 571 801 676 801 q 411 732 466 801 q 357 519 357 664 q 411 297 357 367 q 571 227 465 227 m 438 1101 l 267 1321 l 576 1321 l 703 1101 l 438 1101 z "},"Ỏ":{"ha":1142,"x_min":48,"x_max":1094,"o":"m 571 -14 q 293 46 410 -14 q 112 224 176 106 q 48 514 48 342 q 112 804 48 685 q 293 982 176 922 q 571 1042 410 1042 q 849 982 731 1042 q 1031 803 967 922 q 1094 514 1094 685 q 1031 225 1094 343 q 849 46 967 106 q 571 -14 731 -14 m 571 227 q 731 296 677 227 q 785 508 785 365 q 731 730 785 660 q 571 801 676 801 q 411 732 466 801 q 357 519 357 664 q 411 297 357 367 q 571 227 465 227 m 501 1101 q 514 1140 502 1124 q 541 1166 526 1156 q 580 1187 556 1175 q 608 1202 599 1196 q 616 1215 616 1208 q 598 1232 616 1226 q 543 1237 580 1237 q 410 1223 477 1237 l 410 1325 q 485 1336 440 1332 q 567 1340 529 1340 q 717 1315 669 1340 q 765 1238 765 1290 q 747 1190 765 1208 q 694 1152 728 1172 q 656 1126 669 1137 q 641 1101 643 1116 l 501 1101 z "},"Ơ":{"ha":1142,"x_min":48,"x_max":1107,"o":"m 952 907 q 1058 741 1022 840 q 1094 514 1094 642 q 1031 224 1094 342 q 850 46 967 106 q 571 -14 732 -14 q 292 46 410 -14 q 111 224 175 106 q 48 514 48 342 q 112 804 48 685 q 293 982 176 922 q 571 1042 410 1042 q 645 1038 608 1042 q 689 1034 683 1035 q 783 1028 749 1028 q 879 1052 849 1028 q 910 1136 910 1076 q 900 1233 910 1181 l 1094 1233 q 1107 1124 1107 1186 q 1066 979 1107 1033 q 952 907 1026 925 m 571 227 q 731 296 677 227 q 785 508 785 365 q 731 730 785 660 q 571 801 676 801 q 411 732 466 801 q 357 519 357 664 q 411 297 357 367 q 571 227 465 227 z "},"Ớ":{"ha":1142,"x_min":48,"x_max":1107,"o":"m 952 907 q 1058 741 1022 840 q 1094 514 1094 642 q 1031 224 1094 342 q 850 46 967 106 q 571 -14 732 -14 q 292 46 410 -14 q 111 224 175 106 q 48 514 48 342 q 112 804 48 685 q 293 982 176 922 q 571 1042 410 1042 q 645 1038 608 1042 q 689 1034 683 1035 q 783 1028 749 1028 q 879 1052 849 1028 q 910 1136 910 1076 q 900 1233 910 1181 l 1094 1233 q 1107 1124 1107 1186 q 1066 979 1107 1033 q 952 907 1026 925 m 571 227 q 731 296 677 227 q 785 508 785 365 q 731 730 785 660 q 571 801 676 801 q 411 732 466 801 q 357 519 357 664 q 411 297 357 367 q 571 227 465 227 m 437 1101 l 564 1321 l 873 1321 l 702 1101 l 437 1101 z "},"Ợ":{"ha":1142,"x_min":48,"x_max":1107,"o":"m 952 907 q 1058 741 1022 840 q 1094 514 1094 642 q 1031 224 1094 342 q 850 46 967 106 q 571 -14 732 -14 q 292 46 410 -14 q 111 224 175 106 q 48 514 48 342 q 112 804 48 685 q 293 982 176 922 q 571 1042 410 1042 q 645 1038 608 1042 q 689 1034 683 1035 q 783 1028 749 1028 q 879 1052 849 1028 q 910 1136 910 1076 q 900 1233 910 1181 l 1094 1233 q 1107 1124 1107 1186 q 1066 979 1107 1033 q 952 907 1026 925 m 571 227 q 731 296 677 227 q 785 508 785 365 q 731 730 785 660 q 571 801 676 801 q 411 732 466 801 q 357 519 357 664 q 411 297 357 367 q 571 227 465 227 m 571 -322 q 440 -290 484 -322 q 395 -197 395 -258 q 440 -105 395 -137 q 571 -72 484 -72 q 702 -105 658 -72 q 747 -197 747 -137 q 702 -290 747 -258 q 571 -322 658 -322 z "},"Ờ":{"ha":1142,"x_min":48,"x_max":1107,"o":"m 952 907 q 1058 741 1022 840 q 1094 514 1094 642 q 1031 224 1094 342 q 850 46 967 106 q 571 -14 732 -14 q 292 46 410 -14 q 111 224 175 106 q 48 514 48 342 q 112 804 48 685 q 293 982 176 922 q 571 1042 410 1042 q 645 1038 608 1042 q 689 1034 683 1035 q 783 1028 749 1028 q 879 1052 849 1028 q 910 1136 910 1076 q 900 1233 910 1181 l 1094 1233 q 1107 1124 1107 1186 q 1066 979 1107 1033 q 952 907 1026 925 m 571 227 q 731 296 677 227 q 785 508 785 365 q 731 730 785 660 q 571 801 676 801 q 411 732 466 801 q 357 519 357 664 q 411 297 357 367 q 571 227 465 227 m 438 1101 l 267 1321 l 576 1321 l 703 1101 l 438 1101 z "},"Ở":{"ha":1142,"x_min":48,"x_max":1107,"o":"m 952 907 q 1058 741 1022 840 q 1094 514 1094 642 q 1031 224 1094 342 q 850 46 967 106 q 571 -14 732 -14 q 292 46 410 -14 q 111 224 175 106 q 48 514 48 342 q 112 804 48 685 q 293 982 176 922 q 571 1042 410 1042 q 645 1038 608 1042 q 689 1034 683 1035 q 783 1028 749 1028 q 879 1052 849 1028 q 910 1136 910 1076 q 900 1233 910 1181 l 1094 1233 q 1107 1124 1107 1186 q 1066 979 1107 1033 q 952 907 1026 925 m 571 227 q 731 296 677 227 q 785 508 785 365 q 731 730 785 660 q 571 801 676 801 q 411 732 466 801 q 357 519 357 664 q 411 297 357 367 q 571 227 465 227 m 501 1101 q 514 1140 502 1124 q 541 1166 526 1156 q 580 1187 556 1175 q 608 1202 599 1196 q 616 1215 616 1208 q 598 1232 616 1226 q 543 1237 580 1237 q 410 1223 477 1237 l 410 1325 q 485 1336 440 1332 q 567 1340 529 1340 q 717 1315 669 1340 q 765 1238 765 1290 q 747 1190 765 1208 q 694 1152 728 1172 q 656 1126 669 1137 q 641 1101 643 1116 l 501 1101 z "},"Ỡ":{"ha":1142,"x_min":48,"x_max":1107,"o":"m 694 1101 q 631 1108 660 1101 q 558 1129 603 1115 q 495 1148 520 1142 q 444 1154 471 1154 q 368 1143 401 1154 q 299 1106 335 1131 l 299 1267 q 365 1308 329 1295 q 449 1321 400 1321 q 513 1314 483 1321 q 583 1292 542 1306 q 645 1273 619 1280 q 699 1267 671 1267 q 774 1278 742 1267 q 843 1315 807 1290 l 843 1153 q 778 1114 813 1126 q 694 1101 743 1101 m 952 907 q 1058 741 1022 840 q 1094 514 1094 642 q 1031 224 1094 342 q 850 46 967 106 q 571 -14 732 -14 q 292 46 410 -14 q 111 224 175 106 q 48 514 48 342 q 112 804 48 685 q 293 982 176 922 q 571 1042 410 1042 q 645 1038 608 1042 q 689 1034 683 1035 q 783 1028 749 1028 q 879 1052 849 1028 q 910 1136 910 1076 q 900 1233 910 1181 l 1094 1233 q 1107 1124 1107 1186 q 1066 979 1107 1033 q 952 907 1026 925 m 571 227 q 731 296 677 227 q 785 508 785 365 q 731 730 785 660 q 571 801 676 801 q 411 732 466 801 q 357 519 357 664 q 411 297 357 367 q 571 227 465 227 z "},"Ő":{"ha":1142,"x_min":48,"x_max":1094,"o":"m 571 -14 q 293 46 410 -14 q 112 224 176 106 q 48 514 48 342 q 112 804 48 685 q 293 982 176 922 q 571 1042 410 1042 q 849 982 731 1042 q 1031 803 967 922 q 1094 514 1094 685 q 1031 225 1094 343 q 849 46 967 106 q 571 -14 731 -14 m 571 227 q 731 296 677 227 q 785 508 785 365 q 731 730 785 660 q 571 801 676 801 q 411 732 466 801 q 357 519 357 664 q 411 297 357 367 q 571 227 465 227 m 306 1101 l 405 1321 l 634 1321 l 522 1101 l 306 1101 m 620 1101 l 719 1321 l 949 1321 l 835 1101 l 620 1101 z "},"Ȏ":{"ha":1142,"x_min":48,"x_max":1094,"o":"m 571 -14 q 293 46 410 -14 q 112 224 176 106 q 48 514 48 342 q 112 804 48 685 q 293 982 176 922 q 571 1042 410 1042 q 849 982 731 1042 q 1031 803 967 922 q 1094 514 1094 685 q 1031 225 1094 343 q 849 46 967 106 q 571 -14 731 -14 m 571 227 q 731 296 677 227 q 785 508 785 365 q 731 730 785 660 q 571 801 676 801 q 411 732 466 801 q 357 519 357 664 q 411 297 357 367 q 571 227 465 227 m 276 1101 q 364 1263 289 1204 q 571 1321 438 1321 q 778 1263 703 1321 q 866 1101 853 1204 l 690 1101 q 653 1163 682 1142 q 571 1184 624 1184 q 489 1163 518 1184 q 451 1101 460 1142 l 276 1101 z "},"Ō":{"ha":1142,"x_min":48,"x_max":1094,"o":"m 571 -14 q 293 46 410 -14 q 112 224 176 106 q 48 514 48 342 q 112 804 48 685 q 293 982 176 922 q 571 1042 410 1042 q 849 982 731 1042 q 1031 803 967 922 q 1094 514 1094 685 q 1031 225 1094 343 q 849 46 967 106 q 571 -14 731 -14 m 571 227 q 731 296 677 227 q 785 508 785 365 q 731 730 785 660 q 571 801 676 801 q 411 732 466 801 q 357 519 357 664 q 411 297 357 367 q 571 227 465 227 m 286 1126 l 286 1298 l 856 1298 l 856 1126 l 286 1126 z "},"Ṓ":{"ha":1142,"x_min":48,"x_max":1094,"o":"m 571 -14 q 293 46 410 -14 q 112 224 176 106 q 48 514 48 342 q 112 804 48 685 q 293 982 176 922 q 571 1042 410 1042 q 849 982 731 1042 q 1031 803 967 922 q 1094 514 1094 685 q 1031 225 1094 343 q 849 46 967 106 q 571 -14 731 -14 m 571 227 q 731 296 677 227 q 785 508 785 365 q 731 730 785 660 q 571 801 676 801 q 411 732 466 801 q 357 519 357 664 q 411 297 357 367 q 571 227 465 227 m 421 1379 l 548 1540 l 891 1540 l 721 1379 l 421 1379 m 286 1126 l 286 1298 l 856 1298 l 856 1126 l 286 1126 z "},"Ṑ":{"ha":1142,"x_min":48,"x_max":1094,"o":"m 571 -14 q 293 46 410 -14 q 112 224 176 106 q 48 514 48 342 q 112 804 48 685 q 293 982 176 922 q 571 1042 410 1042 q 849 982 731 1042 q 1031 803 967 922 q 1094 514 1094 685 q 1031 225 1094 343 q 849 46 967 106 q 571 -14 731 -14 m 571 227 q 731 296 677 227 q 785 508 785 365 q 731 730 785 660 q 571 801 676 801 q 411 732 466 801 q 357 519 357 664 q 411 297 357 367 q 571 227 465 227 m 421 1379 l 251 1540 l 594 1540 l 721 1379 l 421 1379 m 286 1126 l 286 1298 l 856 1298 l 856 1126 l 286 1126 z "},"Ǫ":{"ha":1142,"x_min":48,"x_max":1094,"o":"m 571 1042 q 849 982 731 1042 q 1031 803 967 922 q 1094 514 1094 685 q 1049 265 1094 369 q 926 98 1003 160 q 751 9 849 36 q 601 -60 645 -22 q 557 -143 557 -98 q 653 -208 557 -208 q 744 -191 694 -208 l 744 -299 q 610 -319 680 -319 q 447 -278 501 -319 q 393 -164 393 -237 q 415 -79 393 -117 q 487 -10 438 -41 q 252 69 350 5 q 101 245 153 133 q 48 514 48 357 q 112 804 48 685 q 293 982 176 922 q 571 1042 410 1042 m 571 227 q 731 296 677 227 q 785 508 785 365 q 731 730 785 660 q 571 801 676 801 q 411 732 466 801 q 357 519 357 664 q 411 297 357 367 q 571 227 465 227 z "},"Ø":{"ha":1142,"x_min":48,"x_max":1094,"o":"m 969 891 q 1062 729 1030 824 q 1094 514 1094 635 q 1031 225 1094 343 q 849 46 967 106 q 571 -14 731 -14 q 293 46 410 -14 l 222 -43 l 104 50 l 174 137 q 80 298 113 203 q 48 514 48 393 q 112 804 48 685 q 293 982 176 922 q 571 1042 410 1042 q 849 982 732 1042 l 920 1071 l 1038 978 l 969 891 m 357 519 q 372 384 357 440 l 683 774 q 571 801 638 801 q 411 732 466 801 q 357 519 357 664 m 571 227 q 731 296 677 227 q 785 508 785 365 q 771 643 785 587 l 459 253 q 571 227 503 227 z "},"Ǿ":{"ha":1142,"x_min":48,"x_max":1094,"o":"m 969 891 q 1062 729 1030 824 q 1094 514 1094 635 q 1031 225 1094 343 q 849 46 967 106 q 571 -14 731 -14 q 293 46 410 -14 l 222 -43 l 104 50 l 174 137 q 80 298 113 203 q 48 514 48 393 q 112 804 48 685 q 293 982 176 922 q 571 1042 410 1042 q 849 982 732 1042 l 920 1071 l 1038 978 l 969 891 m 357 519 q 372 384 357 440 l 683 774 q 571 801 638 801 q 411 732 466 801 q 357 519 357 664 m 571 227 q 731 296 677 227 q 785 508 785 365 q 771 643 785 587 l 459 253 q 571 227 503 227 m 436 1101 l 563 1321 l 872 1321 l 701 1101 l 436 1101 z "},"Õ":{"ha":1142,"x_min":48,"x_max":1094,"o":"m 571 -14 q 293 46 410 -14 q 112 224 176 106 q 48 514 48 342 q 112 804 48 685 q 293 982 176 922 q 571 1042 410 1042 q 849 982 731 1042 q 1031 803 967 922 q 1094 514 1094 685 q 1031 225 1094 343 q 849 46 967 106 q 571 -14 731 -14 m 571 227 q 731 296 677 227 q 785 508 785 365 q 731 730 785 660 q 571 801 676 801 q 411 732 466 801 q 357 519 357 664 q 411 297 357 367 q 571 227 465 227 m 699 1101 q 631 1109 663 1101 q 558 1129 599 1116 q 492 1148 518 1142 q 438 1154 466 1154 q 358 1143 392 1154 q 286 1106 324 1131 l 286 1267 q 355 1308 318 1295 q 443 1321 392 1321 q 509 1314 478 1321 q 583 1292 540 1306 q 649 1273 622 1279 q 704 1267 675 1267 q 784 1278 749 1267 q 856 1315 818 1290 l 856 1153 q 788 1114 824 1126 q 699 1101 751 1101 z "},"Ṍ":{"ha":1142,"x_min":48,"x_max":1094,"o":"m 571 -14 q 293 46 410 -14 q 112 224 176 106 q 48 514 48 342 q 112 804 48 685 q 293 982 176 922 q 571 1042 410 1042 q 849 982 731 1042 q 1031 803 967 922 q 1094 514 1094 685 q 1031 225 1094 343 q 849 46 967 106 q 571 -14 731 -14 m 571 227 q 731 296 677 227 q 785 508 785 365 q 731 730 785 660 q 571 801 676 801 q 411 732 466 801 q 357 519 357 664 q 411 297 357 367 q 571 227 465 227 m 421 1379 l 548 1540 l 891 1540 l 721 1379 l 421 1379 m 699 1101 q 631 1109 663 1101 q 558 1129 599 1116 q 492 1148 518 1142 q 438 1154 466 1154 q 358 1143 392 1154 q 286 1106 324 1131 l 286 1267 q 355 1308 318 1295 q 443 1321 392 1321 q 509 1314 478 1321 q 583 1292 540 1306 q 649 1273 622 1279 q 704 1267 675 1267 q 784 1278 749 1267 q 856 1315 818 1290 l 856 1153 q 788 1114 824 1126 q 699 1101 751 1101 z "},"Ṏ":{"ha":1142,"x_min":48,"x_max":1094,"o":"m 571 -14 q 293 46 410 -14 q 112 224 176 106 q 48 514 48 342 q 112 804 48 685 q 293 982 176 922 q 571 1042 410 1042 q 849 982 731 1042 q 1031 803 967 922 q 1094 514 1094 685 q 1031 225 1094 343 q 849 46 967 106 q 571 -14 731 -14 m 571 227 q 731 296 677 227 q 785 508 785 365 q 731 730 785 660 q 571 801 676 801 q 411 732 466 801 q 357 519 357 664 q 411 297 357 367 q 571 227 465 227 m 699 1101 q 631 1109 663 1101 q 558 1129 599 1116 q 492 1148 518 1142 q 438 1154 466 1154 q 358 1143 392 1154 q 286 1106 324 1131 l 286 1267 q 355 1308 318 1295 q 443 1321 392 1321 q 509 1314 478 1321 q 583 1292 540 1306 q 649 1273 622 1279 q 704 1267 675 1267 q 784 1278 749 1267 q 856 1315 818 1290 l 856 1153 q 788 1114 824 1126 q 699 1101 751 1101 m 381 1368 q 268 1400 306 1368 q 229 1493 229 1433 q 268 1586 229 1553 q 381 1618 306 1618 q 494 1586 456 1618 q 533 1493 533 1553 q 494 1400 533 1433 q 381 1368 456 1368 m 760 1368 q 647 1400 685 1368 q 609 1493 609 1433 q 647 1586 609 1553 q 760 1618 685 1618 q 874 1586 835 1618 q 913 1493 913 1553 q 874 1400 913 1433 q 760 1368 835 1368 z "},"Ȭ":{"ha":1142,"x_min":48,"x_max":1094,"o":"m 571 -14 q 293 46 410 -14 q 112 224 176 106 q 48 514 48 342 q 112 804 48 685 q 293 982 176 922 q 571 1042 410 1042 q 849 982 731 1042 q 1031 803 967 922 q 1094 514 1094 685 q 1031 225 1094 343 q 849 46 967 106 q 571 -14 731 -14 m 571 227 q 731 296 677 227 q 785 508 785 365 q 731 730 785 660 q 571 801 676 801 q 411 732 466 801 q 357 519 357 664 q 411 297 357 367 q 571 227 465 227 m 699 1101 q 631 1109 663 1101 q 558 1129 599 1116 q 492 1148 518 1142 q 438 1154 466 1154 q 358 1143 392 1154 q 286 1106 324 1131 l 286 1267 q 355 1308 318 1295 q 443 1321 392 1321 q 509 1314 478 1321 q 583 1292 540 1306 q 649 1273 622 1279 q 704 1267 675 1267 q 784 1278 749 1267 q 856 1315 818 1290 l 856 1153 q 788 1114 824 1126 q 699 1101 751 1101 m 286 1403 l 286 1576 l 856 1576 l 856 1403 l 286 1403 z "},"Œ":{"ha":1518,"x_min":48,"x_max":1468,"o":"m 1468 238 l 1468 0 l 906 0 q 786 -4 867 0 q 679 -8 711 -8 q 325 47 464 -8 q 117 217 185 101 q 48 514 48 332 q 208 908 48 781 q 679 1036 368 1036 q 790 1032 714 1036 q 906 1028 868 1028 l 1461 1028 l 1461 790 l 1001 790 l 1001 643 l 1388 643 l 1388 406 l 1001 406 l 1001 238 l 1468 238 m 703 791 q 615 793 672 793 q 470 766 527 793 q 385 676 414 738 q 356 513 356 615 q 385 350 356 411 q 470 261 414 289 q 615 234 527 234 q 703 236 672 234 l 703 791 z "},"P":{"ha":954,"x_min":76,"x_max":911,"o":"m 76 1007 q 419 1042 249 1042 q 790 948 668 1042 q 911 656 911 855 q 794 369 911 467 q 453 272 676 272 l 414 272 q 378 273 402 273 l 378 0 l 76 0 l 76 1007 m 456 494 q 580 531 540 494 q 619 655 619 567 q 578 780 619 741 q 448 819 537 819 q 378 813 408 819 l 378 499 q 456 494 415 494 z "},"Þ":{"ha":961,"x_min":76,"x_max":911,"o":"m 76 1028 l 378 1028 l 378 912 l 401 913 q 424 913 409 913 q 791 820 670 913 q 911 528 911 726 q 794 240 911 338 q 456 143 678 143 l 415 144 q 378 144 402 144 l 378 0 l 76 0 l 76 1028 m 456 365 q 580 402 540 365 q 619 526 619 439 q 578 652 619 613 q 448 691 537 691 q 378 685 408 691 l 378 369 q 456 365 417 365 z "},"Q":{"ha":1142,"x_min":48,"x_max":1094,"o":"m 1094 514 q 1013 201 1094 326 q 774 33 932 76 q 1083 -28 918 -6 l 1033 -260 q 444 -90 662 -199 q 138 166 227 19 q 48 507 48 313 q 112 802 48 682 q 293 982 176 922 q 571 1042 410 1042 q 849 982 731 1042 q 1031 803 967 922 q 1094 514 1094 685 m 357 519 q 410 297 357 366 q 571 227 463 227 q 731 296 677 227 q 785 508 785 365 q 731 730 785 660 q 571 801 676 801 q 411 732 466 801 q 357 519 357 664 z "},"R":{"ha":990,"x_min":76,"x_max":992,"o":"m 666 0 l 439 345 l 372 347 l 372 0 l 76 0 l 76 1001 q 249 1031 156 1019 q 428 1042 343 1042 q 784 956 665 1042 q 903 694 903 870 q 857 516 903 590 q 724 399 810 442 l 992 0 l 666 0 m 372 571 q 465 565 420 565 q 582 595 543 565 q 622 694 622 625 q 463 824 622 824 q 372 815 417 824 l 372 571 z "},"Ŕ":{"ha":990,"x_min":76,"x_max":992,"o":"m 666 0 l 439 345 l 372 347 l 372 0 l 76 0 l 76 1001 q 249 1031 156 1019 q 428 1042 343 1042 q 784 956 665 1042 q 903 694 903 870 q 857 516 903 590 q 724 399 810 442 l 992 0 l 666 0 m 372 571 q 465 565 420 565 q 582 595 543 565 q 622 694 622 625 q 463 824 622 824 q 372 815 417 824 l 372 571 m 358 1101 l 485 1321 l 794 1321 l 624 1101 l 358 1101 z "},"Ř":{"ha":990,"x_min":76,"x_max":992,"o":"m 666 0 l 439 345 l 372 347 l 372 0 l 76 0 l 76 1001 q 249 1031 156 1019 q 428 1042 343 1042 q 784 956 665 1042 q 903 694 903 870 q 857 516 903 590 q 724 399 810 442 l 992 0 l 666 0 m 372 571 q 465 565 420 565 q 582 595 543 565 q 622 694 622 625 q 463 824 622 824 q 372 815 417 824 l 372 571 m 582 1321 l 798 1321 l 615 1101 l 369 1101 l 187 1321 l 403 1321 l 492 1206 l 582 1321 z "},"Ŗ":{"ha":990,"x_min":76,"x_max":992,"o":"m 666 0 l 439 345 l 372 347 l 372 0 l 76 0 l 76 1001 q 249 1031 156 1019 q 428 1042 343 1042 q 784 956 665 1042 q 903 694 903 870 q 857 516 903 590 q 724 399 810 442 l 992 0 l 666 0 m 372 571 q 465 565 420 565 q 582 595 543 565 q 622 694 622 625 q 463 824 622 824 q 372 815 417 824 l 372 571 m 521 -72 q 679 -194 679 -72 q 661 -282 679 -236 q 615 -360 643 -328 l 433 -360 q 462 -302 452 -326 q 477 -256 472 -278 q 363 -165 363 -244 q 521 -72 363 -72 z "},"Ȑ":{"ha":990,"x_min":76,"x_max":992,"o":"m 666 0 l 439 345 l 372 347 l 372 0 l 76 0 l 76 1001 q 249 1031 156 1019 q 428 1042 343 1042 q 784 956 665 1042 q 903 694 903 870 q 857 516 903 590 q 724 399 810 442 l 992 0 l 666 0 m 372 571 q 465 565 420 565 q 582 595 543 565 q 622 694 622 625 q 463 824 622 824 q 372 815 417 824 l 372 571 m 228 1101 l 115 1321 l 344 1321 l 443 1101 l 228 1101 m 542 1101 l 429 1321 l 658 1321 l 757 1101 l 542 1101 z "},"Ṛ":{"ha":990,"x_min":76,"x_max":992,"o":"m 666 0 l 439 345 l 372 347 l 372 0 l 76 0 l 76 1001 q 249 1031 156 1019 q 428 1042 343 1042 q 784 956 665 1042 q 903 694 903 870 q 857 516 903 590 q 724 399 810 442 l 992 0 l 666 0 m 372 571 q 465 565 420 565 q 582 595 543 565 q 622 694 622 625 q 463 824 622 824 q 372 815 417 824 l 372 571 m 521 -322 q 390 -290 434 -322 q 345 -197 345 -258 q 390 -105 345 -137 q 521 -72 434 -72 q 652 -105 608 -72 q 697 -197 697 -137 q 652 -290 697 -258 q 521 -322 608 -322 z "},"Ȓ":{"ha":990,"x_min":76,"x_max":992,"o":"m 666 0 l 439 345 l 372 347 l 372 0 l 76 0 l 76 1001 q 249 1031 156 1019 q 428 1042 343 1042 q 784 956 665 1042 q 903 694 903 870 q 857 516 903 590 q 724 399 810 442 l 992 0 l 666 0 m 372 571 q 465 565 420 565 q 582 595 543 565 q 622 694 622 625 q 463 824 622 824 q 372 815 417 824 l 372 571 m 197 1101 q 285 1263 210 1204 q 492 1321 360 1321 q 700 1263 625 1321 q 788 1101 774 1204 l 612 1101 q 574 1163 603 1142 q 492 1184 545 1184 q 410 1163 440 1184 q 373 1101 381 1142 l 197 1101 z "},"Ṟ":{"ha":990,"x_min":76,"x_max":992,"o":"m 666 0 l 439 345 l 372 347 l 372 0 l 76 0 l 76 1001 q 249 1031 156 1019 q 428 1042 343 1042 q 784 956 665 1042 q 903 694 903 870 q 857 516 903 590 q 724 399 810 442 l 992 0 l 666 0 m 372 571 q 465 565 420 565 q 582 595 543 565 q 622 694 622 625 q 463 824 622 824 q 372 815 417 824 l 372 571 m 236 -276 l 236 -103 l 806 -103 l 806 -276 l 236 -276 z "},"S":{"ha":844,"x_min":29,"x_max":815,"o":"m 369 -14 q 206 -2 286 -14 q 60 32 126 10 l 60 274 q 209 239 124 252 q 367 226 294 226 q 482 245 448 226 q 515 299 515 265 q 506 332 515 319 q 473 357 497 345 q 402 380 449 368 l 310 403 q 100 513 170 438 q 29 710 29 588 q 147 955 29 869 q 498 1042 265 1042 q 756 1012 643 1042 l 756 770 q 645 793 709 785 q 518 801 581 801 q 371 781 413 801 q 328 726 328 760 q 336 697 328 708 q 364 675 344 685 q 422 654 383 665 l 514 631 q 742 518 669 593 q 815 320 815 443 q 761 143 815 218 q 607 27 708 67 q 369 -14 506 -14 z "},"Ś":{"ha":844,"x_min":29,"x_max":815,"o":"m 369 -14 q 206 -2 286 -14 q 60 32 126 10 l 60 274 q 209 239 124 252 q 367 226 294 226 q 482 245 448 226 q 515 299 515 265 q 506 332 515 319 q 473 357 497 345 q 402 380 449 368 l 310 403 q 100 513 170 438 q 29 710 29 588 q 147 955 29 869 q 498 1042 265 1042 q 756 1012 643 1042 l 756 770 q 645 793 709 785 q 518 801 581 801 q 371 781 413 801 q 328 726 328 760 q 336 697 328 708 q 364 675 344 685 q 422 654 383 665 l 514 631 q 742 518 669 593 q 815 320 815 443 q 761 143 815 218 q 607 27 708 67 q 369 -14 506 -14 m 297 1101 l 424 1321 l 733 1321 l 562 1101 l 297 1101 z "},"Ṥ":{"ha":844,"x_min":29,"x_max":815,"o":"m 369 -14 q 206 -2 286 -14 q 60 32 126 10 l 60 274 q 209 239 124 252 q 367 226 294 226 q 482 245 448 226 q 515 299 515 265 q 506 332 515 319 q 473 357 497 345 q 402 380 449 368 l 310 403 q 100 513 170 438 q 29 710 29 588 q 147 955 29 869 q 498 1042 265 1042 q 756 1012 643 1042 l 756 770 q 645 793 709 785 q 518 801 581 801 q 371 781 413 801 q 328 726 328 760 q 336 697 328 708 q 364 675 344 685 q 422 654 383 665 l 514 631 q 742 518 669 593 q 815 320 815 443 q 761 143 815 218 q 607 27 708 67 q 369 -14 506 -14 m 222 1293 q 117 1319 152 1293 q 82 1393 82 1345 q 117 1467 82 1441 q 222 1493 152 1493 q 326 1467 291 1493 q 362 1393 362 1441 q 326 1319 362 1345 q 222 1293 291 1293 m 297 1101 l 424 1321 l 733 1321 l 562 1101 l 297 1101 z "},"Š":{"ha":844,"x_min":29,"x_max":815,"o":"m 369 -14 q 206 -2 286 -14 q 60 32 126 10 l 60 274 q 209 239 124 252 q 367 226 294 226 q 482 245 448 226 q 515 299 515 265 q 506 332 515 319 q 473 357 497 345 q 402 380 449 368 l 310 403 q 100 513 170 438 q 29 710 29 588 q 147 955 29 869 q 498 1042 265 1042 q 756 1012 643 1042 l 756 770 q 645 793 709 785 q 518 801 581 801 q 371 781 413 801 q 328 726 328 760 q 336 697 328 708 q 364 675 344 685 q 422 654 383 665 l 514 631 q 742 518 669 593 q 815 320 815 443 q 761 143 815 218 q 607 27 708 67 q 369 -14 506 -14 m 520 1321 l 736 1321 l 553 1101 l 308 1101 l 125 1321 l 341 1321 l 431 1206 l 520 1321 z "},"Ṧ":{"ha":844,"x_min":29,"x_max":815,"o":"m 369 -14 q 206 -2 286 -14 q 60 32 126 10 l 60 274 q 209 239 124 252 q 367 226 294 226 q 482 245 448 226 q 515 299 515 265 q 506 332 515 319 q 473 357 497 345 q 402 380 449 368 l 310 403 q 100 513 170 438 q 29 710 29 588 q 147 955 29 869 q 498 1042 265 1042 q 756 1012 643 1042 l 756 770 q 645 793 709 785 q 518 801 581 801 q 371 781 413 801 q 328 726 328 760 q 336 697 328 708 q 364 675 344 685 q 422 654 383 665 l 514 631 q 742 518 669 593 q 815 320 815 443 q 761 143 815 218 q 607 27 708 67 q 369 -14 506 -14 m 431 1349 q 326 1375 361 1349 q 291 1449 291 1401 q 326 1523 291 1497 q 431 1549 361 1549 q 535 1523 500 1549 q 570 1449 570 1497 q 535 1375 570 1401 q 431 1349 500 1349 m 520 1321 l 736 1321 l 553 1101 l 308 1101 l 125 1321 l 341 1321 l 431 1206 l 520 1321 z "},"Ş":{"ha":844,"x_min":29,"x_max":815,"o":"m 815 320 q 775 164 815 233 q 660 52 735 96 q 479 -6 585 8 l 479 -53 q 577 -96 544 -63 q 610 -181 610 -129 q 557 -283 610 -247 q 397 -319 505 -319 q 251 -299 319 -319 l 251 -194 q 315 -208 280 -203 q 381 -213 351 -213 q 441 -203 422 -213 q 460 -171 460 -194 q 440 -136 460 -147 q 381 -126 420 -126 l 344 -126 l 344 -14 q 194 0 267 -12 q 60 32 121 12 l 60 274 q 209 239 124 252 q 367 226 294 226 q 482 245 448 226 q 515 299 515 265 q 506 332 515 319 q 473 357 497 345 q 402 380 449 368 l 310 403 q 100 513 170 438 q 29 710 29 588 q 147 955 29 869 q 498 1042 265 1042 q 756 1012 643 1042 l 756 770 q 645 793 709 785 q 518 801 581 801 q 371 781 413 801 q 328 726 328 760 q 336 697 328 708 q 364 675 344 685 q 422 654 383 665 l 514 631 q 742 518 669 593 q 815 320 815 443 z "},"Ŝ":{"ha":844,"x_min":29,"x_max":815,"o":"m 369 -14 q 206 -2 286 -14 q 60 32 126 10 l 60 274 q 209 239 124 252 q 367 226 294 226 q 482 245 448 226 q 515 299 515 265 q 506 332 515 319 q 473 357 497 345 q 402 380 449 368 l 310 403 q 100 513 170 438 q 29 710 29 588 q 147 955 29 869 q 498 1042 265 1042 q 756 1012 643 1042 l 756 770 q 645 793 709 785 q 518 801 581 801 q 371 781 413 801 q 328 726 328 760 q 336 697 328 708 q 364 675 344 685 q 422 654 383 665 l 514 631 q 742 518 669 593 q 815 320 815 443 q 761 143 815 218 q 607 27 708 67 q 369 -14 506 -14 m 736 1101 l 520 1101 l 431 1217 l 341 1101 l 125 1101 l 308 1321 l 553 1321 l 736 1101 z "},"Ș":{"ha":844,"x_min":29,"x_max":815,"o":"m 369 -14 q 206 -2 286 -14 q 60 32 126 10 l 60 274 q 209 239 124 252 q 367 226 294 226 q 482 245 448 226 q 515 299 515 265 q 506 332 515 319 q 473 357 497 345 q 402 380 449 368 l 310 403 q 100 513 170 438 q 29 710 29 588 q 147 955 29 869 q 498 1042 265 1042 q 756 1012 643 1042 l 756 770 q 645 793 709 785 q 518 801 581 801 q 371 781 413 801 q 328 726 328 760 q 336 697 328 708 q 364 675 344 685 q 422 654 383 665 l 514 631 q 742 518 669 593 q 815 320 815 443 q 761 143 815 218 q 607 27 708 67 q 369 -14 506 -14 m 431 -72 q 589 -194 589 -72 q 571 -282 589 -236 q 525 -360 553 -328 l 343 -360 q 372 -302 362 -326 q 387 -256 382 -278 q 272 -165 272 -244 q 431 -72 272 -72 z "},"Ṡ":{"ha":844,"x_min":29,"x_max":815,"o":"m 369 -14 q 206 -2 286 -14 q 60 32 126 10 l 60 274 q 209 239 124 252 q 367 226 294 226 q 482 245 448 226 q 515 299 515 265 q 506 332 515 319 q 473 357 497 345 q 402 380 449 368 l 310 403 q 100 513 170 438 q 29 710 29 588 q 147 955 29 869 q 498 1042 265 1042 q 756 1012 643 1042 l 756 770 q 645 793 709 785 q 518 801 581 801 q 371 781 413 801 q 328 726 328 760 q 336 697 328 708 q 364 675 344 685 q 422 654 383 665 l 514 631 q 742 518 669 593 q 815 320 815 443 q 761 143 815 218 q 607 27 708 67 q 369 -14 506 -14 m 431 1090 q 299 1123 344 1090 q 255 1215 255 1155 q 299 1308 255 1276 q 431 1340 344 1340 q 562 1308 517 1340 q 606 1215 606 1276 q 562 1123 606 1155 q 431 1090 517 1090 z "},"Ṣ":{"ha":844,"x_min":29,"x_max":815,"o":"m 369 -14 q 206 -2 286 -14 q 60 32 126 10 l 60 274 q 209 239 124 252 q 367 226 294 226 q 482 245 448 226 q 515 299 515 265 q 506 332 515 319 q 473 357 497 345 q 402 380 449 368 l 310 403 q 100 513 170 438 q 29 710 29 588 q 147 955 29 869 q 498 1042 265 1042 q 756 1012 643 1042 l 756 770 q 645 793 709 785 q 518 801 581 801 q 371 781 413 801 q 328 726 328 760 q 336 697 328 708 q 364 675 344 685 q 422 654 383 665 l 514 631 q 742 518 669 593 q 815 320 815 443 q 761 143 815 218 q 607 27 708 67 q 369 -14 506 -14 m 431 -322 q 299 -290 344 -322 q 255 -197 255 -258 q 299 -105 255 -137 q 431 -72 344 -72 q 562 -105 517 -72 q 606 -197 606 -137 q 562 -290 606 -258 q 431 -322 517 -322 z "},"Ṩ":{"ha":844,"x_min":29,"x_max":815,"o":"m 369 -14 q 206 -2 286 -14 q 60 32 126 10 l 60 274 q 209 239 124 252 q 367 226 294 226 q 482 245 448 226 q 515 299 515 265 q 506 332 515 319 q 473 357 497 345 q 402 380 449 368 l 310 403 q 100 513 170 438 q 29 710 29 588 q 147 955 29 869 q 498 1042 265 1042 q 756 1012 643 1042 l 756 770 q 645 793 709 785 q 518 801 581 801 q 371 781 413 801 q 328 726 328 760 q 336 697 328 708 q 364 675 344 685 q 422 654 383 665 l 514 631 q 742 518 669 593 q 815 320 815 443 q 761 143 815 218 q 607 27 708 67 q 369 -14 506 -14 m 431 -322 q 299 -290 344 -322 q 255 -197 255 -258 q 299 -105 255 -137 q 431 -72 344 -72 q 562 -105 517 -72 q 606 -197 606 -137 q 562 -290 606 -258 q 431 -322 517 -322 m 431 1090 q 299 1123 344 1090 q 255 1215 255 1155 q 299 1308 255 1276 q 431 1340 344 1340 q 562 1308 517 1340 q 606 1215 606 1276 q 562 1123 606 1155 q 431 1090 517 1090 z "},"ẞ":{"ha":1322,"x_min":76,"x_max":1293,"o":"m 1006 631 q 1223 517 1153 592 q 1293 320 1293 442 q 1242 143 1293 218 q 1093 27 1190 67 q 860 -14 995 -14 q 710 -3 785 -14 q 572 28 634 8 l 572 270 q 713 239 633 251 q 854 226 792 226 q 966 245 933 226 q 998 299 998 264 q 977 347 998 328 q 899 380 956 365 l 811 403 q 609 513 677 438 q 542 710 542 588 q 551 797 542 755 q 506 803 529 803 q 411 767 444 803 q 378 663 378 731 l 378 0 l 76 0 l 76 626 q 184 933 76 824 q 506 1042 292 1042 q 733 998 636 1042 q 1001 1042 840 1042 q 1126 1034 1065 1042 q 1238 1015 1188 1027 l 1238 774 q 1133 794 1192 786 q 1022 801 1073 801 q 878 781 919 801 q 838 726 838 760 q 854 683 838 699 q 918 654 871 667 l 1006 631 z "},"Ə":{"ha":1122,"x_min":41,"x_max":1074,"o":"m 430 1042 q 914 908 754 1042 q 1074 500 1074 775 q 1011 222 1074 338 q 834 46 949 106 q 565 -14 719 -14 q 288 45 406 -14 q 106 221 170 104 q 41 507 41 338 l 41 601 l 767 601 q 704 719 749 675 q 585 783 659 764 q 404 803 512 803 q 257 795 334 803 q 115 772 181 787 l 115 1013 q 269 1034 187 1027 q 430 1042 352 1042 m 567 216 q 706 255 657 216 q 769 387 754 293 l 356 387 q 422 256 372 295 q 567 216 472 216 z "},"T":{"ha":944,"x_min":9,"x_max":935,"o":"m 321 0 l 321 779 l 9 779 l 9 1028 l 935 1028 l 935 779 l 624 779 l 624 0 l 321 0 z "},"Ŧ":{"ha":944,"x_min":9,"x_max":935,"o":"m 935 779 l 624 779 l 624 580 l 821 580 l 821 392 l 624 392 l 624 0 l 321 0 l 321 392 l 123 392 l 123 580 l 321 580 l 321 779 l 9 779 l 9 1028 l 935 1028 l 935 779 z "},"Ť":{"ha":944,"x_min":9,"x_max":935,"o":"m 321 0 l 321 779 l 9 779 l 9 1028 l 935 1028 l 935 779 l 624 779 l 624 0 l 321 0 m 562 1321 l 778 1321 l 595 1101 l 349 1101 l 167 1321 l 383 1321 l 472 1206 l 562 1321 z "},"Ţ":{"ha":944,"x_min":9,"x_max":935,"o":"m 521 0 l 521 -53 q 619 -96 586 -63 q 651 -181 651 -129 q 599 -283 651 -247 q 438 -319 547 -319 q 293 -299 360 -319 l 293 -194 q 357 -208 322 -203 q 423 -213 392 -213 q 483 -203 464 -213 q 502 -171 502 -194 q 482 -136 502 -147 q 422 -126 462 -126 l 386 -126 l 386 0 l 321 0 l 321 779 l 9 779 l 9 1028 l 935 1028 l 935 779 l 624 779 l 624 0 l 521 0 z "},"Ț":{"ha":944,"x_min":9,"x_max":935,"o":"m 321 0 l 321 779 l 9 779 l 9 1028 l 935 1028 l 935 779 l 624 779 l 624 0 l 321 0 m 472 -72 q 631 -194 631 -72 q 613 -282 631 -236 q 567 -360 594 -328 l 385 -360 q 414 -302 403 -326 q 428 -256 424 -278 q 314 -165 314 -244 q 472 -72 314 -72 z "},"Ṭ":{"ha":944,"x_min":9,"x_max":935,"o":"m 321 0 l 321 779 l 9 779 l 9 1028 l 935 1028 l 935 779 l 624 779 l 624 0 l 321 0 m 472 -322 q 341 -290 385 -322 q 297 -197 297 -258 q 341 -105 297 -137 q 472 -72 385 -72 q 603 -105 559 -72 q 648 -197 648 -137 q 603 -290 648 -258 q 472 -322 559 -322 z "},"Ṯ":{"ha":944,"x_min":9,"x_max":935,"o":"m 321 0 l 321 779 l 9 779 l 9 1028 l 935 1028 l 935 779 l 624 779 l 624 0 l 321 0 m 188 -276 l 188 -103 l 757 -103 l 757 -276 l 188 -276 z "},"U":{"ha":1075,"x_min":72,"x_max":1003,"o":"m 540 -14 q 185 101 299 -14 q 72 451 72 216 l 72 1028 l 374 1028 l 374 422 q 415 277 374 322 q 540 231 457 231 q 665 277 624 231 q 707 422 707 322 l 707 1028 l 1003 1028 l 1003 451 q 891 101 1003 216 q 540 -14 778 -14 z "},"Ú":{"ha":1075,"x_min":72,"x_max":1003,"o":"m 540 -14 q 185 101 299 -14 q 72 451 72 216 l 72 1028 l 374 1028 l 374 422 q 415 277 374 322 q 540 231 457 231 q 665 277 624 231 q 707 422 707 322 l 707 1028 l 1003 1028 l 1003 451 q 891 101 1003 216 q 540 -14 778 -14 m 406 1101 l 533 1321 l 842 1321 l 672 1101 l 406 1101 z "},"Ŭ":{"ha":1075,"x_min":72,"x_max":1003,"o":"m 540 -14 q 185 101 299 -14 q 72 451 72 216 l 72 1028 l 374 1028 l 374 422 q 415 277 374 322 q 540 231 457 231 q 665 277 624 231 q 707 422 707 322 l 707 1028 l 1003 1028 l 1003 451 q 891 101 1003 216 q 540 -14 778 -14 m 540 1101 q 333 1160 408 1101 q 245 1321 258 1218 l 421 1321 q 458 1259 429 1280 q 540 1238 488 1238 q 622 1259 593 1238 q 660 1321 651 1280 l 835 1321 q 748 1160 822 1218 q 540 1101 673 1101 z "},"Û":{"ha":1075,"x_min":72,"x_max":1003,"o":"m 540 -14 q 185 101 299 -14 q 72 451 72 216 l 72 1028 l 374 1028 l 374 422 q 415 277 374 322 q 540 231 457 231 q 665 277 624 231 q 707 422 707 322 l 707 1028 l 1003 1028 l 1003 451 q 891 101 1003 216 q 540 -14 778 -14 m 846 1101 l 630 1101 l 540 1217 l 451 1101 l 235 1101 l 417 1321 l 663 1321 l 846 1101 z "},"Ȕ":{"ha":1075,"x_min":72,"x_max":1003,"o":"m 540 -14 q 185 101 299 -14 q 72 451 72 216 l 72 1028 l 374 1028 l 374 422 q 415 277 374 322 q 540 231 457 231 q 665 277 624 231 q 707 422 707 322 l 707 1028 l 1003 1028 l 1003 451 q 891 101 1003 216 q 540 -14 778 -14 m 276 1101 l 163 1321 l 392 1321 l 491 1101 l 276 1101 m 590 1101 l 477 1321 l 706 1321 l 805 1101 l 590 1101 z "},"Ü":{"ha":1075,"x_min":72,"x_max":1003,"o":"m 540 -14 q 185 101 299 -14 q 72 451 72 216 l 72 1028 l 374 1028 l 374 422 q 415 277 374 322 q 540 231 457 231 q 665 277 624 231 q 707 422 707 322 l 707 1028 l 1003 1028 l 1003 451 q 891 101 1003 216 q 540 -14 778 -14 m 351 1090 q 237 1123 276 1090 q 199 1215 199 1155 q 237 1308 199 1276 q 351 1340 276 1340 q 464 1308 426 1340 q 502 1215 502 1276 q 464 1123 502 1155 q 351 1090 426 1090 m 730 1090 q 617 1123 655 1090 q 578 1215 578 1155 q 617 1308 578 1276 q 730 1340 655 1340 q 843 1308 805 1340 q 882 1215 882 1276 q 843 1123 882 1155 q 730 1090 805 1090 z "},"Ụ":{"ha":1075,"x_min":72,"x_max":1003,"o":"m 540 -14 q 185 101 299 -14 q 72 451 72 216 l 72 1028 l 374 1028 l 374 422 q 415 277 374 322 q 540 231 457 231 q 665 277 624 231 q 707 422 707 322 l 707 1028 l 1003 1028 l 1003 451 q 891 101 1003 216 q 540 -14 778 -14 m 540 -322 q 409 -290 453 -322 q 365 -197 365 -258 q 409 -105 365 -137 q 540 -72 453 -72 q 672 -105 627 -72 q 716 -197 716 -137 q 672 -290 716 -258 q 540 -322 627 -322 z "},"Ù":{"ha":1075,"x_min":72,"x_max":1003,"o":"m 540 -14 q 185 101 299 -14 q 72 451 72 216 l 72 1028 l 374 1028 l 374 422 q 415 277 374 322 q 540 231 457 231 q 665 277 624 231 q 707 422 707 322 l 707 1028 l 1003 1028 l 1003 451 q 891 101 1003 216 q 540 -14 778 -14 m 408 1101 l 237 1321 l 546 1321 l 673 1101 l 408 1101 z "},"Ủ":{"ha":1075,"x_min":72,"x_max":1003,"o":"m 540 -14 q 185 101 299 -14 q 72 451 72 216 l 72 1028 l 374 1028 l 374 422 q 415 277 374 322 q 540 231 457 231 q 665 277 624 231 q 707 422 707 322 l 707 1028 l 1003 1028 l 1003 451 q 891 101 1003 216 q 540 -14 778 -14 m 470 1101 q 483 1140 472 1124 q 510 1166 495 1156 q 549 1187 525 1175 q 577 1202 569 1196 q 585 1215 585 1208 q 567 1232 585 1226 q 513 1237 549 1237 q 380 1223 447 1237 l 380 1325 q 454 1336 410 1332 q 536 1340 499 1340 q 686 1315 638 1340 q 735 1238 735 1290 q 716 1190 735 1208 q 663 1152 698 1172 q 625 1126 638 1137 q 610 1101 613 1116 l 470 1101 z "},"Ư":{"ha":1078,"x_min":72,"x_max":1124,"o":"m 540 -14 q 185 101 299 -14 q 72 451 72 216 l 72 1028 l 374 1028 l 374 422 q 415 277 374 322 q 540 231 457 231 q 665 277 624 231 q 707 422 707 322 l 707 1028 l 801 1028 q 897 1052 866 1028 q 927 1136 927 1076 q 917 1233 927 1181 l 1111 1233 q 1124 1124 1124 1186 q 1093 992 1124 1044 q 1003 918 1061 941 l 1003 451 q 891 101 1003 216 q 540 -14 778 -14 z "},"Ứ":{"ha":1078,"x_min":72,"x_max":1124,"o":"m 540 -14 q 185 101 299 -14 q 72 451 72 216 l 72 1028 l 374 1028 l 374 422 q 415 277 374 322 q 540 231 457 231 q 665 277 624 231 q 707 422 707 322 l 707 1028 l 801 1028 q 897 1052 866 1028 q 927 1136 927 1076 q 917 1233 927 1181 l 1111 1233 q 1124 1124 1124 1186 q 1093 992 1124 1044 q 1003 918 1061 941 l 1003 451 q 891 101 1003 216 q 540 -14 778 -14 m 403 1101 l 531 1321 l 840 1321 l 669 1101 l 403 1101 z "},"Ự":{"ha":1078,"x_min":72,"x_max":1124,"o":"m 540 -14 q 185 101 299 -14 q 72 451 72 216 l 72 1028 l 374 1028 l 374 422 q 415 277 374 322 q 540 231 457 231 q 665 277 624 231 q 707 422 707 322 l 707 1028 l 801 1028 q 897 1052 866 1028 q 927 1136 927 1076 q 917 1233 927 1181 l 1111 1233 q 1124 1124 1124 1186 q 1093 992 1124 1044 q 1003 918 1061 941 l 1003 451 q 891 101 1003 216 q 540 -14 778 -14 m 538 -322 q 406 -290 451 -322 q 362 -197 362 -258 q 406 -105 362 -137 q 538 -72 451 -72 q 669 -105 624 -72 q 713 -197 713 -137 q 669 -290 713 -258 q 538 -322 624 -322 z "},"Ừ":{"ha":1078,"x_min":72,"x_max":1124,"o":"m 540 -14 q 185 101 299 -14 q 72 451 72 216 l 72 1028 l 374 1028 l 374 422 q 415 277 374 322 q 540 231 457 231 q 665 277 624 231 q 707 422 707 322 l 707 1028 l 801 1028 q 897 1052 866 1028 q 927 1136 927 1076 q 917 1233 927 1181 l 1111 1233 q 1124 1124 1124 1186 q 1093 992 1124 1044 q 1003 918 1061 941 l 1003 451 q 891 101 1003 216 q 540 -14 778 -14 m 405 1101 l 234 1321 l 543 1321 l 670 1101 l 405 1101 z "},"Ử":{"ha":1078,"x_min":72,"x_max":1124,"o":"m 540 -14 q 185 101 299 -14 q 72 451 72 216 l 72 1028 l 374 1028 l 374 422 q 415 277 374 322 q 540 231 457 231 q 665 277 624 231 q 707 422 707 322 l 707 1028 l 801 1028 q 897 1052 866 1028 q 927 1136 927 1076 q 917 1233 927 1181 l 1111 1233 q 1124 1124 1124 1186 q 1093 992 1124 1044 q 1003 918 1061 941 l 1003 451 q 891 101 1003 216 q 540 -14 778 -14 m 467 1101 q 481 1140 469 1124 q 507 1166 492 1156 q 547 1187 522 1175 q 574 1202 566 1196 q 583 1215 583 1208 q 565 1232 583 1226 q 510 1237 547 1237 q 377 1223 444 1237 l 377 1325 q 451 1336 407 1332 q 533 1340 496 1340 q 684 1315 635 1340 q 732 1238 732 1290 q 714 1190 732 1208 q 660 1152 695 1172 q 623 1126 635 1137 q 608 1101 610 1116 l 467 1101 z "},"Ữ":{"ha":1078,"x_min":72,"x_max":1124,"o":"m 540 -14 q 185 101 299 -14 q 72 451 72 216 l 72 1028 l 374 1028 l 374 422 q 415 277 374 322 q 540 231 457 231 q 665 277 624 231 q 707 422 707 322 l 707 1028 l 801 1028 q 897 1052 866 1028 q 927 1136 927 1076 q 917 1233 927 1181 l 1111 1233 q 1124 1124 1124 1186 q 1093 992 1124 1044 q 1003 918 1061 941 l 1003 451 q 891 101 1003 216 q 540 -14 778 -14 m 665 1101 q 598 1109 629 1101 q 525 1129 566 1116 q 459 1148 485 1142 q 404 1154 433 1154 q 325 1143 359 1154 q 253 1106 290 1131 l 253 1267 q 322 1308 285 1295 q 410 1321 358 1321 q 476 1314 445 1321 q 550 1292 507 1306 q 615 1273 589 1279 q 671 1267 642 1267 q 750 1278 716 1267 q 822 1315 785 1290 l 822 1153 q 754 1114 791 1126 q 665 1101 717 1101 z "},"Ű":{"ha":1075,"x_min":72,"x_max":1003,"o":"m 540 -14 q 185 101 299 -14 q 72 451 72 216 l 72 1028 l 374 1028 l 374 422 q 415 277 374 322 q 540 231 457 231 q 665 277 624 231 q 707 422 707 322 l 707 1028 l 1003 1028 l 1003 451 q 891 101 1003 216 q 540 -14 778 -14 m 276 1101 l 374 1321 l 603 1321 l 491 1101 l 276 1101 m 590 1101 l 688 1321 l 918 1321 l 805 1101 l 590 1101 z "},"Ȗ":{"ha":1075,"x_min":72,"x_max":1003,"o":"m 540 -14 q 185 101 299 -14 q 72 451 72 216 l 72 1028 l 374 1028 l 374 422 q 415 277 374 322 q 540 231 457 231 q 665 277 624 231 q 707 422 707 322 l 707 1028 l 1003 1028 l 1003 451 q 891 101 1003 216 q 540 -14 778 -14 m 245 1101 q 333 1263 258 1204 q 540 1321 408 1321 q 748 1263 673 1321 q 835 1101 822 1204 l 660 1101 q 622 1163 651 1142 q 540 1184 593 1184 q 458 1163 488 1184 q 421 1101 429 1142 l 245 1101 z "},"Ū":{"ha":1075,"x_min":72,"x_max":1003,"o":"m 540 -14 q 185 101 299 -14 q 72 451 72 216 l 72 1028 l 374 1028 l 374 422 q 415 277 374 322 q 540 231 457 231 q 665 277 624 231 q 707 422 707 322 l 707 1028 l 1003 1028 l 1003 451 q 891 101 1003 216 q 540 -14 778 -14 m 256 1126 l 256 1298 l 825 1298 l 825 1126 l 256 1126 z "},"Ṻ":{"ha":1075,"x_min":72,"x_max":1003,"o":"m 540 -14 q 185 101 299 -14 q 72 451 72 216 l 72 1028 l 374 1028 l 374 422 q 415 277 374 322 q 540 231 457 231 q 665 277 624 231 q 707 422 707 322 l 707 1028 l 1003 1028 l 1003 451 q 891 101 1003 216 q 540 -14 778 -14 m 256 1126 l 256 1298 l 825 1298 l 825 1126 l 256 1126 m 351 1368 q 237 1400 276 1368 q 199 1493 199 1433 q 237 1586 199 1553 q 351 1618 276 1618 q 464 1586 426 1618 q 502 1493 502 1553 q 464 1400 502 1433 q 351 1368 426 1368 m 730 1368 q 617 1400 655 1368 q 578 1493 578 1433 q 617 1586 578 1553 q 730 1618 655 1618 q 843 1586 805 1618 q 882 1493 882 1553 q 843 1400 882 1433 q 730 1368 805 1368 z "},"Ų":{"ha":1075,"x_min":72,"x_max":1003,"o":"m 1003 1028 l 1003 451 q 941 165 1003 274 q 747 15 878 57 q 623 -38 667 -12 q 563 -89 579 -64 q 547 -143 547 -115 q 642 -208 547 -208 q 733 -191 683 -208 l 733 -299 q 599 -319 669 -319 q 437 -278 491 -319 q 383 -164 383 -237 q 405 -81 383 -119 q 475 -12 426 -44 q 169 118 267 3 q 72 451 72 232 l 72 1028 l 374 1028 l 374 422 q 415 277 374 322 q 540 231 457 231 q 665 277 624 231 q 707 422 707 322 l 707 1028 l 1003 1028 z "},"Ů":{"ha":1075,"x_min":72,"x_max":1003,"o":"m 540 -14 q 185 101 299 -14 q 72 451 72 216 l 72 1028 l 374 1028 l 374 422 q 415 277 374 322 q 540 231 457 231 q 665 277 624 231 q 707 422 707 322 l 707 1028 l 1003 1028 l 1003 451 q 891 101 1003 216 q 540 -14 778 -14 m 540 1090 q 459 1110 495 1090 q 402 1165 423 1130 q 382 1243 382 1199 q 402 1322 382 1287 q 459 1376 423 1356 q 540 1396 495 1396 q 622 1376 585 1396 q 678 1322 658 1356 q 699 1243 699 1287 q 678 1165 699 1199 q 622 1110 658 1130 q 540 1090 585 1090 m 540 1186 q 580 1202 565 1186 q 594 1243 594 1217 q 580 1284 594 1269 q 540 1300 565 1300 q 501 1284 516 1300 q 486 1243 486 1269 q 501 1202 486 1217 q 540 1186 516 1186 z "},"Ũ":{"ha":1075,"x_min":72,"x_max":1003,"o":"m 540 -14 q 185 101 299 -14 q 72 451 72 216 l 72 1028 l 374 1028 l 374 422 q 415 277 374 322 q 540 231 457 231 q 665 277 624 231 q 707 422 707 322 l 707 1028 l 1003 1028 l 1003 451 q 891 101 1003 216 q 540 -14 778 -14 m 668 1101 q 600 1109 632 1101 q 528 1129 569 1116 q 461 1148 488 1142 q 407 1154 435 1154 q 327 1143 362 1154 q 256 1106 293 1131 l 256 1267 q 324 1308 288 1295 q 413 1321 361 1321 q 479 1314 448 1321 q 553 1292 510 1306 q 618 1273 592 1279 q 674 1267 644 1267 q 753 1278 719 1267 q 825 1315 788 1290 l 825 1153 q 757 1114 794 1126 q 668 1101 720 1101 z "},"Ṹ":{"ha":1075,"x_min":72,"x_max":1003,"o":"m 540 -14 q 185 101 299 -14 q 72 451 72 216 l 72 1028 l 374 1028 l 374 422 q 415 277 374 322 q 540 231 457 231 q 665 277 624 231 q 707 422 707 322 l 707 1028 l 1003 1028 l 1003 451 q 891 101 1003 216 q 540 -14 778 -14 m 390 1379 l 517 1540 l 860 1540 l 690 1379 l 390 1379 m 668 1101 q 600 1109 632 1101 q 528 1129 569 1116 q 461 1148 488 1142 q 407 1154 435 1154 q 327 1143 362 1154 q 256 1106 293 1131 l 256 1267 q 324 1308 288 1295 q 413 1321 361 1321 q 479 1314 448 1321 q 553 1292 510 1306 q 618 1273 592 1279 q 674 1267 644 1267 q 753 1278 719 1267 q 825 1315 788 1290 l 825 1153 q 757 1114 794 1126 q 668 1101 720 1101 z "},"V":{"ha":1049,"x_min":-4,"x_max":1053,"o":"m 760 1028 l 1053 1028 l 749 0 l 301 0 l -4 1028 l 310 1028 l 533 236 l 760 1028 z "},"W":{"ha":1659,"x_min":10,"x_max":1649,"o":"m 1365 1028 l 1649 1028 l 1390 0 l 1005 0 l 835 688 l 654 0 l 269 0 l 10 1028 l 314 1028 l 485 288 l 674 1028 l 1003 1028 l 1184 273 l 1365 1028 z "},"Ẃ":{"ha":1659,"x_min":10,"x_max":1649,"o":"m 1365 1028 l 1649 1028 l 1390 0 l 1005 0 l 835 688 l 654 0 l 269 0 l 10 1028 l 314 1028 l 485 288 l 674 1028 l 1003 1028 l 1184 273 l 1365 1028 m 696 1101 l 823 1321 l 1132 1321 l 961 1101 l 696 1101 z "},"Ŵ":{"ha":1659,"x_min":10,"x_max":1649,"o":"m 1365 1028 l 1649 1028 l 1390 0 l 1005 0 l 835 688 l 654 0 l 269 0 l 10 1028 l 314 1028 l 485 288 l 674 1028 l 1003 1028 l 1184 273 l 1365 1028 m 1135 1101 l 919 1101 l 830 1217 l 740 1101 l 524 1101 l 707 1321 l 953 1321 l 1135 1101 z "},"Ẅ":{"ha":1659,"x_min":10,"x_max":1649,"o":"m 1365 1028 l 1649 1028 l 1390 0 l 1005 0 l 835 688 l 654 0 l 269 0 l 10 1028 l 314 1028 l 485 288 l 674 1028 l 1003 1028 l 1184 273 l 1365 1028 m 640 1090 q 527 1123 565 1090 q 488 1215 488 1155 q 527 1308 488 1276 q 640 1340 565 1340 q 753 1308 715 1340 q 792 1215 792 1276 q 753 1123 792 1155 q 640 1090 715 1090 m 1019 1090 q 906 1123 944 1090 q 868 1215 868 1155 q 906 1308 868 1276 q 1019 1340 944 1340 q 1133 1308 1094 1340 q 1172 1215 1172 1276 q 1133 1123 1172 1155 q 1019 1090 1094 1090 z "},"Ẁ":{"ha":1659,"x_min":10,"x_max":1649,"o":"m 1365 1028 l 1649 1028 l 1390 0 l 1005 0 l 835 688 l 654 0 l 269 0 l 10 1028 l 314 1028 l 485 288 l 674 1028 l 1003 1028 l 1184 273 l 1365 1028 m 697 1101 l 526 1321 l 835 1321 l 963 1101 l 697 1101 z "},"X":{"ha":1001,"x_min":-42,"x_max":1040,"o":"m 676 542 l 1040 0 l 710 0 l 497 324 l 285 0 l -42 0 l 323 538 l -10 1028 l 323 1028 l 501 758 l 678 1028 l 1002 1028 l 676 542 z "},"Y":{"ha":944,"x_min":-46,"x_max":981,"o":"m 981 1028 l 625 423 l 625 0 l 323 0 l 323 420 l -46 1028 l 272 1028 l 481 674 l 688 1028 l 981 1028 z "},"Ý":{"ha":944,"x_min":-46,"x_max":981,"o":"m 981 1028 l 625 423 l 625 0 l 323 0 l 323 420 l -46 1028 l 272 1028 l 481 674 l 688 1028 l 981 1028 m 338 1101 l 465 1321 l 774 1321 l 603 1101 l 338 1101 z "},"Ŷ":{"ha":944,"x_min":-46,"x_max":981,"o":"m 981 1028 l 625 423 l 625 0 l 323 0 l 323 420 l -46 1028 l 272 1028 l 481 674 l 688 1028 l 981 1028 m 778 1101 l 562 1101 l 472 1217 l 383 1101 l 167 1101 l 349 1321 l 595 1321 l 778 1101 z "},"Ÿ":{"ha":944,"x_min":-46,"x_max":981,"o":"m 981 1028 l 625 423 l 625 0 l 323 0 l 323 420 l -46 1028 l 272 1028 l 481 674 l 688 1028 l 981 1028 m 283 1090 q 169 1123 208 1090 q 131 1215 131 1155 q 169 1308 131 1276 q 283 1340 208 1340 q 396 1308 358 1340 q 434 1215 434 1276 q 396 1123 434 1155 q 283 1090 358 1090 m 662 1090 q 549 1123 587 1090 q 510 1215 510 1155 q 549 1308 510 1276 q 662 1340 587 1340 q 775 1308 737 1340 q 814 1215 814 1276 q 775 1123 814 1155 q 662 1090 737 1090 z "},"Ẏ":{"ha":944,"x_min":-46,"x_max":981,"o":"m 981 1028 l 625 423 l 625 0 l 323 0 l 323 420 l -46 1028 l 272 1028 l 481 674 l 688 1028 l 981 1028 m 472 1090 q 341 1123 385 1090 q 297 1215 297 1155 q 341 1308 297 1276 q 472 1340 385 1340 q 603 1308 559 1340 q 648 1215 648 1276 q 603 1123 648 1155 q 472 1090 559 1090 z "},"Ỵ":{"ha":944,"x_min":-46,"x_max":981,"o":"m 981 1028 l 625 423 l 625 0 l 323 0 l 323 420 l -46 1028 l 272 1028 l 481 674 l 688 1028 l 981 1028 m 472 -322 q 340 -290 385 -322 q 296 -197 296 -258 q 340 -105 296 -137 q 472 -72 385 -72 q 603 -105 558 -72 q 647 -197 647 -137 q 603 -290 647 -258 q 472 -322 558 -322 z "},"Ỳ":{"ha":944,"x_min":-46,"x_max":981,"o":"m 981 1028 l 625 423 l 625 0 l 323 0 l 323 420 l -46 1028 l 272 1028 l 481 674 l 688 1028 l 981 1028 m 340 1101 l 169 1321 l 478 1321 l 605 1101 l 340 1101 z "},"Ỷ":{"ha":944,"x_min":-46,"x_max":981,"o":"m 981 1028 l 625 423 l 625 0 l 323 0 l 323 420 l -46 1028 l 272 1028 l 481 674 l 688 1028 l 981 1028 m 402 1101 q 415 1140 403 1124 q 442 1166 427 1156 q 481 1187 457 1175 q 509 1202 501 1196 q 517 1215 517 1208 q 499 1232 517 1226 q 444 1237 481 1237 q 312 1223 378 1237 l 312 1325 q 386 1336 342 1332 q 468 1340 431 1340 q 618 1315 570 1340 q 667 1238 667 1290 q 648 1190 667 1208 q 595 1152 630 1172 q 557 1126 570 1137 q 542 1101 544 1116 l 402 1101 z "},"Ȳ":{"ha":944,"x_min":-46,"x_max":981,"o":"m 981 1028 l 625 423 l 625 0 l 323 0 l 323 420 l -46 1028 l 272 1028 l 481 674 l 688 1028 l 981 1028 m 188 1126 l 188 1298 l 757 1298 l 757 1126 l 188 1126 z "},"Ỹ":{"ha":944,"x_min":-46,"x_max":981,"o":"m 981 1028 l 625 423 l 625 0 l 323 0 l 323 420 l -46 1028 l 272 1028 l 481 674 l 688 1028 l 981 1028 m 600 1101 q 532 1109 564 1101 q 460 1129 501 1116 q 393 1148 419 1142 q 339 1154 367 1154 q 259 1143 294 1154 q 188 1106 225 1131 l 188 1267 q 256 1308 219 1295 q 344 1321 293 1321 q 411 1314 380 1321 q 485 1292 442 1306 q 550 1273 524 1279 q 606 1267 576 1267 q 685 1278 651 1267 q 757 1315 719 1290 l 757 1153 q 689 1114 726 1126 q 600 1101 652 1101 z "},"Z":{"ha":901,"x_min":40,"x_max":861,"o":"m 430 249 l 861 249 l 861 0 l 40 0 l 40 165 l 464 779 l 47 779 l 47 1028 l 854 1028 l 854 863 l 430 249 z "},"Ź":{"ha":901,"x_min":40,"x_max":861,"o":"m 430 249 l 861 249 l 861 0 l 40 0 l 40 165 l 464 779 l 47 779 l 47 1028 l 854 1028 l 854 863 l 430 249 m 317 1101 l 444 1321 l 753 1321 l 583 1101 l 317 1101 z "},"Ž":{"ha":901,"x_min":40,"x_max":861,"o":"m 430 249 l 861 249 l 861 0 l 40 0 l 40 165 l 464 779 l 47 779 l 47 1028 l 854 1028 l 854 863 l 430 249 m 541 1321 l 757 1321 l 574 1101 l 328 1101 l 146 1321 l 362 1321 l 451 1206 l 541 1321 z "},"Ż":{"ha":901,"x_min":40,"x_max":861,"o":"m 430 249 l 861 249 l 861 0 l 40 0 l 40 165 l 464 779 l 47 779 l 47 1028 l 854 1028 l 854 863 l 430 249 m 451 1090 q 320 1123 365 1090 q 276 1215 276 1155 q 320 1308 276 1276 q 451 1340 365 1340 q 583 1308 538 1340 q 627 1215 627 1276 q 583 1123 627 1155 q 451 1090 538 1090 z "},"Ẓ":{"ha":901,"x_min":40,"x_max":861,"o":"m 430 249 l 861 249 l 861 0 l 40 0 l 40 165 l 464 779 l 47 779 l 47 1028 l 854 1028 l 854 863 l 430 249 m 449 -322 q 317 -290 362 -322 q 273 -197 273 -258 q 317 -105 273 -137 q 449 -72 362 -72 q 580 -105 535 -72 q 624 -197 624 -137 q 580 -290 624 -258 q 449 -322 535 -322 z "},"a":{"ha":817,"x_min":31,"x_max":754,"o":"m 364 776 q 590 743 505 776 q 714 632 674 709 q 754 424 754 556 l 754 0 l 512 0 l 492 70 l 479 70 q 289 -15 419 -15 q 150 14 208 -15 q 61 95 92 43 q 31 215 31 147 q 113 393 31 330 q 374 465 196 456 l 465 470 q 444 520 460 501 q 395 547 428 539 q 308 556 363 556 q 205 548 261 556 q 100 527 149 541 l 100 745 q 230 768 160 760 q 364 776 301 776 m 391 185 q 466 203 437 185 l 466 313 l 407 310 q 320 243 320 306 q 339 200 320 215 q 391 185 357 185 z "},"á":{"ha":817,"x_min":31,"x_max":754,"o":"m 364 776 q 590 743 505 776 q 714 632 674 709 q 754 424 754 556 l 754 0 l 512 0 l 492 70 l 479 70 q 289 -15 419 -15 q 150 14 208 -15 q 61 95 92 43 q 31 215 31 147 q 113 393 31 330 q 374 465 196 456 l 465 470 q 444 520 460 501 q 395 547 428 539 q 308 556 363 556 q 205 548 261 556 q 100 527 149 541 l 100 745 q 230 768 160 760 q 364 776 301 776 m 391 185 q 466 203 437 185 l 466 313 l 407 310 q 320 243 320 306 q 339 200 320 215 q 391 185 357 185 m 272 847 l 433 1122 l 745 1122 l 541 847 l 272 847 z "},"ă":{"ha":817,"x_min":31,"x_max":754,"o":"m 364 776 q 590 743 505 776 q 714 632 674 709 q 754 424 754 556 l 754 0 l 512 0 l 492 70 l 479 70 q 289 -15 419 -15 q 150 14 208 -15 q 61 95 92 43 q 31 215 31 147 q 113 393 31 330 q 374 465 196 456 l 465 470 q 444 520 460 501 q 395 547 428 539 q 308 556 363 556 q 205 548 261 556 q 100 527 149 541 l 100 745 q 230 768 160 760 q 364 776 301 776 m 391 185 q 466 203 437 185 l 466 313 l 407 310 q 320 243 320 306 q 339 200 320 215 q 391 185 357 185 m 406 853 q 204 918 277 853 q 124 1108 131 983 l 298 1108 q 330 1024 303 1051 q 406 997 356 997 q 483 1024 456 997 q 515 1108 510 1051 l 689 1108 q 609 918 682 983 q 406 853 535 853 z "},"ắ":{"ha":817,"x_min":31,"x_max":754,"o":"m 364 776 q 590 743 505 776 q 714 632 674 709 q 754 424 754 556 l 754 0 l 512 0 l 492 70 l 479 70 q 289 -15 419 -15 q 150 14 208 -15 q 61 95 92 43 q 31 215 31 147 q 113 393 31 330 q 374 465 196 456 l 465 470 q 444 520 460 501 q 395 547 428 539 q 308 556 363 556 q 205 548 261 556 q 100 527 149 541 l 100 745 q 230 768 160 760 q 364 776 301 776 m 391 185 q 466 203 437 185 l 466 313 l 407 310 q 320 243 320 306 q 339 200 320 215 q 391 185 357 185 m 304 1110 l 431 1297 l 676 1297 l 506 1110 l 304 1110 m 406 856 q 199 914 274 856 q 111 1075 124 972 l 287 1075 q 324 1013 295 1034 q 406 992 353 992 q 488 1013 459 992 q 526 1075 517 1034 l 701 1075 q 614 914 688 972 q 406 856 539 856 z "},"ặ":{"ha":817,"x_min":31,"x_max":754,"o":"m 364 776 q 590 743 505 776 q 714 632 674 709 q 754 424 754 556 l 754 0 l 512 0 l 492 70 l 479 70 q 289 -15 419 -15 q 150 14 208 -15 q 61 95 92 43 q 31 215 31 147 q 113 393 31 330 q 374 465 196 456 l 465 470 q 444 520 460 501 q 395 547 428 539 q 308 556 363 556 q 205 548 261 556 q 100 527 149 541 l 100 745 q 230 768 160 760 q 364 776 301 776 m 391 185 q 466 203 437 185 l 466 313 l 407 310 q 320 243 320 306 q 339 200 320 215 q 391 185 357 185 m 406 -347 q 293 -311 333 -347 q 254 -210 254 -274 q 293 -109 254 -145 q 406 -72 333 -72 q 519 -109 480 -72 q 558 -210 558 -145 q 519 -311 558 -274 q 406 -347 480 -347 m 406 853 q 204 918 277 853 q 124 1108 131 983 l 298 1108 q 330 1024 303 1051 q 406 997 356 997 q 483 1024 456 997 q 515 1108 510 1051 l 689 1108 q 609 918 682 983 q 406 853 535 853 z "},"ằ":{"ha":817,"x_min":31,"x_max":754,"o":"m 364 776 q 590 743 505 776 q 714 632 674 709 q 754 424 754 556 l 754 0 l 512 0 l 492 70 l 479 70 q 289 -15 419 -15 q 150 14 208 -15 q 61 95 92 43 q 31 215 31 147 q 113 393 31 330 q 374 465 196 456 l 465 470 q 444 520 460 501 q 395 547 428 539 q 308 556 363 556 q 205 548 261 556 q 100 527 149 541 l 100 745 q 230 768 160 760 q 364 776 301 776 m 391 185 q 466 203 437 185 l 466 313 l 407 310 q 320 243 320 306 q 339 200 320 215 q 391 185 357 185 m 307 1110 l 137 1297 l 381 1297 l 508 1110 l 307 1110 m 406 856 q 199 914 274 856 q 111 1075 124 972 l 287 1075 q 324 1013 295 1034 q 406 992 353 992 q 488 1013 459 992 q 526 1075 517 1034 l 701 1075 q 614 914 688 972 q 406 856 539 856 z "},"ẳ":{"ha":817,"x_min":31,"x_max":754,"o":"m 364 776 q 590 743 505 776 q 714 632 674 709 q 754 424 754 556 l 754 0 l 512 0 l 492 70 l 479 70 q 289 -15 419 -15 q 150 14 208 -15 q 61 95 92 43 q 31 215 31 147 q 113 393 31 330 q 374 465 196 456 l 465 470 q 444 520 460 501 q 395 547 428 539 q 308 556 363 556 q 205 548 261 556 q 100 527 149 541 l 100 745 q 230 768 160 760 q 364 776 301 776 m 391 185 q 466 203 437 185 l 466 313 l 407 310 q 320 243 320 306 q 339 200 320 215 q 391 185 357 185 m 336 1110 q 359 1153 338 1138 q 415 1183 379 1168 q 442 1196 433 1191 q 451 1208 451 1201 q 378 1226 451 1226 q 246 1215 312 1226 l 246 1301 q 321 1311 276 1308 q 402 1315 366 1315 q 553 1294 505 1315 q 601 1227 601 1272 q 582 1186 601 1201 q 529 1153 564 1170 q 491 1131 503 1140 q 476 1110 478 1122 l 336 1110 m 406 856 q 199 914 274 856 q 111 1075 124 972 l 287 1075 q 324 1013 295 1034 q 406 992 353 992 q 488 1013 459 992 q 526 1075 517 1034 l 701 1075 q 614 914 688 972 q 406 856 539 856 z "},"ẵ":{"ha":817,"x_min":31,"x_max":754,"o":"m 364 776 q 590 743 505 776 q 714 632 674 709 q 754 424 754 556 l 754 0 l 512 0 l 492 70 l 479 70 q 289 -15 419 -15 q 150 14 208 -15 q 61 95 92 43 q 31 215 31 147 q 113 393 31 330 q 374 465 196 456 l 465 470 q 444 520 460 501 q 395 547 428 539 q 308 556 363 556 q 205 548 261 556 q 100 527 149 541 l 100 745 q 230 768 160 760 q 364 776 301 776 m 391 185 q 466 203 437 185 l 466 313 l 407 310 q 320 243 320 306 q 339 200 320 215 q 391 185 357 185 m 539 1108 q 470 1114 502 1108 q 394 1132 438 1120 q 326 1148 354 1142 q 268 1153 299 1153 q 186 1143 222 1153 q 111 1112 150 1133 l 111 1251 q 182 1286 144 1275 q 274 1297 219 1297 q 341 1291 310 1297 q 419 1273 372 1285 q 488 1256 460 1262 q 544 1251 515 1251 q 627 1261 591 1251 q 701 1292 663 1271 l 701 1153 q 632 1119 669 1129 q 539 1108 594 1108 m 406 856 q 199 914 274 856 q 111 1075 124 972 l 287 1075 q 324 1013 295 1034 q 406 992 353 992 q 488 1013 459 992 q 526 1075 517 1034 l 701 1075 q 614 914 688 972 q 406 856 539 856 z "},"â":{"ha":817,"x_min":31,"x_max":754,"o":"m 364 776 q 590 743 505 776 q 714 632 674 709 q 754 424 754 556 l 754 0 l 512 0 l 492 70 l 479 70 q 289 -15 419 -15 q 150 14 208 -15 q 61 95 92 43 q 31 215 31 147 q 113 393 31 330 q 374 465 196 456 l 465 470 q 444 520 460 501 q 395 547 428 539 q 308 556 363 556 q 205 548 261 556 q 100 527 149 541 l 100 745 q 230 768 160 760 q 364 776 301 776 m 391 185 q 466 203 437 185 l 466 313 l 407 310 q 320 243 320 306 q 339 200 320 215 q 391 185 357 185 m 690 847 l 485 847 l 406 989 l 327 847 l 122 847 l 288 1122 l 524 1122 l 690 847 z "},"ấ":{"ha":817,"x_min":31,"x_max":945,"o":"m 364 776 q 590 743 505 776 q 714 632 674 709 q 754 424 754 556 l 754 0 l 512 0 l 492 70 l 479 70 q 289 -15 419 -15 q 150 14 208 -15 q 61 95 92 43 q 31 215 31 147 q 113 393 31 330 q 374 465 196 456 l 465 470 q 444 520 460 501 q 395 547 428 539 q 308 556 363 556 q 205 548 261 556 q 100 527 149 541 l 100 745 q 230 768 160 760 q 364 776 301 776 m 391 185 q 466 203 437 185 l 466 313 l 407 310 q 320 243 320 306 q 339 200 320 215 q 391 185 357 185 m 700 1297 l 945 1297 l 775 1110 l 573 1110 l 700 1297 m 288 1122 l 524 1122 l 690 847 l 485 847 l 406 989 l 327 847 l 122 847 l 288 1122 z "},"ậ":{"ha":817,"x_min":31,"x_max":754,"o":"m 364 776 q 590 743 505 776 q 714 632 674 709 q 754 424 754 556 l 754 0 l 512 0 l 492 70 l 479 70 q 289 -15 419 -15 q 150 14 208 -15 q 61 95 92 43 q 31 215 31 147 q 113 393 31 330 q 374 465 196 456 l 465 470 q 444 520 460 501 q 395 547 428 539 q 308 556 363 556 q 205 548 261 556 q 100 527 149 541 l 100 745 q 230 768 160 760 q 364 776 301 776 m 391 185 q 466 203 437 185 l 466 313 l 407 310 q 320 243 320 306 q 339 200 320 215 q 391 185 357 185 m 406 -347 q 293 -311 333 -347 q 254 -210 254 -274 q 293 -109 254 -145 q 406 -72 333 -72 q 519 -109 480 -72 q 558 -210 558 -145 q 519 -311 558 -274 q 406 -347 480 -347 m 690 847 l 485 847 l 406 989 l 327 847 l 122 847 l 288 1122 l 524 1122 l 690 847 z "},"ầ":{"ha":817,"x_min":31,"x_max":803,"o":"m 364 776 q 590 743 505 776 q 714 632 674 709 q 754 424 754 556 l 754 0 l 512 0 l 492 70 l 479 70 q 289 -15 419 -15 q 150 14 208 -15 q 61 95 92 43 q 31 215 31 147 q 113 393 31 330 q 374 465 196 456 l 465 470 q 444 520 460 501 q 395 547 428 539 q 308 556 363 556 q 205 548 261 556 q 100 527 149 541 l 100 745 q 230 768 160 760 q 364 776 301 776 m 391 185 q 466 203 437 185 l 466 313 l 407 310 q 320 243 320 306 q 339 200 320 215 q 391 185 357 185 m 803 1110 l 601 1110 l 431 1297 l 676 1297 l 803 1110 m 288 1122 l 524 1122 l 690 847 l 485 847 l 406 989 l 327 847 l 122 847 l 288 1122 z "},"ẩ":{"ha":817,"x_min":31,"x_max":818,"o":"m 364 776 q 590 743 505 776 q 714 632 674 709 q 754 424 754 556 l 754 0 l 512 0 l 492 70 l 479 70 q 289 -15 419 -15 q 150 14 208 -15 q 61 95 92 43 q 31 215 31 147 q 113 393 31 330 q 374 465 196 456 l 465 470 q 444 520 460 501 q 395 547 428 539 q 308 556 363 556 q 205 548 261 556 q 100 527 149 541 l 100 745 q 230 768 160 760 q 364 776 301 776 m 391 185 q 466 203 437 185 l 466 313 l 407 310 q 320 243 320 306 q 339 200 320 215 q 391 185 357 185 m 633 1315 q 774 1295 730 1315 q 818 1228 818 1274 q 803 1193 818 1206 q 760 1164 788 1179 q 720 1139 734 1150 q 703 1110 706 1127 l 572 1110 q 585 1147 574 1132 q 611 1170 597 1162 q 647 1189 626 1179 q 669 1200 663 1196 q 675 1208 675 1203 q 659 1223 675 1219 q 610 1228 644 1228 q 488 1217 545 1228 l 488 1301 q 557 1311 514 1308 q 633 1315 599 1315 m 288 1122 l 524 1122 l 690 847 l 485 847 l 406 989 l 327 847 l 122 847 l 288 1122 z "},"ẫ":{"ha":817,"x_min":31,"x_max":754,"o":"m 364 776 q 590 743 505 776 q 714 632 674 709 q 754 424 754 556 l 754 0 l 512 0 l 492 70 l 479 70 q 289 -15 419 -15 q 150 14 208 -15 q 61 95 92 43 q 31 215 31 147 q 113 393 31 330 q 374 465 196 456 l 465 470 q 444 520 460 501 q 395 547 428 539 q 308 556 363 556 q 205 548 261 556 q 100 527 149 541 l 100 745 q 230 768 160 760 q 364 776 301 776 m 391 185 q 466 203 437 185 l 466 313 l 407 310 q 320 243 320 306 q 339 200 320 215 q 391 185 357 185 m 534 1108 q 466 1114 498 1108 q 394 1132 435 1120 q 329 1148 356 1142 q 273 1153 302 1153 q 194 1143 228 1153 q 122 1112 159 1133 l 122 1251 q 190 1286 153 1275 q 278 1297 227 1297 q 345 1291 314 1297 q 419 1273 376 1285 q 485 1256 459 1262 q 540 1251 511 1251 q 619 1261 584 1251 q 691 1292 653 1271 l 691 1153 q 623 1119 660 1129 q 534 1108 586 1108 m 712 849 l 496 849 l 406 964 l 317 849 l 101 849 l 283 1068 l 529 1068 l 712 849 z "},"ȁ":{"ha":817,"x_min":22,"x_max":754,"o":"m 364 776 q 590 743 505 776 q 714 632 674 709 q 754 424 754 556 l 754 0 l 512 0 l 492 70 l 479 70 q 289 -15 419 -15 q 150 14 208 -15 q 61 95 92 43 q 31 215 31 147 q 113 393 31 330 q 374 465 196 456 l 465 470 q 444 520 460 501 q 395 547 428 539 q 308 556 363 556 q 205 548 261 556 q 100 527 149 541 l 100 745 q 230 768 160 760 q 364 776 301 776 m 391 185 q 466 203 437 185 l 466 313 l 407 310 q 320 243 320 306 q 339 200 320 215 q 391 185 357 185 m 142 847 l 22 1122 l 251 1122 l 357 847 l 142 847 m 456 847 l 336 1122 l 566 1122 l 671 847 l 456 847 z "},"ä":{"ha":817,"x_min":31,"x_max":754,"o":"m 364 776 q 590 743 505 776 q 714 632 674 709 q 754 424 754 556 l 754 0 l 512 0 l 492 70 l 479 70 q 289 -15 419 -15 q 150 14 208 -15 q 61 95 92 43 q 31 215 31 147 q 113 393 31 330 q 374 465 196 456 l 465 470 q 444 520 460 501 q 395 547 428 539 q 308 556 363 556 q 205 548 261 556 q 100 527 149 541 l 100 745 q 230 768 160 760 q 364 776 301 776 m 391 185 q 466 203 437 185 l 466 313 l 407 310 q 320 243 320 306 q 339 200 320 215 q 391 185 357 185 m 223 844 q 110 881 149 844 q 70 985 70 918 q 110 1089 70 1051 q 223 1126 149 1126 q 336 1089 297 1126 q 375 985 375 1051 q 336 881 375 918 q 223 844 297 844 m 590 844 q 477 881 516 844 q 438 985 438 918 q 477 1089 438 1051 q 590 1126 516 1126 q 703 1089 663 1126 q 742 985 742 1051 q 703 881 742 918 q 590 844 663 844 z "},"ạ":{"ha":817,"x_min":31,"x_max":754,"o":"m 364 776 q 590 743 505 776 q 714 632 674 709 q 754 424 754 556 l 754 0 l 512 0 l 492 70 l 479 70 q 289 -15 419 -15 q 150 14 208 -15 q 61 95 92 43 q 31 215 31 147 q 113 393 31 330 q 374 465 196 456 l 465 470 q 444 520 460 501 q 395 547 428 539 q 308 556 363 556 q 205 548 261 556 q 100 527 149 541 l 100 745 q 230 768 160 760 q 364 776 301 776 m 391 185 q 466 203 437 185 l 466 313 l 407 310 q 320 243 320 306 q 339 200 320 215 q 391 185 357 185 m 406 -347 q 293 -311 333 -347 q 254 -210 254 -274 q 293 -109 254 -145 q 406 -72 333 -72 q 519 -109 480 -72 q 558 -210 558 -145 q 519 -311 558 -274 q 406 -347 480 -347 z "},"à":{"ha":817,"x_min":31,"x_max":754,"o":"m 364 776 q 590 743 505 776 q 714 632 674 709 q 754 424 754 556 l 754 0 l 512 0 l 492 70 l 479 70 q 289 -15 419 -15 q 150 14 208 -15 q 61 95 92 43 q 31 215 31 147 q 113 393 31 330 q 374 465 196 456 l 465 470 q 444 520 460 501 q 395 547 428 539 q 308 556 363 556 q 205 548 261 556 q 100 527 149 541 l 100 745 q 230 768 160 760 q 364 776 301 776 m 391 185 q 466 203 437 185 l 466 313 l 407 310 q 320 243 320 306 q 339 200 320 215 q 391 185 357 185 m 272 847 l 67 1122 l 379 1122 l 541 847 l 272 847 z "},"ả":{"ha":817,"x_min":31,"x_max":754,"o":"m 364 776 q 590 743 505 776 q 714 632 674 709 q 754 424 754 556 l 754 0 l 512 0 l 492 70 l 479 70 q 289 -15 419 -15 q 150 14 208 -15 q 61 95 92 43 q 31 215 31 147 q 113 393 31 330 q 374 465 196 456 l 465 470 q 444 520 460 501 q 395 547 428 539 q 308 556 363 556 q 205 548 261 556 q 100 527 149 541 l 100 745 q 230 768 160 760 q 364 776 301 776 m 391 185 q 466 203 437 185 l 466 313 l 407 310 q 320 243 320 306 q 339 200 320 215 q 391 185 357 185 m 336 847 q 357 912 338 888 q 405 958 375 936 q 430 980 423 972 q 438 999 438 988 q 424 1018 438 1013 q 378 1024 410 1024 q 260 1008 322 1024 l 260 1113 q 328 1126 288 1121 q 402 1131 368 1131 q 542 1103 497 1131 q 587 1018 587 1076 q 578 974 587 992 q 559 944 570 956 q 528 917 547 933 q 491 884 503 899 q 476 847 479 870 l 336 847 z "},"ȃ":{"ha":817,"x_min":31,"x_max":754,"o":"m 364 776 q 590 743 505 776 q 714 632 674 709 q 754 424 754 556 l 754 0 l 512 0 l 492 70 l 479 70 q 289 -15 419 -15 q 150 14 208 -15 q 61 95 92 43 q 31 215 31 147 q 113 393 31 330 q 374 465 196 456 l 465 470 q 444 520 460 501 q 395 547 428 539 q 308 556 363 556 q 205 548 261 556 q 100 527 149 541 l 100 745 q 230 768 160 760 q 364 776 301 776 m 391 185 q 466 203 437 185 l 466 313 l 407 310 q 320 243 320 306 q 339 200 320 215 q 391 185 357 185 m 124 867 q 203 1058 131 993 q 406 1122 276 1122 q 608 1057 535 1122 q 689 867 682 992 l 515 867 q 483 953 510 925 q 406 981 456 981 q 328 953 354 981 q 298 867 303 926 l 124 867 z "},"ā":{"ha":817,"x_min":31,"x_max":754,"o":"m 364 776 q 590 743 505 776 q 714 632 674 709 q 754 424 754 556 l 754 0 l 512 0 l 492 70 l 479 70 q 289 -15 419 -15 q 150 14 208 -15 q 61 95 92 43 q 31 215 31 147 q 113 393 31 330 q 374 465 196 456 l 465 470 q 444 520 460 501 q 395 547 428 539 q 308 556 363 556 q 205 548 261 556 q 100 527 149 541 l 100 745 q 230 768 160 760 q 364 776 301 776 m 391 185 q 466 203 437 185 l 466 313 l 407 310 q 320 243 320 306 q 339 200 320 215 q 391 185 357 185 m 138 899 l 138 1072 l 674 1072 l 674 899 l 138 899 z "},"ą":{"ha":817,"x_min":31,"x_max":761,"o":"m 679 -208 q 761 -191 717 -208 l 761 -299 q 702 -314 731 -309 q 635 -319 674 -319 q 484 -278 536 -319 q 433 -164 433 -237 q 457 -73 433 -114 q 537 0 481 -33 l 512 0 l 492 70 l 479 70 q 289 -15 419 -15 q 150 14 208 -15 q 61 95 92 43 q 31 215 31 147 q 113 393 31 330 q 374 465 196 456 l 465 470 q 444 520 460 501 q 395 547 428 539 q 308 556 363 556 q 205 548 261 556 q 100 527 149 541 l 100 745 q 230 768 160 760 q 364 776 301 776 q 590 743 505 776 q 714 632 674 709 q 754 424 754 556 l 754 0 q 631 -67 665 -33 q 597 -144 597 -101 q 618 -191 597 -174 q 679 -208 639 -208 m 391 185 q 466 203 437 185 l 466 313 l 407 310 q 320 243 320 306 q 339 200 320 215 q 391 185 357 185 z "},"å":{"ha":817,"x_min":31,"x_max":754,"o":"m 364 776 q 590 743 505 776 q 714 632 674 709 q 754 424 754 556 l 754 0 l 512 0 l 492 70 l 479 70 q 289 -15 419 -15 q 150 14 208 -15 q 61 95 92 43 q 31 215 31 147 q 113 393 31 330 q 374 465 196 456 l 465 470 q 444 520 460 501 q 395 547 428 539 q 308 556 363 556 q 205 548 261 556 q 100 527 149 541 l 100 745 q 230 768 160 760 q 364 776 301 776 m 391 185 q 466 203 437 185 l 466 313 l 407 310 q 320 243 320 306 q 339 200 320 215 q 391 185 357 185 m 406 843 q 325 863 361 843 q 268 917 289 883 q 248 996 248 952 q 268 1074 248 1040 q 325 1129 289 1109 q 406 1149 361 1149 q 488 1129 451 1149 q 544 1074 524 1109 q 565 996 565 1040 q 544 917 565 952 q 488 863 524 883 q 406 843 451 843 m 406 939 q 445 955 431 939 q 460 996 460 970 q 445 1037 460 1022 q 406 1053 431 1053 q 367 1037 382 1053 q 352 996 352 1022 q 367 955 352 970 q 406 939 382 939 z "},"ǻ":{"ha":817,"x_min":31,"x_max":754,"o":"m 364 776 q 590 743 505 776 q 714 632 674 709 q 754 424 754 556 l 754 0 l 512 0 l 492 70 l 479 70 q 289 -15 419 -15 q 150 14 208 -15 q 61 95 92 43 q 31 215 31 147 q 113 393 31 330 q 374 465 196 456 l 465 470 q 444 520 460 501 q 395 547 428 539 q 308 556 363 556 q 205 548 261 556 q 100 527 149 541 l 100 745 q 230 768 160 760 q 364 776 301 776 m 391 185 q 466 203 437 185 l 466 313 l 407 310 q 320 243 320 306 q 339 200 320 215 q 391 185 357 185 m 548 1067 q 565 996 565 1036 q 544 917 565 952 q 488 863 524 883 q 406 843 451 843 q 325 863 361 843 q 268 917 289 883 q 248 996 248 952 q 268 1074 248 1040 q 325 1129 289 1109 q 406 1149 361 1149 q 421 1148 416 1149 l 488 1236 l 694 1236 l 548 1067 m 406 939 q 445 955 431 939 q 460 996 460 970 q 445 1037 460 1022 q 406 1053 431 1053 q 367 1037 382 1053 q 352 996 352 1022 q 367 955 352 970 q 406 939 382 939 z "},"ã":{"ha":817,"x_min":31,"x_max":754,"o":"m 364 776 q 590 743 505 776 q 714 632 674 709 q 754 424 754 556 l 754 0 l 512 0 l 492 70 l 479 70 q 289 -15 419 -15 q 150 14 208 -15 q 61 95 92 43 q 31 215 31 147 q 113 393 31 330 q 374 465 196 456 l 465 470 q 444 520 460 501 q 395 547 428 539 q 308 556 363 556 q 205 548 261 556 q 100 527 149 541 l 100 745 q 230 768 160 760 q 364 776 301 776 m 391 185 q 466 203 437 185 l 466 313 l 407 310 q 320 243 320 306 q 339 200 320 215 q 391 185 357 185 m 523 865 q 462 874 491 865 q 394 901 433 883 q 332 926 356 918 q 284 933 309 933 q 208 918 242 933 q 138 870 174 903 l 138 1048 q 206 1092 169 1078 q 290 1106 242 1106 q 350 1097 322 1106 q 419 1069 379 1088 q 480 1045 457 1053 q 528 1038 503 1038 q 604 1052 570 1038 q 674 1101 638 1067 l 674 923 q 607 878 643 892 q 523 865 571 865 z "},"æ":{"ha":1225,"x_min":31,"x_max":1196,"o":"m 1196 299 l 756 299 q 778 242 760 263 q 839 213 797 222 q 956 204 881 204 q 1151 224 1042 204 l 1151 8 q 914 -15 1031 -15 q 708 9 793 -15 q 569 84 622 33 q 317 -15 472 -15 q 159 14 223 -15 q 63 95 94 42 q 31 217 31 147 q 115 397 31 333 q 375 462 200 462 l 468 462 q 448 517 465 497 q 397 547 431 538 q 306 556 363 556 q 205 548 261 556 q 101 527 149 540 l 101 745 q 351 776 225 776 q 516 756 448 776 q 626 694 583 736 q 728 755 670 734 q 856 776 786 776 q 1040 729 963 776 q 1156 591 1116 682 q 1196 373 1196 501 l 1196 299 m 839 596 q 776 566 796 596 q 754 462 756 536 l 923 462 q 902 566 922 536 q 839 596 882 596 m 320 241 q 339 200 320 215 q 394 186 358 186 q 444 193 422 186 q 490 217 467 200 q 473 306 476 263 l 407 306 q 320 241 320 306 z "},"ǽ":{"ha":1225,"x_min":31,"x_max":1196,"o":"m 1196 299 l 756 299 q 778 242 760 263 q 839 213 797 222 q 956 204 881 204 q 1151 224 1042 204 l 1151 8 q 914 -15 1031 -15 q 708 9 793 -15 q 569 84 622 33 q 317 -15 472 -15 q 159 14 223 -15 q 63 95 94 42 q 31 217 31 147 q 115 397 31 333 q 375 462 200 462 l 468 462 q 448 517 465 497 q 397 547 431 538 q 306 556 363 556 q 205 548 261 556 q 101 527 149 540 l 101 745 q 351 776 225 776 q 516 756 448 776 q 626 694 583 736 q 728 755 670 734 q 856 776 786 776 q 1040 729 963 776 q 1156 591 1116 682 q 1196 373 1196 501 l 1196 299 m 839 596 q 776 566 796 596 q 754 462 756 536 l 923 462 q 902 566 922 536 q 839 596 882 596 m 320 241 q 339 200 320 215 q 394 186 358 186 q 444 193 422 186 q 490 217 467 200 q 473 306 476 263 l 407 306 q 320 241 320 306 m 481 847 l 643 1122 l 955 1122 l 751 847 l 481 847 z "},"b":{"ha":901,"x_min":67,"x_max":865,"o":"m 403 -15 q 228 -3 316 -15 q 67 33 140 9 l 67 1122 l 363 1122 l 363 692 l 376 692 q 457 755 409 734 q 565 776 504 776 q 716 734 648 776 q 824 607 784 692 q 865 398 865 522 q 750 91 865 197 q 403 -15 635 -15 m 426 206 q 534 244 499 206 q 568 375 568 283 q 538 501 568 465 q 446 537 508 537 q 363 520 400 537 l 363 213 q 426 206 393 206 z "},"c":{"ha":708,"x_min":37,"x_max":672,"o":"m 472 -15 q 148 85 260 -15 q 37 380 37 185 q 155 676 37 576 q 491 776 272 776 q 672 760 590 776 l 672 530 q 535 541 595 541 q 387 502 433 541 q 341 382 341 464 q 385 259 341 297 q 519 220 429 220 q 588 225 553 220 q 672 242 622 231 l 672 12 q 578 -8 630 -1 q 472 -15 526 -15 z "},"ć":{"ha":708,"x_min":37,"x_max":723,"o":"m 472 -15 q 148 85 260 -15 q 37 380 37 185 q 155 676 37 576 q 491 776 272 776 q 672 760 590 776 l 672 530 q 535 541 595 541 q 387 502 433 541 q 341 382 341 464 q 385 259 341 297 q 519 220 429 220 q 588 225 553 220 q 672 242 622 231 l 672 12 q 578 -8 630 -1 q 472 -15 526 -15 m 249 847 l 411 1122 l 723 1122 l 519 847 l 249 847 z "},"č":{"ha":708,"x_min":37,"x_max":672,"o":"m 472 -15 q 148 85 260 -15 q 37 380 37 185 q 155 676 37 576 q 491 776 272 776 q 672 760 590 776 l 672 530 q 535 541 595 541 q 387 502 433 541 q 341 382 341 464 q 385 259 341 297 q 519 220 429 220 q 588 225 553 220 q 672 242 622 231 l 672 12 q 578 -8 630 -1 q 472 -15 526 -15 m 463 1122 l 668 1122 l 502 847 l 266 847 l 100 1122 l 305 1122 l 384 981 l 463 1122 z "},"ç":{"ha":708,"x_min":37,"x_max":672,"o":"m 535 541 q 387 502 433 541 q 341 382 341 464 q 385 259 341 297 q 519 220 429 220 q 588 225 553 220 q 672 242 622 231 l 672 12 q 581 -8 631 -1 q 477 -15 531 -15 l 477 -53 q 564 -99 535 -65 q 594 -183 594 -132 q 544 -284 594 -248 q 394 -319 494 -319 q 263 -299 325 -319 l 263 -194 q 321 -208 289 -203 q 379 -213 353 -213 q 428 -203 413 -213 q 444 -170 444 -194 q 378 -126 444 -126 l 342 -126 l 342 -4 q 115 120 192 24 q 37 380 37 217 q 155 676 37 576 q 491 776 272 776 q 672 760 590 776 l 672 530 q 535 541 595 541 z "},"ḉ":{"ha":708,"x_min":37,"x_max":723,"o":"m 723 1122 l 519 847 l 249 847 l 411 1122 l 723 1122 m 37 380 q 155 676 37 576 q 491 776 272 776 q 672 760 590 776 l 672 530 q 535 541 595 541 q 387 502 433 541 q 341 382 341 464 q 385 259 341 297 q 519 220 429 220 q 588 225 553 220 q 672 242 622 231 l 672 12 q 581 -8 631 -1 q 477 -15 531 -15 l 477 -53 q 564 -99 535 -65 q 594 -183 594 -132 q 544 -284 594 -248 q 394 -319 494 -319 q 263 -299 325 -319 l 263 -194 q 321 -208 289 -203 q 379 -213 353 -213 q 428 -203 413 -213 q 444 -170 444 -194 q 378 -126 444 -126 l 342 -126 l 342 -4 q 115 120 192 24 q 37 380 37 217 z "},"ĉ":{"ha":708,"x_min":37,"x_max":672,"o":"m 472 -15 q 148 85 260 -15 q 37 380 37 185 q 155 676 37 576 q 491 776 272 776 q 672 760 590 776 l 672 530 q 535 541 595 541 q 387 502 433 541 q 341 382 341 464 q 385 259 341 297 q 519 220 429 220 q 588 225 553 220 q 672 242 622 231 l 672 12 q 578 -8 630 -1 q 472 -15 526 -15 m 668 847 l 463 847 l 384 989 l 305 847 l 100 847 l 266 1122 l 502 1122 l 668 847 z "},"ċ":{"ha":708,"x_min":37,"x_max":672,"o":"m 472 -15 q 148 85 260 -15 q 37 380 37 185 q 155 676 37 576 q 491 776 272 776 q 672 760 590 776 l 672 530 q 535 541 595 541 q 387 502 433 541 q 341 382 341 464 q 385 259 341 297 q 519 220 429 220 q 588 225 553 220 q 672 242 622 231 l 672 12 q 578 -8 630 -1 q 472 -15 526 -15 m 384 839 q 207 985 207 839 q 384 1131 207 1131 q 561 985 561 1131 q 384 839 561 839 z "},"d":{"ha":901,"x_min":37,"x_max":834,"o":"m 358 -14 q 196 27 269 -14 q 80 153 124 68 q 37 366 37 238 q 86 589 37 497 q 234 729 136 681 q 474 777 331 777 q 538 774 499 777 l 538 1122 l 834 1122 l 834 0 l 586 0 l 569 78 l 556 78 q 474 10 524 35 q 358 -14 424 -14 m 450 225 q 498 231 474 225 q 538 248 521 237 l 538 551 q 474 556 502 556 q 367 518 401 556 q 333 388 333 479 q 363 261 333 298 q 450 225 393 225 z "},"ð":{"ha":880,"x_min":37,"x_max":845,"o":"m 686 906 q 803 675 761 797 q 845 434 845 552 q 741 94 845 205 q 440 -17 638 -17 q 223 29 314 -17 q 85 164 133 75 q 37 379 37 252 q 83 594 37 507 q 214 726 130 682 q 411 769 298 769 q 476 762 442 769 q 416 856 449 813 l 122 802 l 90 957 l 294 994 q 140 1122 222 1063 l 485 1122 q 572 1046 529 1088 l 790 1086 l 821 931 l 686 906 m 440 203 q 500 219 477 203 q 535 273 524 235 q 547 377 547 311 q 535 484 547 445 q 500 539 523 523 q 440 556 476 556 q 380 539 403 556 q 345 484 357 523 q 333 378 333 446 q 345 274 333 312 q 379 219 356 235 q 440 203 402 203 z "},"ď":{"ha":901,"x_min":37,"x_max":1089,"o":"m 358 -14 q 196 27 269 -14 q 80 153 124 68 q 37 366 37 238 q 86 589 37 497 q 234 729 136 681 q 474 777 331 777 q 538 774 499 777 l 538 1122 l 834 1122 l 834 0 l 586 0 l 569 78 l 556 78 q 474 10 524 35 q 358 -14 424 -14 m 450 225 q 498 231 474 225 q 538 248 521 237 l 538 551 q 474 556 502 556 q 367 518 401 556 q 333 388 333 479 q 363 261 333 298 q 450 225 393 225 m 873 819 q 891 968 886 899 q 897 1122 897 1036 l 1089 1122 q 1073 957 1089 1035 q 1030 819 1058 878 l 873 819 z "},"đ":{"ha":901,"x_min":37,"x_max":901,"o":"m 901 849 l 834 849 l 834 0 l 586 0 l 569 78 l 556 78 q 474 10 524 35 q 358 -14 424 -14 q 196 27 269 -14 q 80 153 124 68 q 37 366 37 238 q 86 589 37 497 q 234 729 136 681 q 474 777 331 777 q 538 774 499 777 l 538 849 l 312 849 l 312 1030 l 538 1030 l 538 1122 l 834 1122 l 834 1030 l 901 1030 l 901 849 m 538 551 q 474 556 502 556 q 367 518 401 556 q 333 388 333 479 q 363 261 333 298 q 450 225 393 225 q 498 231 474 225 q 538 248 521 237 l 538 551 z "},"ḍ":{"ha":901,"x_min":37,"x_max":834,"o":"m 358 -14 q 196 27 269 -14 q 80 153 124 68 q 37 366 37 238 q 86 589 37 497 q 234 729 136 681 q 474 777 331 777 q 538 774 499 777 l 538 1122 l 834 1122 l 834 0 l 586 0 l 569 78 l 556 78 q 474 10 524 35 q 358 -14 424 -14 m 450 225 q 498 231 474 225 q 538 248 521 237 l 538 551 q 474 556 502 556 q 367 518 401 556 q 333 388 333 479 q 363 261 333 298 q 450 225 393 225 m 459 -347 q 346 -311 385 -347 q 307 -210 307 -274 q 346 -109 307 -145 q 459 -72 385 -72 q 572 -109 533 -72 q 611 -210 611 -145 q 572 -311 611 -274 q 459 -347 533 -347 z "},"ḏ":{"ha":901,"x_min":37,"x_max":834,"o":"m 358 -14 q 196 27 269 -14 q 80 153 124 68 q 37 366 37 238 q 86 589 37 497 q 234 729 136 681 q 474 777 331 777 q 538 774 499 777 l 538 1122 l 834 1122 l 834 0 l 586 0 l 569 78 l 556 78 q 474 10 524 35 q 358 -14 424 -14 m 450 225 q 498 231 474 225 q 538 248 521 237 l 538 551 q 474 556 502 556 q 367 518 401 556 q 333 388 333 479 q 363 261 333 298 q 450 225 393 225 m 191 -292 l 191 -122 l 727 -122 l 727 -292 l 191 -292 z "},"ǳ":{"ha":1649,"x_min":37,"x_max":1616,"o":"m 358 -14 q 196 27 269 -14 q 80 153 124 68 q 37 366 37 238 q 86 589 37 497 q 234 729 136 681 q 474 777 331 777 q 538 774 499 777 l 538 1122 l 834 1122 l 834 0 l 586 0 l 569 78 l 556 78 q 474 10 524 35 q 358 -14 424 -14 m 450 225 q 498 231 474 225 q 538 248 521 237 l 538 551 q 474 556 502 556 q 367 518 401 556 q 333 388 333 479 q 363 261 333 298 q 450 225 393 225 m 1313 230 l 1616 230 l 1616 0 l 948 0 l 948 188 l 1244 534 l 955 534 l 955 764 l 1609 764 l 1609 576 l 1313 230 z "},"ǆ":{"ha":1649,"x_min":37,"x_max":1616,"o":"m 358 -14 q 196 27 269 -14 q 80 153 124 68 q 37 366 37 238 q 86 589 37 497 q 234 729 136 681 q 474 777 331 777 q 538 774 499 777 l 538 1122 l 834 1122 l 834 0 l 586 0 l 569 78 l 556 78 q 474 10 524 35 q 358 -14 424 -14 m 450 225 q 498 231 474 225 q 538 248 521 237 l 538 551 q 474 556 502 556 q 367 518 401 556 q 333 388 333 479 q 363 261 333 298 q 450 225 393 225 m 1313 230 l 1616 230 l 1616 0 l 948 0 l 948 188 l 1244 534 l 955 534 l 955 764 l 1609 764 l 1609 576 l 1313 230 m 1361 1122 l 1566 1122 l 1400 847 l 1164 847 l 998 1122 l 1203 1122 l 1282 981 l 1361 1122 z "},"e":{"ha":808,"x_min":37,"x_max":778,"o":"m 778 299 l 332 299 q 356 242 336 263 q 418 213 375 222 q 538 204 460 204 q 733 224 624 204 l 733 8 q 494 -15 613 -15 q 233 27 333 -15 q 84 156 132 69 q 37 383 37 243 q 81 593 37 505 q 211 729 125 681 q 422 776 298 776 q 687 671 597 776 q 778 373 778 565 l 778 299 m 418 596 q 369 583 388 596 q 341 542 351 571 q 331 462 331 513 l 505 462 q 495 542 504 513 q 467 583 485 571 q 418 596 449 596 z "},"é":{"ha":808,"x_min":37,"x_max":778,"o":"m 778 299 l 332 299 q 356 242 336 263 q 418 213 375 222 q 538 204 460 204 q 733 224 624 204 l 733 8 q 494 -15 613 -15 q 233 27 333 -15 q 84 156 132 69 q 37 383 37 243 q 81 593 37 505 q 211 729 125 681 q 422 776 298 776 q 687 671 597 776 q 778 373 778 565 l 778 299 m 418 596 q 369 583 388 596 q 341 542 351 571 q 331 462 331 513 l 505 462 q 495 542 504 513 q 467 583 485 571 q 418 596 449 596 m 281 847 l 442 1122 l 754 1122 l 550 847 l 281 847 z "},"ĕ":{"ha":808,"x_min":37,"x_max":778,"o":"m 778 299 l 332 299 q 356 242 336 263 q 418 213 375 222 q 538 204 460 204 q 733 224 624 204 l 733 8 q 494 -15 613 -15 q 233 27 333 -15 q 84 156 132 69 q 37 383 37 243 q 81 593 37 505 q 211 729 125 681 q 422 776 298 776 q 687 671 597 776 q 778 373 778 565 l 778 299 m 418 596 q 369 583 388 596 q 341 542 351 571 q 331 462 331 513 l 505 462 q 495 542 504 513 q 467 583 485 571 q 418 596 449 596 m 415 853 q 213 918 286 853 q 133 1108 140 983 l 307 1108 q 339 1024 312 1051 q 415 997 365 997 q 492 1024 465 997 q 524 1108 519 1051 l 698 1108 q 618 918 691 983 q 415 853 544 853 z "},"ě":{"ha":808,"x_min":37,"x_max":778,"o":"m 778 299 l 332 299 q 356 242 336 263 q 418 213 375 222 q 538 204 460 204 q 733 224 624 204 l 733 8 q 494 -15 613 -15 q 233 27 333 -15 q 84 156 132 69 q 37 383 37 243 q 81 593 37 505 q 211 729 125 681 q 422 776 298 776 q 687 671 597 776 q 778 373 778 565 l 778 299 m 418 596 q 369 583 388 596 q 341 542 351 571 q 331 462 331 513 l 505 462 q 495 542 504 513 q 467 583 485 571 q 418 596 449 596 m 494 1122 l 699 1122 l 533 847 l 297 847 l 131 1122 l 336 1122 l 415 981 l 494 1122 z "},"ḝ":{"ha":808,"x_min":37,"x_max":778,"o":"m 415 853 q 213 918 286 853 q 133 1108 140 983 l 307 1108 q 339 1024 312 1051 q 415 997 365 997 q 492 1024 465 997 q 524 1108 519 1051 l 698 1108 q 618 918 691 983 q 415 853 544 853 m 778 299 l 332 299 q 356 242 336 263 q 418 213 375 222 q 538 204 460 204 q 733 224 624 204 l 733 8 q 494 -15 613 -15 l 492 -15 l 492 -53 q 579 -99 549 -65 q 608 -183 608 -132 q 558 -284 608 -248 q 409 -319 508 -319 q 278 -299 340 -319 l 278 -194 q 336 -208 303 -203 q 394 -213 368 -213 q 443 -203 427 -213 q 459 -170 459 -194 q 393 -126 459 -126 l 357 -126 l 357 -6 q 114 112 190 18 q 37 383 37 206 q 81 593 37 505 q 211 729 125 681 q 422 776 298 776 q 687 671 597 776 q 778 373 778 565 l 778 299 m 418 596 q 369 583 388 596 q 341 542 351 571 q 331 462 331 513 l 505 462 q 495 542 504 513 q 467 583 485 571 q 418 596 449 596 z "},"ê":{"ha":808,"x_min":37,"x_max":778,"o":"m 778 299 l 332 299 q 356 242 336 263 q 418 213 375 222 q 538 204 460 204 q 733 224 624 204 l 733 8 q 494 -15 613 -15 q 233 27 333 -15 q 84 156 132 69 q 37 383 37 243 q 81 593 37 505 q 211 729 125 681 q 422 776 298 776 q 687 671 597 776 q 778 373 778 565 l 778 299 m 418 596 q 369 583 388 596 q 341 542 351 571 q 331 462 331 513 l 505 462 q 495 542 504 513 q 467 583 485 571 q 418 596 449 596 m 699 847 l 494 847 l 415 989 l 336 847 l 131 847 l 297 1122 l 533 1122 l 699 847 z "},"ế":{"ha":808,"x_min":37,"x_max":954,"o":"m 778 299 l 332 299 q 356 242 336 263 q 418 213 375 222 q 538 204 460 204 q 733 224 624 204 l 733 8 q 494 -15 613 -15 q 233 27 333 -15 q 84 156 132 69 q 37 383 37 243 q 81 593 37 505 q 211 729 125 681 q 422 776 298 776 q 687 671 597 776 q 778 373 778 565 l 778 299 m 418 596 q 369 583 388 596 q 341 542 351 571 q 331 462 331 513 l 505 462 q 495 542 504 513 q 467 583 485 571 q 418 596 449 596 m 709 1297 l 954 1297 l 784 1110 l 582 1110 l 709 1297 m 297 1122 l 533 1122 l 699 847 l 494 847 l 415 989 l 336 847 l 131 847 l 297 1122 z "},"ệ":{"ha":808,"x_min":37,"x_max":778,"o":"m 778 299 l 332 299 q 356 242 336 263 q 418 213 375 222 q 538 204 460 204 q 733 224 624 204 l 733 8 q 494 -15 613 -15 q 233 27 333 -15 q 84 156 132 69 q 37 383 37 243 q 81 593 37 505 q 211 729 125 681 q 422 776 298 776 q 687 671 597 776 q 778 373 778 565 l 778 299 m 418 596 q 369 583 388 596 q 341 542 351 571 q 331 462 331 513 l 505 462 q 495 542 504 513 q 467 583 485 571 q 418 596 449 596 m 415 -347 q 302 -311 342 -347 q 263 -210 263 -274 q 302 -109 263 -145 q 415 -72 342 -72 q 528 -109 489 -72 q 567 -210 567 -145 q 528 -311 567 -274 q 415 -347 489 -347 m 699 847 l 494 847 l 415 989 l 336 847 l 131 847 l 297 1122 l 533 1122 l 699 847 z "},"ề":{"ha":808,"x_min":37,"x_max":812,"o":"m 778 299 l 332 299 q 356 242 336 263 q 418 213 375 222 q 538 204 460 204 q 733 224 624 204 l 733 8 q 494 -15 613 -15 q 233 27 333 -15 q 84 156 132 69 q 37 383 37 243 q 81 593 37 505 q 211 729 125 681 q 422 776 298 776 q 687 671 597 776 q 778 373 778 565 l 778 299 m 418 596 q 369 583 388 596 q 341 542 351 571 q 331 462 331 513 l 505 462 q 495 542 504 513 q 467 583 485 571 q 418 596 449 596 m 812 1110 l 610 1110 l 440 1297 l 685 1297 l 812 1110 m 297 1122 l 533 1122 l 699 847 l 494 847 l 415 989 l 336 847 l 131 847 l 297 1122 z "},"ể":{"ha":808,"x_min":37,"x_max":827,"o":"m 778 299 l 332 299 q 356 242 336 263 q 418 213 375 222 q 538 204 460 204 q 733 224 624 204 l 733 8 q 494 -15 613 -15 q 233 27 333 -15 q 84 156 132 69 q 37 383 37 243 q 81 593 37 505 q 211 729 125 681 q 422 776 298 776 q 687 671 597 776 q 778 373 778 565 l 778 299 m 418 596 q 369 583 388 596 q 341 542 351 571 q 331 462 331 513 l 505 462 q 495 542 504 513 q 467 583 485 571 q 418 596 449 596 m 642 1315 q 783 1295 739 1315 q 827 1228 827 1274 q 812 1193 827 1206 q 769 1164 797 1179 q 729 1139 743 1150 q 712 1110 715 1127 l 581 1110 q 594 1147 583 1132 q 620 1170 606 1162 q 656 1189 635 1179 q 678 1200 672 1196 q 684 1208 684 1203 q 668 1223 684 1219 q 619 1228 653 1228 q 497 1217 554 1228 l 497 1301 q 566 1311 523 1308 q 642 1315 608 1315 m 297 1122 l 533 1122 l 699 847 l 494 847 l 415 989 l 336 847 l 131 847 l 297 1122 z "},"ễ":{"ha":808,"x_min":37,"x_max":778,"o":"m 778 299 l 332 299 q 356 242 336 263 q 418 213 375 222 q 538 204 460 204 q 733 224 624 204 l 733 8 q 494 -15 613 -15 q 233 27 333 -15 q 84 156 132 69 q 37 383 37 243 q 81 593 37 505 q 211 729 125 681 q 422 776 298 776 q 687 671 597 776 q 778 373 778 565 l 778 299 m 418 596 q 369 583 388 596 q 341 542 351 571 q 331 462 331 513 l 505 462 q 495 542 504 513 q 467 583 485 571 q 418 596 449 596 m 543 1108 q 475 1114 507 1108 q 403 1132 444 1120 q 338 1148 365 1142 q 282 1153 311 1153 q 203 1143 238 1153 q 131 1112 168 1133 l 131 1251 q 199 1286 163 1275 q 288 1297 236 1297 q 354 1291 323 1297 q 428 1273 385 1285 q 494 1256 468 1262 q 549 1251 520 1251 q 628 1261 593 1251 q 700 1292 663 1271 l 700 1153 q 632 1119 669 1129 q 543 1108 595 1108 m 721 849 l 505 849 l 415 964 l 326 849 l 110 849 l 292 1068 l 538 1068 l 721 849 z "},"ȅ":{"ha":808,"x_min":31,"x_max":778,"o":"m 778 299 l 332 299 q 356 242 336 263 q 418 213 375 222 q 538 204 460 204 q 733 224 624 204 l 733 8 q 494 -15 613 -15 q 233 27 333 -15 q 84 156 132 69 q 37 383 37 243 q 81 593 37 505 q 211 729 125 681 q 422 776 298 776 q 687 671 597 776 q 778 373 778 565 l 778 299 m 418 596 q 369 583 388 596 q 341 542 351 571 q 331 462 331 513 l 505 462 q 495 542 504 513 q 467 583 485 571 q 418 596 449 596 m 151 847 l 31 1122 l 260 1122 l 366 847 l 151 847 m 465 847 l 345 1122 l 575 1122 l 680 847 l 465 847 z "},"ë":{"ha":808,"x_min":37,"x_max":778,"o":"m 778 299 l 332 299 q 356 242 336 263 q 418 213 375 222 q 538 204 460 204 q 733 224 624 204 l 733 8 q 494 -15 613 -15 q 233 27 333 -15 q 84 156 132 69 q 37 383 37 243 q 81 593 37 505 q 211 729 125 681 q 422 776 298 776 q 687 671 597 776 q 778 373 778 565 l 778 299 m 418 596 q 369 583 388 596 q 341 542 351 571 q 331 462 331 513 l 505 462 q 495 542 504 513 q 467 583 485 571 q 418 596 449 596 m 232 844 q 119 881 158 844 q 79 985 79 918 q 119 1089 79 1051 q 232 1126 158 1126 q 345 1089 306 1126 q 384 985 384 1051 q 345 881 384 918 q 232 844 306 844 m 599 844 q 486 881 525 844 q 447 985 447 918 q 486 1089 447 1051 q 599 1126 525 1126 q 712 1089 672 1126 q 751 985 751 1051 q 712 881 751 918 q 599 844 672 844 z "},"ė":{"ha":808,"x_min":37,"x_max":778,"o":"m 778 299 l 332 299 q 356 242 336 263 q 418 213 375 222 q 538 204 460 204 q 733 224 624 204 l 733 8 q 494 -15 613 -15 q 233 27 333 -15 q 84 156 132 69 q 37 383 37 243 q 81 593 37 505 q 211 729 125 681 q 422 776 298 776 q 687 671 597 776 q 778 373 778 565 l 778 299 m 418 596 q 369 583 388 596 q 341 542 351 571 q 331 462 331 513 l 505 462 q 495 542 504 513 q 467 583 485 571 q 418 596 449 596 m 415 839 q 238 985 238 839 q 415 1131 238 1131 q 592 985 592 1131 q 415 839 592 839 z "},"ẹ":{"ha":808,"x_min":37,"x_max":778,"o":"m 778 299 l 332 299 q 356 242 336 263 q 418 213 375 222 q 538 204 460 204 q 733 224 624 204 l 733 8 q 494 -15 613 -15 q 233 27 333 -15 q 84 156 132 69 q 37 383 37 243 q 81 593 37 505 q 211 729 125 681 q 422 776 298 776 q 687 671 597 776 q 778 373 778 565 l 778 299 m 418 596 q 369 583 388 596 q 341 542 351 571 q 331 462 331 513 l 505 462 q 495 542 504 513 q 467 583 485 571 q 418 596 449 596 m 415 -347 q 302 -311 342 -347 q 263 -210 263 -274 q 302 -109 263 -145 q 415 -72 342 -72 q 528 -109 489 -72 q 567 -210 567 -145 q 528 -311 567 -274 q 415 -347 489 -347 z "},"è":{"ha":808,"x_min":37,"x_max":778,"o":"m 778 299 l 332 299 q 356 242 336 263 q 418 213 375 222 q 538 204 460 204 q 733 224 624 204 l 733 8 q 494 -15 613 -15 q 233 27 333 -15 q 84 156 132 69 q 37 383 37 243 q 81 593 37 505 q 211 729 125 681 q 422 776 298 776 q 687 671 597 776 q 778 373 778 565 l 778 299 m 418 596 q 369 583 388 596 q 341 542 351 571 q 331 462 331 513 l 505 462 q 495 542 504 513 q 467 583 485 571 q 418 596 449 596 m 281 847 l 76 1122 l 388 1122 l 550 847 l 281 847 z "},"ẻ":{"ha":808,"x_min":37,"x_max":778,"o":"m 778 299 l 332 299 q 356 242 336 263 q 418 213 375 222 q 538 204 460 204 q 733 224 624 204 l 733 8 q 494 -15 613 -15 q 233 27 333 -15 q 84 156 132 69 q 37 383 37 243 q 81 593 37 505 q 211 729 125 681 q 422 776 298 776 q 687 671 597 776 q 778 373 778 565 l 778 299 m 418 596 q 369 583 388 596 q 341 542 351 571 q 331 462 331 513 l 505 462 q 495 542 504 513 q 467 583 485 571 q 418 596 449 596 m 345 847 q 366 912 347 888 q 414 958 384 936 q 439 980 432 972 q 447 999 447 988 q 433 1018 447 1013 q 388 1024 419 1024 q 269 1008 331 1024 l 269 1113 q 337 1126 297 1121 q 411 1131 377 1131 q 551 1103 506 1131 q 596 1018 596 1076 q 588 974 596 992 q 568 944 579 956 q 537 917 556 933 q 500 884 513 899 q 485 847 488 870 l 345 847 z "},"ȇ":{"ha":808,"x_min":37,"x_max":778,"o":"m 778 299 l 332 299 q 356 242 336 263 q 418 213 375 222 q 538 204 460 204 q 733 224 624 204 l 733 8 q 494 -15 613 -15 q 233 27 333 -15 q 84 156 132 69 q 37 383 37 243 q 81 593 37 505 q 211 729 125 681 q 422 776 298 776 q 687 671 597 776 q 778 373 778 565 l 778 299 m 418 596 q 369 583 388 596 q 341 542 351 571 q 331 462 331 513 l 505 462 q 495 542 504 513 q 467 583 485 571 q 418 596 449 596 m 133 867 q 213 1058 140 993 q 415 1122 285 1122 q 617 1057 544 1122 q 698 867 691 992 l 524 867 q 492 953 519 925 q 415 981 465 981 q 338 953 363 981 q 307 867 312 926 l 133 867 z "},"ē":{"ha":808,"x_min":37,"x_max":778,"o":"m 778 299 l 332 299 q 356 242 336 263 q 418 213 375 222 q 538 204 460 204 q 733 224 624 204 l 733 8 q 494 -15 613 -15 q 233 27 333 -15 q 84 156 132 69 q 37 383 37 243 q 81 593 37 505 q 211 729 125 681 q 422 776 298 776 q 687 671 597 776 q 778 373 778 565 l 778 299 m 418 596 q 369 583 388 596 q 341 542 351 571 q 331 462 331 513 l 505 462 q 495 542 504 513 q 467 583 485 571 q 418 596 449 596 m 147 899 l 147 1072 l 683 1072 l 683 899 l 147 899 z "},"ḗ":{"ha":808,"x_min":37,"x_max":778,"o":"m 778 299 l 332 299 q 356 242 336 263 q 418 213 375 222 q 538 204 460 204 q 733 224 624 204 l 733 8 q 494 -15 613 -15 q 233 27 333 -15 q 84 156 132 69 q 37 383 37 243 q 81 593 37 505 q 211 729 125 681 q 422 776 298 776 q 687 671 597 776 q 778 373 778 565 l 778 299 m 418 596 q 369 583 388 596 q 341 542 351 571 q 331 462 331 513 l 505 462 q 495 542 504 513 q 467 583 485 571 q 418 596 449 596 m 147 899 l 147 1072 l 683 1072 l 683 899 l 147 899 m 281 1168 l 408 1388 l 717 1388 l 547 1168 l 281 1168 z "},"ḕ":{"ha":808,"x_min":37,"x_max":778,"o":"m 778 299 l 332 299 q 356 242 336 263 q 418 213 375 222 q 538 204 460 204 q 733 224 624 204 l 733 8 q 494 -15 613 -15 q 233 27 333 -15 q 84 156 132 69 q 37 383 37 243 q 81 593 37 505 q 211 729 125 681 q 422 776 298 776 q 687 671 597 776 q 778 373 778 565 l 778 299 m 418 596 q 369 583 388 596 q 341 542 351 571 q 331 462 331 513 l 505 462 q 495 542 504 513 q 467 583 485 571 q 418 596 449 596 m 147 899 l 147 1072 l 683 1072 l 683 899 l 147 899 m 283 1168 l 112 1388 l 421 1388 l 548 1168 l 283 1168 z "},"ę":{"ha":808,"x_min":37,"x_max":778,"o":"m 778 299 l 332 299 q 356 242 336 263 q 418 213 375 222 q 538 204 460 204 q 733 224 624 204 l 733 8 q 605 -63 641 -26 q 569 -144 569 -101 q 590 -191 569 -174 q 651 -208 610 -208 q 733 -191 688 -208 l 733 -299 q 674 -314 703 -309 q 608 -319 646 -319 q 456 -278 508 -319 q 404 -164 404 -237 q 423 -83 404 -119 q 485 -15 442 -46 q 228 28 327 -14 q 83 158 130 71 q 37 383 37 245 q 81 593 37 505 q 211 729 125 681 q 422 776 298 776 q 687 671 597 776 q 778 373 778 565 l 778 299 m 418 589 q 369 576 388 589 q 341 535 351 564 q 331 455 331 506 l 505 455 q 495 535 504 506 q 467 576 485 564 q 418 589 449 589 z "},"ẽ":{"ha":808,"x_min":37,"x_max":778,"o":"m 778 299 l 332 299 q 356 242 336 263 q 418 213 375 222 q 538 204 460 204 q 733 224 624 204 l 733 8 q 494 -15 613 -15 q 233 27 333 -15 q 84 156 132 69 q 37 383 37 243 q 81 593 37 505 q 211 729 125 681 q 422 776 298 776 q 687 671 597 776 q 778 373 778 565 l 778 299 m 418 596 q 369 583 388 596 q 341 542 351 571 q 331 462 331 513 l 505 462 q 495 542 504 513 q 467 583 485 571 q 418 596 449 596 m 532 865 q 471 874 500 865 q 403 901 442 883 q 341 926 365 918 q 293 933 318 933 q 217 918 251 933 q 147 870 183 903 l 147 1048 q 215 1092 178 1078 q 299 1106 251 1106 q 359 1097 331 1106 q 428 1069 388 1088 q 489 1045 466 1053 q 538 1038 513 1038 q 613 1052 579 1038 q 683 1101 647 1067 l 683 923 q 616 878 652 892 q 532 865 580 865 z "},"ə":{"ha":808,"x_min":30,"x_max":771,"o":"m 313 779 q 575 737 474 779 q 723 608 676 695 q 771 381 771 521 q 727 171 771 259 q 596 35 683 83 q 386 -12 510 -12 q 120 93 211 -12 q 30 391 30 199 l 30 465 l 476 465 q 452 522 472 501 q 390 551 433 542 q 269 560 347 560 q 75 540 184 560 l 75 756 q 313 779 194 779 m 390 168 q 439 181 420 168 q 467 222 457 193 q 477 302 476 251 l 303 302 q 313 222 303 251 q 341 181 322 193 q 390 168 359 168 z "},"f":{"ha":598,"x_min":20,"x_max":635,"o":"m 567 905 q 459 877 492 905 q 425 792 425 849 l 425 764 l 601 764 l 601 534 l 425 534 l 425 0 l 131 0 l 131 534 l 20 534 l 20 764 l 131 764 l 131 778 q 176 969 131 889 q 308 1093 221 1050 q 517 1136 394 1136 q 635 1128 576 1136 l 635 901 q 567 905 597 905 z "},"g":{"ha":901,"x_min":37,"x_max":834,"o":"m 369 -319 q 93 -290 218 -319 l 93 -63 q 223 -87 158 -79 q 344 -96 288 -96 q 493 -62 447 -96 q 538 48 538 -28 l 538 83 l 525 83 q 445 20 492 41 q 336 -1 397 -1 q 188 40 256 -1 q 78 165 119 82 q 37 367 37 249 q 152 669 37 563 q 501 776 268 776 q 675 764 585 776 q 834 728 765 751 l 834 104 q 784 -137 834 -44 q 631 -275 733 -231 q 369 -319 528 -319 m 455 236 q 538 253 502 236 l 538 550 q 474 556 506 556 q 369 518 404 556 q 333 391 333 479 q 363 270 333 305 q 455 236 393 236 z "},"ǵ":{"ha":901,"x_min":37,"x_max":834,"o":"m 369 -319 q 93 -290 218 -319 l 93 -63 q 223 -87 158 -79 q 344 -96 288 -96 q 493 -62 447 -96 q 538 48 538 -28 l 538 83 l 525 83 q 445 20 492 41 q 336 -1 397 -1 q 188 40 256 -1 q 78 165 119 82 q 37 367 37 249 q 152 669 37 563 q 501 776 268 776 q 675 764 585 776 q 834 728 765 751 l 834 104 q 784 -137 834 -44 q 631 -275 733 -231 q 369 -319 528 -319 m 455 236 q 538 253 502 236 l 538 550 q 474 556 506 556 q 369 518 404 556 q 333 391 333 479 q 363 270 333 305 q 455 236 393 236 m 335 847 l 497 1122 l 808 1122 l 604 847 l 335 847 z "},"ğ":{"ha":901,"x_min":37,"x_max":834,"o":"m 369 -319 q 93 -290 218 -319 l 93 -63 q 223 -87 158 -79 q 344 -96 288 -96 q 493 -62 447 -96 q 538 48 538 -28 l 538 83 l 525 83 q 445 20 492 41 q 336 -1 397 -1 q 188 40 256 -1 q 78 165 119 82 q 37 367 37 249 q 152 669 37 563 q 501 776 268 776 q 675 764 585 776 q 834 728 765 751 l 834 104 q 784 -137 834 -44 q 631 -275 733 -231 q 369 -319 528 -319 m 455 236 q 538 253 502 236 l 538 550 q 474 556 506 556 q 369 518 404 556 q 333 391 333 479 q 363 270 333 305 q 455 236 393 236 m 469 853 q 267 918 340 853 q 187 1108 194 983 l 361 1108 q 393 1024 366 1051 q 469 997 419 997 q 546 1024 519 997 q 578 1108 573 1051 l 752 1108 q 672 918 745 983 q 469 853 599 853 z "},"ǧ":{"ha":901,"x_min":37,"x_max":834,"o":"m 369 -319 q 93 -290 218 -319 l 93 -63 q 223 -87 158 -79 q 344 -96 288 -96 q 493 -62 447 -96 q 538 48 538 -28 l 538 83 l 525 83 q 445 20 492 41 q 336 -1 397 -1 q 188 40 256 -1 q 78 165 119 82 q 37 367 37 249 q 152 669 37 563 q 501 776 268 776 q 675 764 585 776 q 834 728 765 751 l 834 104 q 784 -137 834 -44 q 631 -275 733 -231 q 369 -319 528 -319 m 455 236 q 538 253 502 236 l 538 550 q 474 556 506 556 q 369 518 404 556 q 333 391 333 479 q 363 270 333 305 q 455 236 393 236 m 549 1122 l 753 1122 l 588 847 l 351 847 l 185 1122 l 390 1122 l 469 981 l 549 1122 z "},"ĝ":{"ha":901,"x_min":37,"x_max":834,"o":"m 369 -319 q 93 -290 218 -319 l 93 -63 q 223 -87 158 -79 q 344 -96 288 -96 q 493 -62 447 -96 q 538 48 538 -28 l 538 83 l 525 83 q 445 20 492 41 q 336 -1 397 -1 q 188 40 256 -1 q 78 165 119 82 q 37 367 37 249 q 152 669 37 563 q 501 776 268 776 q 675 764 585 776 q 834 728 765 751 l 834 104 q 784 -137 834 -44 q 631 -275 733 -231 q 369 -319 528 -319 m 455 236 q 538 253 502 236 l 538 550 q 474 556 506 556 q 369 518 404 556 q 333 391 333 479 q 363 270 333 305 q 455 236 393 236 m 753 847 l 549 847 l 469 989 l 390 847 l 185 847 l 351 1122 l 588 1122 l 753 847 z "},"ģ":{"ha":901,"x_min":37,"x_max":834,"o":"m 369 -319 q 93 -290 218 -319 l 93 -63 q 223 -87 158 -79 q 344 -96 288 -96 q 493 -62 447 -96 q 538 48 538 -28 l 538 83 l 525 83 q 445 20 492 41 q 336 -1 397 -1 q 188 40 256 -1 q 78 165 119 82 q 37 367 37 249 q 152 669 37 563 q 501 776 268 776 q 675 764 585 776 q 834 728 765 751 l 834 104 q 784 -137 834 -44 q 631 -275 733 -231 q 369 -319 528 -319 m 455 236 q 538 253 502 236 l 538 550 q 474 556 506 556 q 369 518 404 556 q 333 391 333 479 q 363 270 333 305 q 455 236 393 236 m 513 1026 q 628 935 628 1014 q 469 842 628 842 q 311 964 311 842 q 329 1051 311 1006 q 375 1129 347 1097 l 557 1129 q 528 1072 538 1096 q 513 1026 518 1048 z "},"ġ":{"ha":901,"x_min":37,"x_max":834,"o":"m 369 -319 q 93 -290 218 -319 l 93 -63 q 223 -87 158 -79 q 344 -96 288 -96 q 493 -62 447 -96 q 538 48 538 -28 l 538 83 l 525 83 q 445 20 492 41 q 336 -1 397 -1 q 188 40 256 -1 q 78 165 119 82 q 37 367 37 249 q 152 669 37 563 q 501 776 268 776 q 675 764 585 776 q 834 728 765 751 l 834 104 q 784 -137 834 -44 q 631 -275 733 -231 q 369 -319 528 -319 m 455 236 q 538 253 502 236 l 538 550 q 474 556 506 556 q 369 518 404 556 q 333 391 333 479 q 363 270 333 305 q 455 236 393 236 m 469 839 q 292 985 292 839 q 469 1131 292 1131 q 647 985 647 1131 q 469 839 647 839 z "},"ḡ":{"ha":901,"x_min":37,"x_max":834,"o":"m 369 -319 q 93 -290 218 -319 l 93 -63 q 223 -87 158 -79 q 344 -96 288 -96 q 493 -62 447 -96 q 538 48 538 -28 l 538 83 l 525 83 q 445 20 492 41 q 336 -1 397 -1 q 188 40 256 -1 q 78 165 119 82 q 37 367 37 249 q 152 669 37 563 q 501 776 268 776 q 675 764 585 776 q 834 728 765 751 l 834 104 q 784 -137 834 -44 q 631 -275 733 -231 q 369 -319 528 -319 m 455 236 q 538 253 502 236 l 538 550 q 474 556 506 556 q 369 518 404 556 q 333 391 333 479 q 363 270 333 305 q 455 236 393 236 m 201 899 l 201 1072 l 738 1072 l 738 899 l 201 899 z "},"h":{"ha":890,"x_min":67,"x_max":826,"o":"m 67 1122 l 363 1122 l 363 692 l 376 692 q 572 776 449 776 q 702 743 645 776 q 793 639 760 710 q 826 457 826 567 l 826 0 l 531 0 l 531 435 q 512 504 531 484 q 457 524 494 524 q 405 514 431 524 q 363 488 380 504 l 363 0 l 67 0 l 67 1122 z "},"ħ":{"ha":890,"x_min":1,"x_max":826,"o":"m 572 776 q 702 743 645 776 q 793 639 760 710 q 826 457 826 567 l 826 0 l 531 0 l 531 435 q 512 504 531 484 q 457 524 494 524 q 405 514 431 524 q 363 488 380 504 l 363 0 l 67 0 l 67 847 l 1 847 l 1 1028 l 67 1028 l 67 1122 l 363 1122 l 363 1028 l 590 1028 l 590 847 l 363 847 l 363 692 l 376 692 q 572 776 449 776 z "},"ḫ":{"ha":890,"x_min":67,"x_max":826,"o":"m 67 1122 l 363 1122 l 363 692 l 376 692 q 572 776 449 776 q 702 743 645 776 q 793 639 760 710 q 826 457 826 567 l 826 0 l 531 0 l 531 435 q 512 504 531 484 q 457 524 494 524 q 405 514 431 524 q 363 488 380 504 l 363 0 l 67 0 l 67 1122 m 447 -334 q 242 -272 316 -334 q 165 -97 169 -209 l 339 -97 q 368 -169 341 -145 q 447 -192 394 -192 q 526 -169 499 -192 q 556 -97 553 -145 l 730 -97 q 652 -272 726 -209 q 447 -334 578 -334 z "},"ĥ":{"ha":890,"x_min":67,"x_max":826,"o":"m 67 1122 l 363 1122 l 363 692 l 376 692 q 572 776 449 776 q 702 743 645 776 q 793 639 760 710 q 826 457 826 567 l 826 0 l 531 0 l 531 435 q 512 504 531 484 q 457 524 494 524 q 405 514 431 524 q 363 488 380 504 l 363 0 l 67 0 l 67 1122 m 753 1168 l 537 1168 l 447 1283 l 358 1168 l 142 1168 l 324 1388 l 570 1388 l 753 1168 z "},"ḥ":{"ha":890,"x_min":67,"x_max":826,"o":"m 67 1122 l 363 1122 l 363 692 l 376 692 q 572 776 449 776 q 702 743 645 776 q 793 639 760 710 q 826 457 826 567 l 826 0 l 531 0 l 531 435 q 512 504 531 484 q 457 524 494 524 q 405 514 431 524 q 363 488 380 504 l 363 0 l 67 0 l 67 1122 m 447 -347 q 334 -311 374 -347 q 295 -210 295 -274 q 334 -109 295 -145 q 447 -72 374 -72 q 560 -109 521 -72 q 599 -210 599 -145 q 560 -311 599 -274 q 447 -347 521 -347 z "},"i":{"ha":431,"x_min":38,"x_max":392,"o":"m 67 0 l 67 764 l 364 764 l 364 0 l 67 0 m 215 839 q 38 985 38 839 q 215 1131 38 1131 q 392 985 392 1131 q 215 839 392 839 z "},"ı":{"ha":431,"x_min":67,"x_max":364,"o":"m 67 0 l 67 764 l 364 764 l 364 0 l 67 0 z "},"í":{"ha":431,"x_min":67,"x_max":554,"o":"m 67 0 l 67 764 l 364 764 l 364 0 l 67 0 m 81 847 l 242 1122 l 554 1122 l 350 847 l 81 847 z "},"ĭ":{"ha":431,"x_min":-67,"x_max":498,"o":"m 67 0 l 67 764 l 364 764 l 364 0 l 67 0 m 215 853 q 13 918 86 853 q -67 1108 -60 983 l 107 1108 q 139 1024 112 1051 q 215 997 165 997 q 292 1024 265 997 q 324 1108 319 1051 l 498 1108 q 418 918 491 983 q 215 853 344 853 z "},"î":{"ha":431,"x_min":-69,"x_max":499,"o":"m 67 0 l 67 764 l 364 764 l 364 0 l 67 0 m 499 847 l 294 847 l 215 989 l 136 847 l -69 847 l 97 1122 l 333 1122 l 499 847 z "},"ȉ":{"ha":431,"x_min":-169,"x_max":480,"o":"m 67 0 l 67 764 l 364 764 l 364 0 l 67 0 m -49 847 l -169 1122 l 60 1122 l 166 847 l -49 847 m 265 847 l 145 1122 l 375 1122 l 480 847 l 265 847 z "},"ï":{"ha":431,"x_min":-121,"x_max":551,"o":"m 67 0 l 67 764 l 364 764 l 364 0 l 67 0 m 32 844 q -81 881 -42 844 q -121 985 -121 918 q -81 1089 -121 1051 q 32 1126 -42 1126 q 145 1089 106 1126 q 184 985 184 1051 q 145 881 184 918 q 32 844 106 844 m 399 844 q 286 881 325 844 q 247 985 247 918 q 286 1089 247 1051 q 399 1126 325 1126 q 512 1089 472 1126 q 551 985 551 1051 q 512 881 551 918 q 399 844 472 844 z "},"ḯ":{"ha":431,"x_min":-121,"x_max":551,"o":"m 67 0 l 67 764 l 364 764 l 364 0 l 67 0 m 32 844 q -81 881 -42 844 q -121 985 -121 918 q -81 1089 -121 1051 q 32 1126 -42 1126 q 145 1089 106 1126 q 184 985 184 1051 q 145 881 184 918 q 32 844 106 844 m 399 844 q 286 881 325 844 q 247 985 247 918 q 286 1089 247 1051 q 399 1126 325 1126 q 512 1089 472 1126 q 551 985 551 1051 q 512 881 551 918 q 399 844 472 844 m 81 1168 l 208 1388 l 517 1388 l 347 1168 l 81 1168 z "},"ị":{"ha":431,"x_min":38,"x_max":392,"o":"m 67 0 l 67 764 l 364 764 l 364 0 l 67 0 m 215 839 q 38 985 38 839 q 215 1131 38 1131 q 392 985 392 1131 q 215 839 392 839 m 215 -347 q 102 -311 142 -347 q 63 -210 63 -274 q 102 -109 63 -145 q 215 -72 142 -72 q 328 -109 289 -72 q 367 -210 367 -145 q 328 -311 367 -274 q 215 -347 289 -347 z "},"ì":{"ha":431,"x_min":-124,"x_max":364,"o":"m 67 0 l 67 764 l 364 764 l 364 0 l 67 0 m 81 847 l -124 1122 l 188 1122 l 350 847 l 81 847 z "},"ỉ":{"ha":431,"x_min":67,"x_max":396,"o":"m 67 0 l 67 764 l 364 764 l 364 0 l 67 0 m 145 847 q 166 912 147 888 q 214 958 184 936 q 239 980 232 972 q 247 999 247 988 q 233 1018 247 1013 q 188 1024 219 1024 q 69 1008 131 1024 l 69 1113 q 137 1126 97 1121 q 211 1131 177 1131 q 351 1103 306 1131 q 396 1018 396 1076 q 388 974 396 992 q 368 944 379 956 q 337 917 356 933 q 300 884 313 899 q 285 847 288 870 l 145 847 z "},"ȋ":{"ha":431,"x_min":-67,"x_max":498,"o":"m 67 0 l 67 764 l 364 764 l 364 0 l 67 0 m -67 867 q 13 1058 -60 993 q 215 1122 85 1122 q 417 1057 344 1122 q 498 867 491 992 l 324 867 q 292 953 319 925 q 215 981 265 981 q 138 953 163 981 q 107 867 112 926 l -67 867 z "},"ī":{"ha":431,"x_min":-53,"x_max":483,"o":"m 67 0 l 67 764 l 364 764 l 364 0 l 67 0 m -53 899 l -53 1072 l 483 1072 l 483 899 l -53 899 z "},"į":{"ha":431,"x_min":38,"x_max":392,"o":"m 215 839 q 38 985 38 839 q 215 1131 38 1131 q 392 985 392 1131 q 215 839 392 839 m 207 -144 q 228 -191 207 -174 q 289 -208 249 -208 q 371 -191 326 -208 l 371 -299 q 312 -314 341 -309 q 245 -319 283 -319 q 94 -278 146 -319 q 42 -164 42 -237 q 67 -73 42 -114 q 147 0 91 -33 l 67 0 l 67 764 l 364 764 l 364 0 q 241 -67 275 -33 q 207 -144 207 -101 z "},"ĩ":{"ha":431,"x_min":-53,"x_max":483,"o":"m 67 0 l 67 764 l 364 764 l 364 0 l 67 0 m 332 865 q 271 874 300 865 q 203 901 242 883 q 141 926 165 918 q 93 933 118 933 q 17 918 51 933 q -53 870 -17 903 l -53 1048 q 15 1092 -22 1078 q 99 1106 51 1106 q 159 1097 131 1106 q 228 1069 188 1088 q 289 1045 266 1053 q 338 1038 313 1038 q 413 1052 379 1038 q 483 1101 447 1067 l 483 923 q 416 878 452 892 q 332 865 380 865 z "},"j":{"ha":431,"x_min":-31,"x_max":389,"o":"m -31 -206 q 46 -58 24 -132 q 67 125 67 15 l 67 764 l 364 764 l 364 136 q 317 -109 364 1 q 158 -331 270 -220 l -31 -206 m 212 839 q 35 985 35 839 q 212 1131 35 1131 q 389 985 389 1131 q 212 839 389 839 z "},"ȷ":{"ha":431,"x_min":-31,"x_max":364,"o":"m -31 -206 q 46 -58 24 -132 q 67 125 67 15 l 67 764 l 364 764 l 364 136 q 317 -109 364 1 q 158 -331 270 -220 l -31 -206 z "},"ĵ":{"ha":431,"x_min":-72,"x_max":496,"o":"m -31 -206 q 46 -58 24 -132 q 67 125 67 15 l 67 764 l 364 764 l 364 136 q 317 -109 364 1 q 158 -331 270 -220 l -31 -206 m 496 847 l 291 847 l 212 989 l 133 847 l -72 847 l 94 1122 l 330 1122 l 496 847 z "},"k":{"ha":885,"x_min":67,"x_max":913,"o":"m 594 0 l 422 276 l 363 276 l 363 0 l 67 0 l 67 1122 l 363 1122 l 363 510 l 420 510 l 576 764 l 888 764 l 669 400 l 913 0 l 594 0 z "},"ķ":{"ha":885,"x_min":67,"x_max":913,"o":"m 594 0 l 422 276 l 363 276 l 363 0 l 67 0 l 67 1122 l 363 1122 l 363 510 l 420 510 l 576 764 l 888 764 l 669 400 l 913 0 l 594 0 m 463 -72 q 622 -194 622 -72 q 603 -282 622 -236 q 558 -360 585 -328 l 376 -360 q 405 -302 394 -326 q 419 -256 415 -278 q 305 -165 305 -244 q 463 -72 305 -72 z "},"ĸ":{"ha":885,"x_min":67,"x_max":913,"o":"m 594 0 l 422 276 l 363 276 l 363 0 l 67 0 l 67 764 l 363 764 l 363 510 l 420 510 l 576 764 l 888 764 l 669 400 l 913 0 l 594 0 z "},"l":{"ha":431,"x_min":67,"x_max":363,"o":"m 67 0 l 67 1122 l 363 1122 l 363 0 l 67 0 z "},"ĺ":{"ha":431,"x_min":67,"x_max":517,"o":"m 67 0 l 67 1122 l 363 1122 l 363 0 l 67 0 m 81 1168 l 208 1388 l 517 1388 l 347 1168 l 81 1168 z "},"ľ":{"ha":431,"x_min":67,"x_max":618,"o":"m 67 0 l 67 1122 l 363 1122 l 363 0 l 67 0 m 402 819 q 420 968 415 899 q 426 1122 426 1036 l 618 1122 q 602 957 618 1035 q 559 819 587 878 l 402 819 z "},"ļ":{"ha":431,"x_min":56,"x_max":373,"o":"m 67 0 l 67 1122 l 363 1122 l 363 0 l 67 0 m 215 -72 q 373 -194 373 -72 q 355 -282 373 -236 q 309 -360 337 -328 l 127 -360 q 156 -302 146 -326 q 171 -256 166 -278 q 56 -165 56 -244 q 215 -72 56 -72 z "},"ŀ":{"ha":734,"x_min":67,"x_max":758,"o":"m 67 0 l 67 1122 l 363 1122 l 363 0 l 67 0 m 581 406 q 405 551 405 406 q 581 697 405 697 q 758 551 758 697 q 581 406 758 406 z "},"ḷ":{"ha":431,"x_min":63,"x_max":367,"o":"m 67 0 l 67 1122 l 363 1122 l 363 0 l 67 0 m 215 -347 q 102 -311 141 -347 q 63 -210 63 -274 q 102 -109 63 -145 q 215 -72 141 -72 q 327 -109 288 -72 q 367 -210 367 -145 q 327 -311 367 -274 q 215 -347 288 -347 z "},"ǉ":{"ha":862,"x_min":67,"x_max":819,"o":"m 67 0 l 67 1122 l 363 1122 l 363 0 l 67 0 m 399 -206 q 476 -58 455 -132 q 498 125 498 15 l 498 764 l 794 764 l 794 136 q 748 -109 794 1 q 589 -331 701 -220 l 399 -206 m 642 839 q 465 985 465 839 q 642 1131 465 1131 q 819 985 819 1131 q 642 839 819 839 z "},"ḻ":{"ha":431,"x_min":-53,"x_max":483,"o":"m 67 0 l 67 1122 l 363 1122 l 363 0 l 67 0 m -53 -292 l -53 -122 l 483 -122 l 483 -292 l -53 -292 z "},"ł":{"ha":493,"x_min":-31,"x_max":524,"o":"m 524 528 l 394 467 l 394 0 l 99 0 l 99 326 l 49 302 l -31 463 l 99 525 l 99 1122 l 394 1122 l 394 666 l 444 690 l 524 528 z "},"m":{"ha":1304,"x_min":67,"x_max":1241,"o":"m 972 776 q 1169 699 1097 776 q 1241 456 1241 621 l 1241 0 l 946 0 l 946 439 q 928 504 946 485 q 876 524 910 524 q 801 499 833 524 q 802 466 802 489 l 802 0 l 513 0 l 513 439 q 496 505 513 485 q 447 524 480 524 q 399 514 422 524 q 363 488 377 504 l 363 0 l 67 0 l 67 764 l 310 764 l 330 692 l 342 692 q 552 776 421 776 q 665 753 615 776 q 747 683 715 731 q 851 753 793 730 q 972 776 909 776 z "},"ṃ":{"ha":1304,"x_min":67,"x_max":1241,"o":"m 972 776 q 1169 699 1097 776 q 1241 456 1241 621 l 1241 0 l 946 0 l 946 439 q 928 504 946 485 q 876 524 910 524 q 801 499 833 524 q 802 466 802 489 l 802 0 l 513 0 l 513 439 q 496 505 513 485 q 447 524 480 524 q 399 514 422 524 q 363 488 377 504 l 363 0 l 67 0 l 67 764 l 310 764 l 330 692 l 342 692 q 552 776 421 776 q 665 753 615 776 q 747 683 715 731 q 851 753 793 730 q 972 776 909 776 m 658 -347 q 545 -311 584 -347 q 506 -210 506 -274 q 545 -109 506 -145 q 658 -72 584 -72 q 770 -109 731 -72 q 810 -210 810 -145 q 770 -311 810 -274 q 658 -347 731 -347 z "},"n":{"ha":890,"x_min":67,"x_max":826,"o":"m 67 764 l 310 764 l 330 692 l 342 692 q 436 755 381 733 q 556 776 491 776 q 753 699 681 776 q 826 457 826 621 l 826 0 l 531 0 l 531 438 q 512 504 531 485 q 457 524 494 524 q 405 514 429 524 q 363 488 380 504 l 363 0 l 67 0 l 67 764 z "},"ń":{"ha":890,"x_min":67,"x_max":826,"o":"m 67 764 l 310 764 l 330 692 l 342 692 q 436 755 381 733 q 556 776 491 776 q 753 699 681 776 q 826 457 826 621 l 826 0 l 531 0 l 531 438 q 512 504 531 485 q 457 524 494 524 q 405 514 429 524 q 363 488 380 504 l 363 0 l 67 0 l 67 764 m 313 847 l 474 1122 l 786 1122 l 582 847 l 313 847 z "},"ŉ":{"ha":890,"x_min":8,"x_max":826,"o":"m 67 764 l 310 764 l 330 692 l 342 692 q 436 755 381 733 q 556 776 491 776 q 753 699 681 776 q 826 457 826 621 l 826 0 l 531 0 l 531 438 q 512 504 531 485 q 457 524 494 524 q 405 514 429 524 q 363 488 380 504 l 363 0 l 67 0 l 67 764 m 166 1129 q 325 1007 325 1129 q 307 919 325 965 q 261 842 289 874 l 78 842 q 107 899 97 875 q 122 945 117 923 q 8 1036 8 957 q 166 1129 8 1129 z "},"ň":{"ha":890,"x_min":67,"x_max":826,"o":"m 67 764 l 310 764 l 330 692 l 342 692 q 436 755 381 733 q 556 776 491 776 q 753 699 681 776 q 826 457 826 621 l 826 0 l 531 0 l 531 438 q 512 504 531 485 q 457 524 494 524 q 405 514 429 524 q 363 488 380 504 l 363 0 l 67 0 l 67 764 m 526 1122 l 731 1122 l 565 847 l 329 847 l 163 1122 l 368 1122 l 447 981 l 526 1122 z "},"ņ":{"ha":890,"x_min":67,"x_max":826,"o":"m 67 764 l 310 764 l 330 692 l 342 692 q 436 755 381 733 q 556 776 491 776 q 753 699 681 776 q 826 457 826 621 l 826 0 l 531 0 l 531 438 q 512 504 531 485 q 457 524 494 524 q 405 514 429 524 q 363 488 380 504 l 363 0 l 67 0 l 67 764 m 447 -72 q 606 -194 606 -72 q 588 -282 606 -236 q 542 -360 569 -328 l 360 -360 q 389 -302 378 -326 q 403 -256 399 -278 q 289 -165 289 -244 q 447 -72 289 -72 z "},"ṅ":{"ha":890,"x_min":67,"x_max":826,"o":"m 67 764 l 310 764 l 330 692 l 342 692 q 436 755 381 733 q 556 776 491 776 q 753 699 681 776 q 826 457 826 621 l 826 0 l 531 0 l 531 438 q 512 504 531 485 q 457 524 494 524 q 405 514 429 524 q 363 488 380 504 l 363 0 l 67 0 l 67 764 m 447 839 q 270 985 270 839 q 447 1131 270 1131 q 624 985 624 1131 q 447 839 624 839 z "},"ṇ":{"ha":890,"x_min":67,"x_max":826,"o":"m 67 764 l 310 764 l 330 692 l 342 692 q 436 755 381 733 q 556 776 491 776 q 753 699 681 776 q 826 457 826 621 l 826 0 l 531 0 l 531 438 q 512 504 531 485 q 457 524 494 524 q 405 514 429 524 q 363 488 380 504 l 363 0 l 67 0 l 67 764 m 447 -347 q 334 -311 374 -347 q 295 -210 295 -274 q 334 -109 295 -145 q 447 -72 374 -72 q 560 -109 521 -72 q 599 -210 599 -145 q 560 -311 599 -274 q 447 -347 521 -347 z "},"ŋ":{"ha":890,"x_min":67,"x_max":826,"o":"m 432 -206 q 509 -58 488 -132 q 531 125 531 15 l 531 439 q 512 507 531 488 q 457 527 494 527 q 405 517 431 527 q 363 492 380 508 l 363 0 l 67 0 l 67 764 l 310 764 l 330 692 l 342 692 q 437 755 383 733 q 556 776 491 776 q 753 699 681 776 q 826 457 826 622 l 826 136 q 780 -110 826 1 q 621 -331 733 -221 l 432 -206 z "},"ǌ":{"ha":1321,"x_min":67,"x_max":1278,"o":"m 67 764 l 310 764 l 330 692 l 342 692 q 436 755 381 733 q 556 776 491 776 q 753 699 681 776 q 826 457 826 621 l 826 0 l 531 0 l 531 438 q 512 504 531 485 q 457 524 494 524 q 405 514 429 524 q 363 488 380 504 l 363 0 l 67 0 l 67 764 m 858 -206 q 935 -58 914 -132 q 957 125 957 15 l 957 764 l 1253 764 l 1253 136 q 1207 -109 1253 1 q 1048 -331 1160 -220 l 858 -206 m 1101 839 q 924 985 924 839 q 1101 1131 924 1131 q 1278 985 1278 1131 q 1101 839 1278 839 z "},"ṉ":{"ha":890,"x_min":67,"x_max":826,"o":"m 67 764 l 310 764 l 330 692 l 342 692 q 436 755 381 733 q 556 776 491 776 q 753 699 681 776 q 826 457 826 621 l 826 0 l 531 0 l 531 438 q 512 504 531 485 q 457 524 494 524 q 405 514 429 524 q 363 488 380 504 l 363 0 l 67 0 l 67 764 m 179 -292 l 179 -122 l 715 -122 l 715 -292 l 179 -292 z "},"ñ":{"ha":890,"x_min":67,"x_max":826,"o":"m 67 764 l 310 764 l 330 692 l 342 692 q 436 755 381 733 q 556 776 491 776 q 753 699 681 776 q 826 457 826 621 l 826 0 l 531 0 l 531 438 q 512 504 531 485 q 457 524 494 524 q 405 514 429 524 q 363 488 380 504 l 363 0 l 67 0 l 67 764 m 564 865 q 503 874 532 865 q 435 901 474 883 q 373 926 397 918 q 325 933 350 933 q 249 918 283 933 q 179 870 215 903 l 179 1048 q 247 1092 210 1078 q 331 1106 283 1106 q 391 1097 363 1106 q 460 1069 420 1088 q 521 1045 498 1053 q 569 1038 544 1038 q 645 1052 611 1038 q 715 1101 679 1067 l 715 923 q 648 878 684 892 q 564 865 612 865 z "},"o":{"ha":880,"x_min":37,"x_max":843,"o":"m 440 -15 q 224 30 315 -15 q 85 164 133 75 q 37 379 37 252 q 141 675 37 573 q 440 776 246 776 q 658 731 568 776 q 796 596 749 685 q 843 381 843 508 q 794 164 843 253 q 656 30 746 76 q 440 -15 565 -15 m 440 205 q 500 220 476 205 q 535 274 523 236 q 547 379 547 313 q 534 486 547 447 q 499 541 522 525 q 440 556 476 556 q 380 541 403 556 q 345 486 357 525 q 333 381 333 448 q 345 275 333 313 q 380 220 357 236 q 440 205 403 205 z "},"ó":{"ha":880,"x_min":37,"x_max":843,"o":"m 440 -15 q 224 30 315 -15 q 85 164 133 75 q 37 379 37 252 q 141 675 37 573 q 440 776 246 776 q 658 731 568 776 q 796 596 749 685 q 843 381 843 508 q 794 164 843 253 q 656 30 746 76 q 440 -15 565 -15 m 440 205 q 500 220 476 205 q 535 274 523 236 q 547 379 547 313 q 534 486 547 447 q 499 541 522 525 q 440 556 476 556 q 380 541 403 556 q 345 486 357 525 q 333 381 333 448 q 345 275 333 313 q 380 220 357 236 q 440 205 403 205 m 305 847 l 467 1122 l 778 1122 l 574 847 l 305 847 z "},"ŏ":{"ha":880,"x_min":37,"x_max":843,"o":"m 440 -15 q 224 30 315 -15 q 85 164 133 75 q 37 379 37 252 q 141 675 37 573 q 440 776 246 776 q 658 731 568 776 q 796 596 749 685 q 843 381 843 508 q 794 164 843 253 q 656 30 746 76 q 440 -15 565 -15 m 440 205 q 500 220 476 205 q 535 274 523 236 q 547 379 547 313 q 534 486 547 447 q 499 541 522 525 q 440 556 476 556 q 380 541 403 556 q 345 486 357 525 q 333 381 333 448 q 345 275 333 313 q 380 220 357 236 q 440 205 403 205 m 440 853 q 237 918 310 853 q 157 1108 164 983 l 331 1108 q 363 1024 336 1051 q 440 997 390 997 q 516 1024 490 997 q 548 1108 543 1051 l 722 1108 q 642 918 715 983 q 440 853 569 853 z "},"ô":{"ha":880,"x_min":37,"x_max":843,"o":"m 440 -15 q 224 30 315 -15 q 85 164 133 75 q 37 379 37 252 q 141 675 37 573 q 440 776 246 776 q 658 731 568 776 q 796 596 749 685 q 843 381 843 508 q 794 164 843 253 q 656 30 746 76 q 440 -15 565 -15 m 440 205 q 500 220 476 205 q 535 274 523 236 q 547 379 547 313 q 534 486 547 447 q 499 541 522 525 q 440 556 476 556 q 380 541 403 556 q 345 486 357 525 q 333 381 333 448 q 345 275 333 313 q 380 220 357 236 q 440 205 403 205 m 724 847 l 519 847 l 440 989 l 360 847 l 156 847 l 322 1122 l 558 1122 l 724 847 z "},"ố":{"ha":880,"x_min":37,"x_max":978,"o":"m 440 -15 q 224 30 315 -15 q 85 164 133 75 q 37 379 37 252 q 141 675 37 573 q 440 776 246 776 q 658 731 568 776 q 796 596 749 685 q 843 381 843 508 q 794 164 843 253 q 656 30 746 76 q 440 -15 565 -15 m 440 205 q 500 220 476 205 q 535 274 523 236 q 547 379 547 313 q 534 486 547 447 q 499 541 522 525 q 440 556 476 556 q 380 541 403 556 q 345 486 357 525 q 333 381 333 448 q 345 275 333 313 q 380 220 357 236 q 440 205 403 205 m 733 1297 l 978 1297 l 808 1110 l 606 1110 l 733 1297 m 322 1122 l 558 1122 l 724 847 l 519 847 l 440 989 l 360 847 l 156 847 l 322 1122 z "},"ộ":{"ha":880,"x_min":37,"x_max":843,"o":"m 440 -15 q 224 30 315 -15 q 85 164 133 75 q 37 379 37 252 q 141 675 37 573 q 440 776 246 776 q 658 731 568 776 q 796 596 749 685 q 843 381 843 508 q 794 164 843 253 q 656 30 746 76 q 440 -15 565 -15 m 440 205 q 500 220 476 205 q 535 274 523 236 q 547 379 547 313 q 534 486 547 447 q 499 541 522 525 q 440 556 476 556 q 380 541 403 556 q 345 486 357 525 q 333 381 333 448 q 345 275 333 313 q 380 220 357 236 q 440 205 403 205 m 440 -347 q 327 -311 366 -347 q 288 -210 288 -274 q 327 -109 288 -145 q 440 -72 366 -72 q 552 -109 513 -72 q 592 -210 592 -145 q 552 -311 592 -274 q 440 -347 513 -347 m 724 847 l 519 847 l 440 989 l 360 847 l 156 847 l 322 1122 l 558 1122 l 724 847 z "},"ồ":{"ha":880,"x_min":37,"x_max":843,"o":"m 440 -15 q 224 30 315 -15 q 85 164 133 75 q 37 379 37 252 q 141 675 37 573 q 440 776 246 776 q 658 731 568 776 q 796 596 749 685 q 843 381 843 508 q 794 164 843 253 q 656 30 746 76 q 440 -15 565 -15 m 440 205 q 500 220 476 205 q 535 274 523 236 q 547 379 547 313 q 534 486 547 447 q 499 541 522 525 q 440 556 476 556 q 380 541 403 556 q 345 486 357 525 q 333 381 333 448 q 345 275 333 313 q 380 220 357 236 q 440 205 403 205 m 836 1110 l 634 1110 l 464 1297 l 709 1297 l 836 1110 m 322 1122 l 558 1122 l 724 847 l 519 847 l 440 989 l 360 847 l 156 847 l 322 1122 z "},"ổ":{"ha":880,"x_min":37,"x_max":851,"o":"m 440 -15 q 224 30 315 -15 q 85 164 133 75 q 37 379 37 252 q 141 675 37 573 q 440 776 246 776 q 658 731 568 776 q 796 596 749 685 q 843 381 843 508 q 794 164 843 253 q 656 30 746 76 q 440 -15 565 -15 m 440 205 q 500 220 476 205 q 535 274 523 236 q 547 379 547 313 q 534 486 547 447 q 499 541 522 525 q 440 556 476 556 q 380 541 403 556 q 345 486 357 525 q 333 381 333 448 q 345 275 333 313 q 380 220 357 236 q 440 205 403 205 m 667 1315 q 807 1295 763 1315 q 851 1228 851 1274 q 836 1193 851 1206 q 793 1164 822 1179 q 753 1139 767 1150 q 736 1110 740 1127 l 606 1110 q 619 1147 607 1132 q 645 1170 631 1162 q 681 1189 659 1179 q 702 1200 696 1196 q 708 1208 708 1203 q 693 1223 708 1219 q 643 1228 677 1228 q 521 1217 578 1228 l 521 1301 q 590 1311 547 1308 q 667 1315 633 1315 m 322 1122 l 558 1122 l 724 847 l 519 847 l 440 989 l 360 847 l 156 847 l 322 1122 z "},"ỗ":{"ha":880,"x_min":37,"x_max":843,"o":"m 440 -15 q 224 30 315 -15 q 85 164 133 75 q 37 379 37 252 q 141 675 37 573 q 440 776 246 776 q 658 731 568 776 q 796 596 749 685 q 843 381 843 508 q 794 164 843 253 q 656 30 746 76 q 440 -15 565 -15 m 440 205 q 500 220 476 205 q 535 274 523 236 q 547 379 547 313 q 534 486 547 447 q 499 541 522 525 q 440 556 476 556 q 380 541 403 556 q 345 486 357 525 q 333 381 333 448 q 345 275 333 313 q 380 220 357 236 q 440 205 403 205 m 567 1108 q 500 1114 531 1108 q 427 1132 468 1120 q 362 1148 389 1142 q 306 1153 335 1153 q 227 1143 262 1153 q 155 1112 192 1133 l 155 1251 q 224 1286 187 1275 q 312 1297 260 1297 q 378 1291 347 1297 q 452 1273 409 1285 q 518 1256 492 1262 q 573 1251 544 1251 q 652 1261 617 1251 q 724 1292 687 1271 l 724 1153 q 656 1119 693 1129 q 567 1108 619 1108 m 745 849 l 529 849 l 440 964 l 350 849 l 134 849 l 317 1068 l 563 1068 l 745 849 z "},"ȍ":{"ha":880,"x_min":37,"x_max":843,"o":"m 440 -15 q 224 30 315 -15 q 85 164 133 75 q 37 379 37 252 q 141 675 37 573 q 440 776 246 776 q 658 731 568 776 q 796 596 749 685 q 843 381 843 508 q 794 164 843 253 q 656 30 746 76 q 440 -15 565 -15 m 440 205 q 500 220 476 205 q 535 274 523 236 q 547 379 547 313 q 534 486 547 447 q 499 541 522 525 q 440 556 476 556 q 380 541 403 556 q 345 486 357 525 q 333 381 333 448 q 345 275 333 313 q 380 220 357 236 q 440 205 403 205 m 175 847 l 56 1122 l 285 1122 l 390 847 l 175 847 m 489 847 l 369 1122 l 599 1122 l 704 847 l 489 847 z "},"ö":{"ha":880,"x_min":37,"x_max":843,"o":"m 440 -15 q 224 30 315 -15 q 85 164 133 75 q 37 379 37 252 q 141 675 37 573 q 440 776 246 776 q 658 731 568 776 q 796 596 749 685 q 843 381 843 508 q 794 164 843 253 q 656 30 746 76 q 440 -15 565 -15 m 440 205 q 500 220 476 205 q 535 274 523 236 q 547 379 547 313 q 534 486 547 447 q 499 541 522 525 q 440 556 476 556 q 380 541 403 556 q 345 486 357 525 q 333 381 333 448 q 345 275 333 313 q 380 220 357 236 q 440 205 403 205 m 256 844 q 143 881 183 844 q 103 985 103 918 q 143 1089 103 1051 q 256 1126 183 1126 q 369 1089 330 1126 q 408 985 408 1051 q 369 881 408 918 q 256 844 330 844 m 623 844 q 510 881 549 844 q 471 985 471 918 q 510 1089 471 1051 q 623 1126 549 1126 q 736 1089 697 1126 q 776 985 776 1051 q 736 881 776 918 q 623 844 697 844 z "},"ȫ":{"ha":880,"x_min":37,"x_max":843,"o":"m 440 -15 q 224 30 315 -15 q 85 164 133 75 q 37 379 37 252 q 141 675 37 573 q 440 776 246 776 q 658 731 568 776 q 796 596 749 685 q 843 381 843 508 q 794 164 843 253 q 656 30 746 76 q 440 -15 565 -15 m 440 205 q 500 220 476 205 q 535 274 523 236 q 547 379 547 313 q 534 486 547 447 q 499 541 522 525 q 440 556 476 556 q 380 541 403 556 q 345 486 357 525 q 333 381 333 448 q 345 275 333 313 q 380 220 357 236 q 440 205 403 205 m 256 844 q 143 881 183 844 q 103 985 103 918 q 143 1089 103 1051 q 256 1126 183 1126 q 369 1089 330 1126 q 408 985 408 1051 q 369 881 408 918 q 256 844 330 844 m 623 844 q 510 881 549 844 q 471 985 471 918 q 510 1089 471 1051 q 623 1126 549 1126 q 736 1089 697 1126 q 776 985 776 1051 q 736 881 776 918 q 623 844 697 844 m 172 1188 l 172 1360 l 708 1360 l 708 1188 l 172 1188 z "},"ȱ":{"ha":880,"x_min":37,"x_max":843,"o":"m 440 -15 q 224 30 315 -15 q 85 164 133 75 q 37 379 37 252 q 141 675 37 573 q 440 776 246 776 q 658 731 568 776 q 796 596 749 685 q 843 381 843 508 q 794 164 843 253 q 656 30 746 76 q 440 -15 565 -15 m 440 205 q 500 220 476 205 q 535 274 523 236 q 547 379 547 313 q 534 486 547 447 q 499 541 522 525 q 440 556 476 556 q 380 541 403 556 q 345 486 357 525 q 333 381 333 448 q 345 275 333 313 q 380 220 357 236 q 440 205 403 205 m 440 839 q 263 985 263 839 q 440 1131 263 1131 q 617 985 617 1131 q 440 839 617 839 m 172 1191 l 172 1363 l 708 1363 l 708 1191 l 172 1191 z "},"ọ":{"ha":880,"x_min":37,"x_max":843,"o":"m 440 -15 q 224 30 315 -15 q 85 164 133 75 q 37 379 37 252 q 141 675 37 573 q 440 776 246 776 q 658 731 568 776 q 796 596 749 685 q 843 381 843 508 q 794 164 843 253 q 656 30 746 76 q 440 -15 565 -15 m 440 205 q 500 220 476 205 q 535 274 523 236 q 547 379 547 313 q 534 486 547 447 q 499 541 522 525 q 440 556 476 556 q 380 541 403 556 q 345 486 357 525 q 333 381 333 448 q 345 275 333 313 q 380 220 357 236 q 440 205 403 205 m 440 -347 q 327 -311 366 -347 q 288 -210 288 -274 q 327 -109 288 -145 q 440 -72 366 -72 q 552 -109 513 -72 q 592 -210 592 -145 q 552 -311 592 -274 q 440 -347 513 -347 z "},"ò":{"ha":880,"x_min":37,"x_max":843,"o":"m 440 -15 q 224 30 315 -15 q 85 164 133 75 q 37 379 37 252 q 141 675 37 573 q 440 776 246 776 q 658 731 568 776 q 796 596 749 685 q 843 381 843 508 q 794 164 843 253 q 656 30 746 76 q 440 -15 565 -15 m 440 205 q 500 220 476 205 q 535 274 523 236 q 547 379 547 313 q 534 486 547 447 q 499 541 522 525 q 440 556 476 556 q 380 541 403 556 q 345 486 357 525 q 333 381 333 448 q 345 275 333 313 q 380 220 357 236 q 440 205 403 205 m 305 847 l 101 1122 l 413 1122 l 574 847 l 305 847 z "},"ỏ":{"ha":880,"x_min":37,"x_max":843,"o":"m 440 -15 q 224 30 315 -15 q 85 164 133 75 q 37 379 37 252 q 141 675 37 573 q 440 776 246 776 q 658 731 568 776 q 796 596 749 685 q 843 381 843 508 q 794 164 843 253 q 656 30 746 76 q 440 -15 565 -15 m 440 205 q 500 220 476 205 q 535 274 523 236 q 547 379 547 313 q 534 486 547 447 q 499 541 522 525 q 440 556 476 556 q 380 541 403 556 q 345 486 357 525 q 333 381 333 448 q 345 275 333 313 q 380 220 357 236 q 440 205 403 205 m 369 847 q 390 912 372 888 q 438 958 408 936 q 464 980 456 972 q 471 999 471 988 q 457 1018 471 1013 q 412 1024 443 1024 q 293 1008 355 1024 l 293 1113 q 361 1126 321 1121 q 435 1131 401 1131 q 575 1103 530 1131 q 620 1018 620 1076 q 612 974 620 992 q 592 944 603 956 q 561 917 581 933 q 525 884 537 899 q 510 847 513 870 l 369 847 z "},"ơ":{"ha":880,"x_min":37,"x_max":883,"o":"m 883 861 q 849 729 883 780 q 753 656 815 678 q 843 381 843 556 q 794 164 843 253 q 656 30 746 76 q 440 -15 565 -15 q 224 30 315 -15 q 85 164 133 75 q 37 379 37 252 q 142 675 37 574 q 447 776 248 776 q 533 772 478 776 q 579 769 569 769 q 669 793 640 769 q 699 874 699 817 q 689 969 699 917 l 870 969 q 883 861 883 922 m 440 205 q 500 220 476 205 q 535 274 523 236 q 547 379 547 313 q 534 486 547 447 q 499 541 522 525 q 440 556 476 556 q 380 541 403 556 q 345 486 357 525 q 333 381 333 448 q 345 275 333 313 q 380 220 357 236 q 440 205 403 205 z "},"ớ":{"ha":880,"x_min":37,"x_max":883,"o":"m 746 1122 l 557 847 l 308 847 l 458 1122 l 746 1122 m 883 861 q 849 729 883 780 q 753 656 815 678 q 843 381 843 556 q 794 164 843 253 q 656 30 746 76 q 440 -15 565 -15 q 224 30 315 -15 q 85 164 133 75 q 37 379 37 252 q 142 675 37 574 q 447 776 248 776 q 533 772 478 776 q 579 769 569 769 q 669 793 640 769 q 699 874 699 817 q 689 969 699 917 l 870 969 q 883 861 883 922 m 440 205 q 500 220 476 205 q 535 274 523 236 q 547 379 547 313 q 534 486 547 447 q 499 541 522 525 q 440 556 476 556 q 380 541 403 556 q 345 486 357 525 q 333 381 333 448 q 345 275 333 313 q 380 220 357 236 q 440 205 403 205 z "},"ợ":{"ha":880,"x_min":37,"x_max":883,"o":"m 883 861 q 849 729 883 780 q 753 656 815 678 q 843 381 843 556 q 794 164 843 253 q 656 30 746 76 q 440 -15 565 -15 q 224 30 315 -15 q 85 164 133 75 q 37 379 37 252 q 142 675 37 574 q 447 776 248 776 q 533 772 478 776 q 579 769 569 769 q 669 793 640 769 q 699 874 699 817 q 689 969 699 917 l 870 969 q 883 861 883 922 m 440 205 q 500 220 476 205 q 535 274 523 236 q 547 379 547 313 q 534 486 547 447 q 499 541 522 525 q 440 556 476 556 q 380 541 403 556 q 345 486 357 525 q 333 381 333 448 q 345 275 333 313 q 380 220 357 236 q 440 205 403 205 m 440 -347 q 327 -311 366 -347 q 288 -210 288 -274 q 327 -109 288 -145 q 440 -72 366 -72 q 552 -109 513 -72 q 592 -210 592 -145 q 552 -311 592 -274 q 440 -347 513 -347 z "},"ờ":{"ha":880,"x_min":37,"x_max":883,"o":"m 883 861 q 849 729 883 780 q 753 656 815 678 q 843 381 843 556 q 794 164 843 253 q 656 30 746 76 q 440 -15 565 -15 q 224 30 315 -15 q 85 164 133 75 q 37 379 37 252 q 142 675 37 574 q 447 776 248 776 q 533 772 478 776 q 579 769 569 769 q 669 793 640 769 q 699 874 699 817 q 689 969 699 917 l 870 969 q 883 861 883 922 m 440 205 q 500 220 476 205 q 535 274 523 236 q 547 379 547 313 q 534 486 547 447 q 499 541 522 525 q 440 556 476 556 q 380 541 403 556 q 345 486 357 525 q 333 381 333 448 q 345 275 333 313 q 380 220 357 236 q 440 205 403 205 m 298 847 l 94 1122 l 406 1122 l 567 847 l 298 847 z "},"ở":{"ha":880,"x_min":37,"x_max":883,"o":"m 883 861 q 849 729 883 780 q 753 656 815 678 q 843 381 843 556 q 794 164 843 253 q 656 30 746 76 q 440 -15 565 -15 q 224 30 315 -15 q 85 164 133 75 q 37 379 37 252 q 142 675 37 574 q 447 776 248 776 q 533 772 478 776 q 579 769 569 769 q 669 793 640 769 q 699 874 699 817 q 689 969 699 917 l 870 969 q 883 861 883 922 m 440 205 q 500 220 476 205 q 535 274 523 236 q 547 379 547 313 q 534 486 547 447 q 499 541 522 525 q 440 556 476 556 q 380 541 403 556 q 345 486 357 525 q 333 381 333 448 q 345 275 333 313 q 380 220 357 236 q 440 205 403 205 m 363 847 q 383 912 365 888 q 431 958 401 936 q 457 980 449 972 q 464 999 464 988 q 450 1018 464 1013 q 405 1024 436 1024 q 286 1008 348 1024 l 286 1113 q 354 1126 314 1121 q 428 1131 394 1131 q 568 1103 523 1131 q 613 1018 613 1076 q 605 974 613 992 q 585 944 597 956 q 554 917 574 933 q 518 884 530 899 q 503 847 506 870 l 363 847 z "},"ỡ":{"ha":880,"x_min":37,"x_max":883,"o":"m 526 865 q 468 874 494 865 q 407 901 442 883 q 352 926 373 918 q 307 933 331 933 q 239 918 271 933 q 172 870 207 903 l 172 1048 q 236 1092 202 1078 q 312 1106 270 1106 q 369 1097 343 1106 q 431 1069 396 1088 q 485 1045 465 1053 q 531 1038 506 1038 q 599 1052 567 1038 q 667 1101 631 1067 l 667 923 q 601 878 635 892 q 526 865 567 865 m 883 861 q 849 729 883 780 q 753 656 815 678 q 843 381 843 556 q 794 164 843 253 q 656 30 746 76 q 440 -15 565 -15 q 224 30 315 -15 q 85 164 133 75 q 37 379 37 252 q 142 675 37 574 q 447 776 248 776 q 533 772 478 776 q 579 769 569 769 q 669 793 640 769 q 699 874 699 817 q 689 969 699 917 l 870 969 q 883 861 883 922 m 440 205 q 500 220 476 205 q 535 274 523 236 q 547 379 547 313 q 534 486 547 447 q 499 541 522 525 q 440 556 476 556 q 380 541 403 556 q 345 486 357 525 q 333 381 333 448 q 345 275 333 313 q 380 220 357 236 q 440 205 403 205 z "},"ő":{"ha":880,"x_min":37,"x_max":843,"o":"m 440 -15 q 224 30 315 -15 q 85 164 133 75 q 37 379 37 252 q 141 675 37 573 q 440 776 246 776 q 658 731 568 776 q 796 596 749 685 q 843 381 843 508 q 794 164 843 253 q 656 30 746 76 q 440 -15 565 -15 m 440 205 q 500 220 476 205 q 535 274 523 236 q 547 379 547 313 q 534 486 547 447 q 499 541 522 525 q 440 556 476 556 q 380 541 403 556 q 345 486 357 525 q 333 381 333 448 q 345 275 333 313 q 380 220 357 236 q 440 205 403 205 m 174 847 l 280 1122 l 510 1122 l 390 847 l 174 847 m 489 847 l 594 1122 l 824 1122 l 705 847 l 489 847 z "},"ȏ":{"ha":880,"x_min":37,"x_max":843,"o":"m 440 -15 q 224 30 315 -15 q 85 164 133 75 q 37 379 37 252 q 141 675 37 573 q 440 776 246 776 q 658 731 568 776 q 796 596 749 685 q 843 381 843 508 q 794 164 843 253 q 656 30 746 76 q 440 -15 565 -15 m 440 205 q 500 220 476 205 q 535 274 523 236 q 547 379 547 313 q 534 486 547 447 q 499 541 522 525 q 440 556 476 556 q 380 541 403 556 q 345 486 357 525 q 333 381 333 448 q 345 275 333 313 q 380 220 357 236 q 440 205 403 205 m 157 867 q 237 1058 164 993 q 440 1122 310 1122 q 642 1057 568 1122 q 722 867 715 992 l 548 867 q 516 953 543 925 q 440 981 490 981 q 362 953 388 981 q 331 867 336 926 l 157 867 z "},"ō":{"ha":880,"x_min":37,"x_max":843,"o":"m 440 -15 q 224 30 315 -15 q 85 164 133 75 q 37 379 37 252 q 141 675 37 573 q 440 776 246 776 q 658 731 568 776 q 796 596 749 685 q 843 381 843 508 q 794 164 843 253 q 656 30 746 76 q 440 -15 565 -15 m 440 205 q 500 220 476 205 q 535 274 523 236 q 547 379 547 313 q 534 486 547 447 q 499 541 522 525 q 440 556 476 556 q 380 541 403 556 q 345 486 357 525 q 333 381 333 448 q 345 275 333 313 q 380 220 357 236 q 440 205 403 205 m 172 899 l 172 1072 l 708 1072 l 708 899 l 172 899 z "},"ṓ":{"ha":880,"x_min":37,"x_max":843,"o":"m 440 -15 q 224 30 315 -15 q 85 164 133 75 q 37 379 37 252 q 141 675 37 573 q 440 776 246 776 q 658 731 568 776 q 796 596 749 685 q 843 381 843 508 q 794 164 843 253 q 656 30 746 76 q 440 -15 565 -15 m 440 205 q 500 220 476 205 q 535 274 523 236 q 547 379 547 313 q 534 486 547 447 q 499 541 522 525 q 440 556 476 556 q 380 541 403 556 q 345 486 357 525 q 333 381 333 448 q 345 275 333 313 q 380 220 357 236 q 440 205 403 205 m 172 899 l 172 1072 l 708 1072 l 708 899 l 172 899 m 306 1168 l 433 1388 l 742 1388 l 571 1168 l 306 1168 z "},"ṑ":{"ha":880,"x_min":37,"x_max":843,"o":"m 440 -15 q 224 30 315 -15 q 85 164 133 75 q 37 379 37 252 q 141 675 37 573 q 440 776 246 776 q 658 731 568 776 q 796 596 749 685 q 843 381 843 508 q 794 164 843 253 q 656 30 746 76 q 440 -15 565 -15 m 440 205 q 500 220 476 205 q 535 274 523 236 q 547 379 547 313 q 534 486 547 447 q 499 541 522 525 q 440 556 476 556 q 380 541 403 556 q 345 486 357 525 q 333 381 333 448 q 345 275 333 313 q 380 220 357 236 q 440 205 403 205 m 172 899 l 172 1072 l 708 1072 l 708 899 l 172 899 m 307 1168 l 136 1388 l 445 1388 l 572 1168 l 307 1168 z "},"ǫ":{"ha":880,"x_min":37,"x_max":843,"o":"m 440 776 q 658 731 568 776 q 796 596 749 685 q 843 381 843 508 q 784 146 843 239 q 614 12 725 53 q 507 -39 545 -14 q 455 -88 469 -64 q 441 -140 441 -112 q 462 -190 441 -172 q 523 -208 483 -208 q 604 -191 561 -208 l 604 -299 q 546 -314 574 -309 q 479 -319 517 -319 q 328 -278 380 -319 q 276 -164 276 -237 q 297 -78 276 -116 q 363 -10 318 -41 q 123 109 208 9 q 37 379 37 209 q 141 675 37 573 q 440 776 246 776 m 440 205 q 500 220 476 205 q 535 274 523 236 q 547 379 547 313 q 534 486 547 447 q 499 541 522 525 q 440 556 476 556 q 380 541 403 556 q 345 486 357 525 q 333 381 333 448 q 345 275 333 313 q 380 220 357 236 q 440 205 403 205 z "},"ø":{"ha":880,"x_min":37,"x_max":843,"o":"m 738 674 q 843 381 843 572 q 794 164 843 253 q 656 30 746 76 q 440 -15 565 -15 q 260 15 337 -15 l 210 -53 l 96 32 l 140 91 q 63 214 89 141 q 37 379 37 286 q 141 675 37 573 q 440 776 246 776 q 617 749 539 776 l 667 817 l 781 732 l 738 674 m 440 560 q 376 544 401 560 q 338 489 351 528 q 324 381 324 449 q 327 325 324 347 l 491 551 q 440 560 469 560 m 440 201 q 505 217 480 201 q 543 272 530 233 q 556 379 556 311 q 552 442 556 412 l 385 211 q 440 201 406 201 z "},"ǿ":{"ha":880,"x_min":37,"x_max":843,"o":"m 738 674 q 843 381 843 572 q 794 164 843 253 q 656 30 746 76 q 440 -15 565 -15 q 260 15 337 -15 l 210 -53 l 96 32 l 140 91 q 63 214 89 141 q 37 379 37 286 q 141 675 37 573 q 440 776 246 776 q 617 749 539 776 l 667 817 l 781 732 l 738 674 m 440 560 q 376 544 401 560 q 338 489 351 528 q 324 381 324 449 q 327 325 324 347 l 491 551 q 440 560 469 560 m 440 201 q 505 217 480 201 q 543 272 530 233 q 556 379 556 311 q 552 442 556 412 l 385 211 q 440 201 406 201 m 303 847 l 465 1122 l 777 1122 l 573 847 l 303 847 z "},"õ":{"ha":880,"x_min":37,"x_max":843,"o":"m 440 -15 q 224 30 315 -15 q 85 164 133 75 q 37 379 37 252 q 141 675 37 573 q 440 776 246 776 q 658 731 568 776 q 796 596 749 685 q 843 381 843 508 q 794 164 843 253 q 656 30 746 76 q 440 -15 565 -15 m 440 205 q 500 220 476 205 q 535 274 523 236 q 547 379 547 313 q 534 486 547 447 q 499 541 522 525 q 440 556 476 556 q 380 541 403 556 q 345 486 357 525 q 333 381 333 448 q 345 275 333 313 q 380 220 357 236 q 440 205 403 205 m 556 865 q 495 874 524 865 q 427 901 467 883 q 366 926 389 918 q 317 933 342 933 q 242 918 276 933 q 172 870 208 903 l 172 1048 q 239 1092 203 1078 q 323 1106 275 1106 q 384 1097 355 1106 q 452 1069 413 1088 q 514 1045 490 1053 q 562 1038 537 1038 q 638 1052 603 1038 q 708 1101 672 1067 l 708 923 q 640 878 676 892 q 556 865 604 865 z "},"ṍ":{"ha":880,"x_min":37,"x_max":843,"o":"m 440 -15 q 224 30 315 -15 q 85 164 133 75 q 37 379 37 252 q 141 675 37 573 q 440 776 246 776 q 658 731 568 776 q 796 596 749 685 q 843 381 843 508 q 794 164 843 253 q 656 30 746 76 q 440 -15 565 -15 m 440 205 q 500 220 476 205 q 535 274 523 236 q 547 379 547 313 q 534 486 547 447 q 499 541 522 525 q 440 556 476 556 q 380 541 403 556 q 345 486 357 525 q 333 381 333 448 q 345 275 333 313 q 380 220 357 236 q 440 205 403 205 m 556 865 q 495 874 524 865 q 427 901 467 883 q 366 926 389 918 q 317 933 342 933 q 242 918 276 933 q 172 870 208 903 l 172 1048 q 239 1092 203 1078 q 323 1106 275 1106 q 384 1097 355 1106 q 452 1069 413 1088 q 514 1045 490 1053 q 562 1038 537 1038 q 638 1052 603 1038 q 708 1101 672 1067 l 708 923 q 640 878 676 892 q 556 865 604 865 m 306 1168 l 433 1388 l 742 1388 l 571 1168 l 306 1168 z "},"ṏ":{"ha":880,"x_min":37,"x_max":843,"o":"m 440 -15 q 224 30 315 -15 q 85 164 133 75 q 37 379 37 252 q 141 675 37 573 q 440 776 246 776 q 658 731 568 776 q 796 596 749 685 q 843 381 843 508 q 794 164 843 253 q 656 30 746 76 q 440 -15 565 -15 m 440 205 q 500 220 476 205 q 535 274 523 236 q 547 379 547 313 q 534 486 547 447 q 499 541 522 525 q 440 556 476 556 q 380 541 403 556 q 345 486 357 525 q 333 381 333 448 q 345 275 333 313 q 380 220 357 236 q 440 205 403 205 m 556 865 q 495 874 524 865 q 427 901 467 883 q 366 926 389 918 q 317 933 342 933 q 242 918 276 933 q 172 870 208 903 l 172 1048 q 239 1092 203 1078 q 323 1106 275 1106 q 384 1097 355 1106 q 452 1069 413 1088 q 514 1045 490 1053 q 562 1038 537 1038 q 638 1052 603 1038 q 708 1101 672 1067 l 708 923 q 640 878 676 892 q 556 865 604 865 m 256 1133 q 143 1170 183 1133 q 103 1274 103 1207 q 143 1377 103 1340 q 256 1415 183 1415 q 369 1377 330 1415 q 408 1274 408 1340 q 369 1170 408 1207 q 256 1133 330 1133 m 623 1133 q 510 1170 549 1133 q 471 1274 471 1207 q 510 1377 471 1340 q 623 1415 549 1415 q 736 1377 697 1415 q 776 1274 776 1340 q 736 1170 776 1207 q 623 1133 697 1133 z "},"ȭ":{"ha":880,"x_min":37,"x_max":843,"o":"m 440 -15 q 224 30 315 -15 q 85 164 133 75 q 37 379 37 252 q 141 675 37 573 q 440 776 246 776 q 658 731 568 776 q 796 596 749 685 q 843 381 843 508 q 794 164 843 253 q 656 30 746 76 q 440 -15 565 -15 m 440 205 q 500 220 476 205 q 535 274 523 236 q 547 379 547 313 q 534 486 547 447 q 499 541 522 525 q 440 556 476 556 q 380 541 403 556 q 345 486 357 525 q 333 381 333 448 q 345 275 333 313 q 380 220 357 236 q 440 205 403 205 m 556 865 q 495 874 524 865 q 427 901 467 883 q 366 926 389 918 q 317 933 342 933 q 242 918 276 933 q 172 870 208 903 l 172 1048 q 239 1092 203 1078 q 323 1106 275 1106 q 384 1097 355 1106 q 452 1069 413 1088 q 514 1045 490 1053 q 562 1038 537 1038 q 638 1052 603 1038 q 708 1101 672 1067 l 708 923 q 640 878 676 892 q 556 865 604 865 m 172 1188 l 172 1360 l 708 1360 l 708 1188 l 172 1188 z "},"œ":{"ha":1314,"x_min":37,"x_max":1284,"o":"m 1284 299 l 844 299 q 867 242 848 263 q 927 213 885 222 q 1044 204 969 204 q 1239 224 1130 204 l 1239 8 q 1002 -15 1119 -15 q 810 7 890 -15 q 681 75 731 30 q 426 -15 587 -15 q 220 30 308 -15 q 84 164 132 76 q 37 379 37 253 q 83 597 37 508 q 216 731 129 686 q 426 776 303 776 q 695 672 602 776 q 803 749 740 722 q 944 776 866 776 q 1128 729 1051 776 q 1244 591 1204 682 q 1284 373 1284 501 l 1284 299 m 927 596 q 864 566 884 596 q 842 462 844 536 l 1011 462 q 990 566 1010 536 q 927 596 970 596 m 440 205 q 500 220 476 205 q 535 274 523 236 q 547 379 547 313 q 534 486 547 447 q 499 541 522 525 q 440 556 476 556 q 380 541 403 556 q 345 486 357 525 q 333 381 333 448 q 345 275 333 313 q 380 220 357 236 q 440 205 403 205 z "},"p":{"ha":901,"x_min":67,"x_max":865,"o":"m 67 764 l 315 764 l 333 684 l 345 684 q 428 752 378 728 q 543 776 478 776 q 705 735 633 776 q 821 609 778 694 q 865 397 865 524 q 815 174 865 266 q 668 34 765 82 q 428 -15 570 -15 q 363 -12 402 -15 l 363 -306 l 67 -306 l 67 764 m 426 206 q 534 245 499 206 q 568 374 568 283 q 538 501 568 465 q 451 538 508 538 q 404 532 427 538 q 363 515 381 526 l 363 212 q 426 206 399 206 z "},"þ":{"ha":901,"x_min":67,"x_max":865,"o":"m 67 1122 l 363 1122 l 363 692 l 376 692 q 457 755 409 734 q 565 776 504 776 q 716 734 648 776 q 824 607 784 692 q 865 397 865 521 q 815 174 865 266 q 668 34 765 82 q 428 -15 570 -15 q 363 -12 402 -15 l 363 -306 l 67 -306 l 67 1122 m 426 206 q 534 245 499 206 q 568 374 568 283 q 538 501 568 465 q 447 537 507 537 q 402 532 424 537 q 363 517 380 526 l 363 212 q 426 206 399 206 z "},"q":{"ha":901,"x_min":37,"x_max":834,"o":"m 538 69 l 525 69 q 445 7 492 28 q 336 -15 397 -15 q 185 27 253 -15 q 77 155 117 69 q 37 364 37 240 q 152 671 37 565 q 500 776 267 776 q 675 764 585 776 q 834 728 765 751 l 834 -306 l 538 -306 l 538 69 m 455 225 q 538 242 502 225 l 538 550 q 474 556 506 556 q 368 517 403 556 q 333 387 333 478 q 364 261 333 297 q 455 225 394 225 z "},"r":{"ha":603,"x_min":67,"x_max":595,"o":"m 67 764 l 308 764 l 331 667 l 344 667 q 532 776 395 776 q 595 771 563 776 l 595 505 q 513 512 563 512 q 427 498 469 512 q 363 462 385 485 l 363 0 l 67 0 l 67 764 z "},"ŕ":{"ha":603,"x_min":67,"x_max":671,"o":"m 67 764 l 308 764 l 331 667 l 344 667 q 532 776 395 776 q 595 771 563 776 l 595 505 q 513 512 563 512 q 427 498 469 512 q 363 462 385 485 l 363 0 l 67 0 l 67 764 m 197 847 l 359 1122 l 671 1122 l 467 847 l 197 847 z "},"ř":{"ha":603,"x_min":48,"x_max":616,"o":"m 67 764 l 308 764 l 331 667 l 344 667 q 532 776 395 776 q 595 771 563 776 l 595 505 q 513 512 563 512 q 427 498 469 512 q 363 462 385 485 l 363 0 l 67 0 l 67 764 m 411 1122 l 616 1122 l 450 847 l 214 847 l 48 1122 l 253 1122 l 332 981 l 411 1122 z "},"ŗ":{"ha":603,"x_min":57,"x_max":595,"o":"m 67 764 l 308 764 l 331 667 l 344 667 q 532 776 395 776 q 595 771 563 776 l 595 505 q 513 512 563 512 q 427 498 469 512 q 363 462 385 485 l 363 0 l 67 0 l 67 764 m 215 -72 q 374 -194 374 -72 q 356 -282 374 -236 q 310 -360 338 -328 l 128 -360 q 157 -302 147 -326 q 172 -256 167 -278 q 57 -165 57 -244 q 215 -72 57 -72 z "},"ȑ":{"ha":603,"x_min":-52,"x_max":597,"o":"m 67 764 l 308 764 l 331 667 l 344 667 q 532 776 395 776 q 595 771 563 776 l 595 505 q 513 512 563 512 q 427 498 469 512 q 363 462 385 485 l 363 0 l 67 0 l 67 764 m 67 847 l -52 1122 l 177 1122 l 283 847 l 67 847 m 381 847 l 262 1122 l 492 1122 l 597 847 l 381 847 z "},"ṛ":{"ha":603,"x_min":63,"x_max":595,"o":"m 67 764 l 308 764 l 331 667 l 344 667 q 532 776 395 776 q 595 771 563 776 l 595 505 q 513 512 563 512 q 427 498 469 512 q 363 462 385 485 l 363 0 l 67 0 l 67 764 m 215 -347 q 102 -311 142 -347 q 63 -210 63 -274 q 102 -109 63 -145 q 215 -72 142 -72 q 328 -109 289 -72 q 367 -210 367 -145 q 328 -311 367 -274 q 215 -347 289 -347 z "},"ȓ":{"ha":603,"x_min":49,"x_max":615,"o":"m 67 764 l 308 764 l 331 667 l 344 667 q 532 776 395 776 q 595 771 563 776 l 595 505 q 513 512 563 512 q 427 498 469 512 q 363 462 385 485 l 363 0 l 67 0 l 67 764 m 49 867 q 129 1058 56 993 q 332 1122 202 1122 q 534 1057 460 1122 q 615 867 608 992 l 440 867 q 409 953 435 925 q 332 981 382 981 q 254 953 280 981 q 224 867 228 926 l 49 867 z "},"ṟ":{"ha":603,"x_min":-53,"x_max":595,"o":"m 67 764 l 308 764 l 331 667 l 344 667 q 532 776 395 776 q 595 771 563 776 l 595 505 q 513 512 563 512 q 427 498 469 512 q 363 462 385 485 l 363 0 l 67 0 l 67 764 m -53 -292 l -53 -122 l 483 -122 l 483 -292 l -53 -292 z "},"s":{"ha":716,"x_min":31,"x_max":691,"o":"m 320 -15 q 54 20 170 -15 l 54 232 q 178 206 110 215 q 315 196 247 196 q 395 206 372 196 q 418 235 418 216 q 410 255 418 248 q 381 265 402 261 l 244 288 q 83 363 135 306 q 31 517 31 419 q 74 655 31 597 q 207 745 118 713 q 428 776 296 776 q 545 769 487 776 q 648 751 603 763 l 648 539 q 548 558 604 551 q 437 565 492 565 q 332 553 360 565 q 303 523 303 542 q 312 506 303 512 q 341 497 320 500 l 479 473 q 638 402 585 455 q 691 245 691 350 q 647 106 691 165 q 519 16 603 47 q 320 -15 435 -15 z "},"ś":{"ha":716,"x_min":31,"x_max":699,"o":"m 320 -15 q 54 20 170 -15 l 54 232 q 178 206 110 215 q 315 196 247 196 q 395 206 372 196 q 418 235 418 216 q 410 255 418 248 q 381 265 402 261 l 244 288 q 83 363 135 306 q 31 517 31 419 q 74 655 31 597 q 207 745 118 713 q 428 776 296 776 q 545 769 487 776 q 648 751 603 763 l 648 539 q 548 558 604 551 q 437 565 492 565 q 332 553 360 565 q 303 523 303 542 q 312 506 303 512 q 341 497 320 500 l 479 473 q 638 402 585 455 q 691 245 691 350 q 647 106 691 165 q 519 16 603 47 q 320 -15 435 -15 m 226 847 l 388 1122 l 699 1122 l 495 847 l 226 847 z "},"ṥ":{"ha":716,"x_min":31,"x_max":699,"o":"m 320 -15 q 54 20 170 -15 l 54 232 q 178 206 110 215 q 315 196 247 196 q 395 206 372 196 q 418 235 418 216 q 410 255 418 248 q 381 265 402 261 l 244 288 q 83 363 135 306 q 31 517 31 419 q 74 655 31 597 q 207 745 118 713 q 428 776 296 776 q 545 769 487 776 q 648 751 603 763 l 648 539 q 548 558 604 551 q 437 565 492 565 q 332 553 360 565 q 303 523 303 542 q 312 506 303 512 q 341 497 320 500 l 479 473 q 638 402 585 455 q 691 245 691 350 q 647 106 691 165 q 519 16 603 47 q 320 -15 435 -15 m 207 1094 q 102 1120 138 1094 q 67 1194 67 1147 q 102 1268 67 1242 q 207 1294 138 1294 q 312 1268 276 1294 q 347 1194 347 1242 q 312 1120 347 1147 q 207 1094 276 1094 m 226 847 l 388 1122 l 699 1122 l 495 847 l 226 847 z "},"š":{"ha":716,"x_min":31,"x_max":691,"o":"m 320 -15 q 54 20 170 -15 l 54 232 q 178 206 110 215 q 315 196 247 196 q 395 206 372 196 q 418 235 418 216 q 410 255 418 248 q 381 265 402 261 l 244 288 q 83 363 135 306 q 31 517 31 419 q 74 655 31 597 q 207 745 118 713 q 428 776 296 776 q 545 769 487 776 q 648 751 603 763 l 648 539 q 548 558 604 551 q 437 565 492 565 q 332 553 360 565 q 303 523 303 542 q 312 506 303 512 q 341 497 320 500 l 479 473 q 638 402 585 455 q 691 245 691 350 q 647 106 691 165 q 519 16 603 47 q 320 -15 435 -15 m 440 1122 l 644 1122 l 478 847 l 242 847 l 76 1122 l 281 1122 l 360 981 l 440 1122 z "},"ṧ":{"ha":716,"x_min":31,"x_max":691,"o":"m 320 -15 q 54 20 170 -15 l 54 232 q 178 206 110 215 q 315 196 247 196 q 395 206 372 196 q 418 235 418 216 q 410 255 418 248 q 381 265 402 261 l 244 288 q 83 363 135 306 q 31 517 31 419 q 74 655 31 597 q 207 745 118 713 q 428 776 296 776 q 545 769 487 776 q 648 751 603 763 l 648 539 q 548 558 604 551 q 437 565 492 565 q 332 553 360 565 q 303 523 303 542 q 312 506 303 512 q 341 497 320 500 l 479 473 q 638 402 585 455 q 691 245 691 350 q 647 106 691 165 q 519 16 603 47 q 320 -15 435 -15 m 360 1150 q 256 1176 291 1150 q 221 1250 221 1202 q 256 1324 221 1298 q 360 1351 291 1351 q 465 1324 430 1351 q 500 1250 500 1298 q 465 1176 500 1202 q 360 1150 430 1150 m 440 1122 l 644 1122 l 478 847 l 242 847 l 76 1122 l 281 1122 l 360 981 l 440 1122 z "},"ş":{"ha":716,"x_min":31,"x_max":691,"o":"m 691 245 q 624 81 691 146 q 437 -6 558 15 l 437 -53 q 524 -99 494 -65 q 553 -183 553 -132 q 503 -284 553 -248 q 354 -319 453 -319 q 223 -299 285 -319 l 223 -194 q 281 -208 249 -203 q 339 -213 313 -213 q 388 -203 372 -213 q 404 -170 404 -194 q 338 -126 404 -126 l 302 -126 l 302 -15 q 54 20 163 -13 l 54 232 q 178 206 110 215 q 315 196 247 196 q 395 206 372 196 q 418 235 418 216 q 410 255 418 248 q 381 265 402 261 l 244 288 q 83 363 135 306 q 31 517 31 419 q 74 655 31 597 q 207 745 118 713 q 428 776 296 776 q 545 769 487 776 q 648 751 603 763 l 648 539 q 548 558 604 551 q 437 565 492 565 q 332 553 360 565 q 303 523 303 542 q 312 506 303 512 q 341 497 320 500 l 479 473 q 638 402 585 455 q 691 245 691 350 z "}}}
